<mxfile host="app.diagrams.net" modified="2020-11-06T01:50:42.231Z" agent="5.0 (Windows NT 10.0; Win64; x64) AppleWebKit/537.36 (KHTML, like Gecko) Chrome/86.0.4240.183 Safari/537.36" etag="qdp7vsgwZNX-7QxW7OuN" version="13.8.9" type="github">
  <diagram id="FYaswiSGIwKq-WaGxozS" name="Page-1">
    <mxGraphModel dx="1218" dy="715" grid="1" gridSize="10" guides="1" tooltips="1" connect="1" arrows="1" fold="1" page="1" pageScale="1" pageWidth="827" pageHeight="1169" math="0" shadow="0">
      <root>
        <mxCell id="0" />
        <mxCell id="1" parent="0" />
        <mxCell id="YH1fGvTt6RqdAR0_2gCc-4" style="edgeStyle=orthogonalEdgeStyle;rounded=0;orthogonalLoop=1;jettySize=auto;html=1;exitX=1;exitY=0.5;exitDx=0;exitDy=0;entryX=0.5;entryY=0;entryDx=0;entryDy=0;" parent="1" source="YH1fGvTt6RqdAR0_2gCc-1" target="YH1fGvTt6RqdAR0_2gCc-2" edge="1">
          <mxGeometry relative="1" as="geometry" />
        </mxCell>
        <mxCell id="YH1fGvTt6RqdAR0_2gCc-8" style="edgeStyle=orthogonalEdgeStyle;rounded=0;orthogonalLoop=1;jettySize=auto;html=1;entryX=0;entryY=0.5;entryDx=0;entryDy=0;" parent="1" source="YH1fGvTt6RqdAR0_2gCc-1" target="YH1fGvTt6RqdAR0_2gCc-7" edge="1">
          <mxGeometry relative="1" as="geometry" />
        </mxCell>
        <mxCell id="YH1fGvTt6RqdAR0_2gCc-1" value="&lt;font style=&quot;font-size: 17px&quot;&gt;Login&lt;/font&gt;" style="ellipse;whiteSpace=wrap;html=1;aspect=fixed;" parent="1" vertex="1">
          <mxGeometry x="40" y="820" width="110" height="110" as="geometry" />
        </mxCell>
        <UserObject label="&lt;div style=&quot;font-size: 13px&quot;&gt;&lt;div style=&quot;font-size: 13px&quot;&gt;&lt;div&gt;LOGGER(&lt;/div&gt;&lt;div&gt;&amp;nbsp; &amp;nbsp; &amp;nbsp; &amp;nbsp; &#39;INFO&#39;,&lt;/div&gt;&lt;div&gt;&amp;nbsp; &amp;nbsp; &amp;nbsp; &amp;nbsp; {&lt;/div&gt;&lt;div&gt;&amp;nbsp; &amp;nbsp; &amp;nbsp; &amp;nbsp; &amp;nbsp; pid: process.pid,&lt;/div&gt;&lt;div&gt;&amp;nbsp; &amp;nbsp; &amp;nbsp; &amp;nbsp; &amp;nbsp; hostname: process.env.BACKEND_SERVER,&lt;/div&gt;&lt;div&gt;&amp;nbsp; &amp;nbsp; &amp;nbsp; &amp;nbsp; &amp;nbsp; message: {&lt;/div&gt;&lt;div&gt;&amp;nbsp; &amp;nbsp; &amp;nbsp; &amp;nbsp; &amp;nbsp; &amp;nbsp; ipRemota: publicIp(&lt;/div&gt;&lt;div&gt;&amp;nbsp; &amp;nbsp; &amp;nbsp; &amp;nbsp; &amp;nbsp; &amp;nbsp; &amp;nbsp; req.header(&#39;x-forwarded-for&#39;) || req.connection.remoteAddress&lt;/div&gt;&lt;div&gt;&amp;nbsp; &amp;nbsp; &amp;nbsp; &amp;nbsp; &amp;nbsp; &amp;nbsp; ),&lt;/div&gt;&lt;div&gt;&amp;nbsp; &amp;nbsp; &amp;nbsp; &amp;nbsp; &amp;nbsp; &amp;nbsp; idCliente: &#39;&#39;,&lt;/div&gt;&lt;div&gt;&amp;nbsp; &amp;nbsp; &amp;nbsp; &amp;nbsp; &amp;nbsp; &amp;nbsp; nombreUsuario: data.idUser,&lt;/div&gt;&lt;div&gt;&amp;nbsp; &amp;nbsp; &amp;nbsp; &amp;nbsp; &amp;nbsp; &amp;nbsp; idSesion: data.token,&lt;/div&gt;&lt;div&gt;&amp;nbsp; &amp;nbsp; &amp;nbsp; &amp;nbsp; &amp;nbsp; &amp;nbsp; accion: &#39;Login&#39;,&lt;/div&gt;&lt;div&gt;&amp;nbsp; &amp;nbsp; &amp;nbsp; &amp;nbsp; &amp;nbsp; &amp;nbsp; estatus: &#39;Iniciando&#39;,&lt;/div&gt;&lt;div&gt;&amp;nbsp; &amp;nbsp; &amp;nbsp; &amp;nbsp; &amp;nbsp; &amp;nbsp; recurso: &#39;Cógnito&#39;,&lt;/div&gt;&lt;div&gt;&amp;nbsp; &amp;nbsp; &amp;nbsp; &amp;nbsp; &amp;nbsp; &amp;nbsp; fase: &#39;Autenticar&#39;,&lt;/div&gt;&lt;div&gt;&amp;nbsp; &amp;nbsp; &amp;nbsp; &amp;nbsp; &amp;nbsp; &amp;nbsp; descripcion: poolData&lt;/div&gt;&lt;div&gt;&amp;nbsp; &amp;nbsp; &amp;nbsp; &amp;nbsp; &amp;nbsp; }&lt;/div&gt;&lt;div&gt;&amp;nbsp; &amp;nbsp; &amp;nbsp; &amp;nbsp; },&lt;/div&gt;&lt;div&gt;&amp;nbsp; &amp;nbsp; &amp;nbsp; &amp;nbsp; LOGGER_AUTH&lt;/div&gt;&lt;div&gt;&amp;nbsp; &amp;nbsp; &amp;nbsp; )&lt;/div&gt;&lt;/div&gt;&lt;/div&gt;" lucidchartObjectId="FheHkomjUrPZ" id="YH1fGvTt6RqdAR0_2gCc-2">
          <mxCell style="html=1;whiteSpace=wrap;shape=process;whiteSpace=wrap;spacing=3;verticalAlign=top;strokeColor=#5e5e5e;strokeOpacity=100;fillOpacity=100;rounded=1;absoluteArcSize=1;arcSize=7.199999999999999;fillColor=#c7e8ac;strokeWidth=2;align=left;fontSize=13;" parent="1" vertex="1" zOrder="62">
            <mxGeometry x="40" y="1010" width="400" height="350" as="geometry" />
          </mxCell>
        </UserObject>
        <mxCell id="YH1fGvTt6RqdAR0_2gCc-23" style="edgeStyle=orthogonalEdgeStyle;rounded=0;orthogonalLoop=1;jettySize=auto;html=1;exitX=1;exitY=0.5;exitDx=0;exitDy=0;entryX=0;entryY=0.5;entryDx=0;entryDy=0;entryPerimeter=0;" parent="1" source="YH1fGvTt6RqdAR0_2gCc-7" target="YH1fGvTt6RqdAR0_2gCc-18" edge="1">
          <mxGeometry relative="1" as="geometry" />
        </mxCell>
        <mxCell id="YH1fGvTt6RqdAR0_2gCc-7" value="&lt;font style=&quot;font-size: 14px&quot;&gt;AuthenticateUser&lt;/font&gt;" style="rounded=1;whiteSpace=wrap;html=1;absoluteArcSize=1;arcSize=14;strokeWidth=2;" parent="1" vertex="1">
          <mxGeometry x="440" y="835" width="120" height="80" as="geometry" />
        </mxCell>
        <mxCell id="YH1fGvTt6RqdAR0_2gCc-41" style="edgeStyle=orthogonalEdgeStyle;rounded=0;orthogonalLoop=1;jettySize=auto;html=1;exitX=1;exitY=0.5;exitDx=0;exitDy=0;" parent="1" source="YH1fGvTt6RqdAR0_2gCc-11" target="YH1fGvTt6RqdAR0_2gCc-40" edge="1">
          <mxGeometry relative="1" as="geometry" />
        </mxCell>
        <UserObject label="&lt;div style=&quot;font-size: 13px&quot;&gt;&lt;div style=&quot;font-size: 13px&quot;&gt;&lt;div&gt;LOGGER(&lt;/div&gt;&lt;div&gt;&amp;nbsp; &amp;nbsp; &amp;nbsp; &amp;nbsp; &amp;nbsp; &amp;nbsp; &amp;nbsp; &#39;INFO&#39;,&lt;/div&gt;&lt;div&gt;&amp;nbsp; &amp;nbsp; &amp;nbsp; &amp;nbsp; &amp;nbsp; &amp;nbsp; &amp;nbsp; {&lt;/div&gt;&lt;div&gt;&amp;nbsp; &amp;nbsp; &amp;nbsp; &amp;nbsp; &amp;nbsp; &amp;nbsp; &amp;nbsp; &amp;nbsp; pid: process.pid,&lt;/div&gt;&lt;div&gt;&amp;nbsp; &amp;nbsp; &amp;nbsp; &amp;nbsp; &amp;nbsp; &amp;nbsp; &amp;nbsp; &amp;nbsp; hostname: process.env.BACKEND_SERVER,&lt;/div&gt;&lt;div&gt;&amp;nbsp; &amp;nbsp; &amp;nbsp; &amp;nbsp; &amp;nbsp; &amp;nbsp; &amp;nbsp; &amp;nbsp; message: {&lt;/div&gt;&lt;div&gt;&amp;nbsp; &amp;nbsp; &amp;nbsp; &amp;nbsp; &amp;nbsp; &amp;nbsp; &amp;nbsp; &amp;nbsp; &amp;nbsp; ipRemota: publicIp(&lt;/div&gt;&lt;div&gt;&amp;nbsp; &amp;nbsp; &amp;nbsp; &amp;nbsp; &amp;nbsp; &amp;nbsp; &amp;nbsp; &amp;nbsp; &amp;nbsp; &amp;nbsp; req.header(&#39;x-forwarded-for&#39;) ||&lt;/div&gt;&lt;div&gt;&amp;nbsp; &amp;nbsp; &amp;nbsp; &amp;nbsp; &amp;nbsp; &amp;nbsp; &amp;nbsp; &amp;nbsp; &amp;nbsp; &amp;nbsp; &amp;nbsp; req.connection.remoteAddress&lt;/div&gt;&lt;div&gt;&amp;nbsp; &amp;nbsp; &amp;nbsp; &amp;nbsp; &amp;nbsp; &amp;nbsp; &amp;nbsp; &amp;nbsp; &amp;nbsp; ),&lt;/div&gt;&lt;div&gt;&amp;nbsp; &amp;nbsp; &amp;nbsp; &amp;nbsp; &amp;nbsp; &amp;nbsp; &amp;nbsp; &amp;nbsp; &amp;nbsp; idCliente: &#39;&#39;,&lt;/div&gt;&lt;div&gt;&amp;nbsp; &amp;nbsp; &amp;nbsp; &amp;nbsp; &amp;nbsp; &amp;nbsp; &amp;nbsp; &amp;nbsp; &amp;nbsp; nombreUsuario: data.idUser,&lt;/div&gt;&lt;div&gt;&amp;nbsp; &amp;nbsp; &amp;nbsp; &amp;nbsp; &amp;nbsp; &amp;nbsp; &amp;nbsp; &amp;nbsp; &amp;nbsp; idSesion: data.token,&lt;/div&gt;&lt;div&gt;&amp;nbsp; &amp;nbsp; &amp;nbsp; &amp;nbsp; &amp;nbsp; &amp;nbsp; &amp;nbsp; &amp;nbsp; &amp;nbsp; accion: &#39;Login&#39;,&lt;/div&gt;&lt;div&gt;&amp;nbsp; &amp;nbsp; &amp;nbsp; &amp;nbsp; &amp;nbsp; &amp;nbsp; &amp;nbsp; &amp;nbsp; &amp;nbsp; estatus: &#39;Exitoso&#39;,&lt;/div&gt;&lt;div&gt;&amp;nbsp; &amp;nbsp; &amp;nbsp; &amp;nbsp; &amp;nbsp; &amp;nbsp; &amp;nbsp; &amp;nbsp; &amp;nbsp; recurso: &#39;Cógnito&#39;,&lt;/div&gt;&lt;div&gt;&amp;nbsp; &amp;nbsp; &amp;nbsp; &amp;nbsp; &amp;nbsp; &amp;nbsp; &amp;nbsp; &amp;nbsp; &amp;nbsp; fase: &#39;Autenticar&#39;,&lt;/div&gt;&lt;div&gt;&amp;nbsp; &amp;nbsp; &amp;nbsp; &amp;nbsp; &amp;nbsp; &amp;nbsp; &amp;nbsp; &amp;nbsp; &amp;nbsp; descripcion: authenticationDetails&lt;/div&gt;&lt;div&gt;&amp;nbsp; &amp;nbsp; &amp;nbsp; &amp;nbsp; &amp;nbsp; &amp;nbsp; &amp;nbsp; &amp;nbsp; }&lt;/div&gt;&lt;div&gt;&amp;nbsp; &amp;nbsp; &amp;nbsp; &amp;nbsp; &amp;nbsp; &amp;nbsp; &amp;nbsp; },&lt;/div&gt;&lt;div&gt;&amp;nbsp; &amp;nbsp; &amp;nbsp; &amp;nbsp; &amp;nbsp; &amp;nbsp; &amp;nbsp; LOGGER_AUTH&lt;/div&gt;&lt;div&gt;&amp;nbsp; &amp;nbsp; &amp;nbsp; &amp;nbsp; &amp;nbsp; &amp;nbsp; )&lt;/div&gt;&lt;/div&gt;&lt;/div&gt;" lucidchartObjectId="FheHkomjUrPZ" id="YH1fGvTt6RqdAR0_2gCc-11">
          <mxCell style="html=1;whiteSpace=wrap;shape=process;whiteSpace=wrap;spacing=3;verticalAlign=top;strokeColor=#5e5e5e;strokeOpacity=100;fillOpacity=100;rounded=1;absoluteArcSize=1;arcSize=7.199999999999999;fillColor=#c7e8ac;strokeWidth=2;align=left;fontSize=13;" parent="1" vertex="1" zOrder="62">
            <mxGeometry x="1020" y="400" width="400" height="360" as="geometry" />
          </mxCell>
        </UserObject>
        <UserObject label="&lt;div&gt;&lt;div&gt;&lt;div&gt;LOGGER(&lt;/div&gt;&lt;div&gt;&amp;nbsp; &amp;nbsp; &amp;nbsp; &amp;nbsp; &amp;nbsp; &amp;nbsp; &amp;nbsp; &#39;ERROR&#39;,&lt;/div&gt;&lt;div&gt;&amp;nbsp; &amp;nbsp; &amp;nbsp; &amp;nbsp; &amp;nbsp; &amp;nbsp; &amp;nbsp; {&lt;/div&gt;&lt;div&gt;&amp;nbsp; &amp;nbsp; &amp;nbsp; &amp;nbsp; &amp;nbsp; &amp;nbsp; &amp;nbsp; &amp;nbsp; pid: process.pid,&lt;/div&gt;&lt;div&gt;&amp;nbsp; &amp;nbsp; &amp;nbsp; &amp;nbsp; &amp;nbsp; &amp;nbsp; &amp;nbsp; &amp;nbsp; hostname: process.env.BACKEND_SERVER,&lt;/div&gt;&lt;div&gt;&amp;nbsp; &amp;nbsp; &amp;nbsp; &amp;nbsp; &amp;nbsp; &amp;nbsp; &amp;nbsp; &amp;nbsp; message: {&lt;/div&gt;&lt;div&gt;&amp;nbsp; &amp;nbsp; &amp;nbsp; &amp;nbsp; &amp;nbsp; &amp;nbsp; &amp;nbsp; &amp;nbsp; &amp;nbsp; ipRemota: publicIp(&lt;/div&gt;&lt;div&gt;&amp;nbsp; &amp;nbsp; &amp;nbsp; &amp;nbsp; &amp;nbsp; &amp;nbsp; &amp;nbsp; &amp;nbsp; &amp;nbsp; &amp;nbsp; req.header(&#39;x-forwarded-for&#39;) ||&lt;/div&gt;&lt;div&gt;&amp;nbsp; &amp;nbsp; &amp;nbsp; &amp;nbsp; &amp;nbsp; &amp;nbsp; &amp;nbsp; &amp;nbsp; &amp;nbsp; &amp;nbsp; &amp;nbsp; req.connection.remoteAddress&lt;/div&gt;&lt;div&gt;&amp;nbsp; &amp;nbsp; &amp;nbsp; &amp;nbsp; &amp;nbsp; &amp;nbsp; &amp;nbsp; &amp;nbsp; &amp;nbsp; ),&lt;/div&gt;&lt;div&gt;&amp;nbsp; &amp;nbsp; &amp;nbsp; &amp;nbsp; &amp;nbsp; &amp;nbsp; &amp;nbsp; &amp;nbsp; &amp;nbsp; accion: &#39;Login&#39;,&lt;/div&gt;&lt;div&gt;&amp;nbsp; &amp;nbsp; &amp;nbsp; &amp;nbsp; &amp;nbsp; &amp;nbsp; &amp;nbsp; &amp;nbsp; &amp;nbsp; estatus: &#39;Error&#39;,&lt;/div&gt;&lt;div&gt;&amp;nbsp; &amp;nbsp; &amp;nbsp; &amp;nbsp; &amp;nbsp; &amp;nbsp; &amp;nbsp; &amp;nbsp; &amp;nbsp; recurso: &#39;Cógnito&#39;,&lt;/div&gt;&lt;div&gt;&amp;nbsp; &amp;nbsp; &amp;nbsp; &amp;nbsp; &amp;nbsp; &amp;nbsp; &amp;nbsp; &amp;nbsp; &amp;nbsp; fase: &#39;Autenticar&#39;,&lt;/div&gt;&lt;div&gt;&amp;nbsp; &amp;nbsp; &amp;nbsp; &amp;nbsp; &amp;nbsp; &amp;nbsp; &amp;nbsp; &amp;nbsp; &amp;nbsp; descripcion: err&lt;/div&gt;&lt;div&gt;&amp;nbsp; &amp;nbsp; &amp;nbsp; &amp;nbsp; &amp;nbsp; &amp;nbsp; &amp;nbsp; &amp;nbsp; }&lt;/div&gt;&lt;div&gt;&amp;nbsp; &amp;nbsp; &amp;nbsp; &amp;nbsp; &amp;nbsp; &amp;nbsp; &amp;nbsp; },&lt;/div&gt;&lt;div&gt;&amp;nbsp; &amp;nbsp; &amp;nbsp; &amp;nbsp; &amp;nbsp; &amp;nbsp; &amp;nbsp; LOGGER_AUTH&lt;/div&gt;&lt;div&gt;&amp;nbsp; &amp;nbsp; &amp;nbsp; &amp;nbsp; &amp;nbsp; &amp;nbsp; )&lt;/div&gt;&lt;/div&gt;&lt;/div&gt;" lucidchartObjectId="FheHkomjUrPZ" id="YH1fGvTt6RqdAR0_2gCc-13">
          <mxCell style="html=1;whiteSpace=wrap;shape=process;whiteSpace=wrap;spacing=3;verticalAlign=top;strokeColor=#b85450;strokeOpacity=100;fillOpacity=100;rounded=1;absoluteArcSize=1;arcSize=7.199999999999999;strokeWidth=2;align=left;fontSize=13;size=0.1;fillColor=#FFBBB1;" parent="1" vertex="1" zOrder="62">
            <mxGeometry x="1020" y="1010" width="400" height="350" as="geometry" />
          </mxCell>
        </UserObject>
        <mxCell id="YH1fGvTt6RqdAR0_2gCc-20" style="edgeStyle=orthogonalEdgeStyle;rounded=0;orthogonalLoop=1;jettySize=auto;html=1;exitX=0.5;exitY=1;exitDx=0;exitDy=0;exitPerimeter=0;" parent="1" source="YH1fGvTt6RqdAR0_2gCc-18" target="YH1fGvTt6RqdAR0_2gCc-19" edge="1">
          <mxGeometry relative="1" as="geometry" />
        </mxCell>
        <mxCell id="YH1fGvTt6RqdAR0_2gCc-21" value="No" style="edgeLabel;html=1;align=center;verticalAlign=middle;resizable=0;points=[];" parent="YH1fGvTt6RqdAR0_2gCc-20" vertex="1" connectable="0">
          <mxGeometry x="-0.2807" y="2" relative="1" as="geometry">
            <mxPoint as="offset" />
          </mxGeometry>
        </mxCell>
        <mxCell id="YH1fGvTt6RqdAR0_2gCc-22" style="edgeStyle=orthogonalEdgeStyle;rounded=0;orthogonalLoop=1;jettySize=auto;html=1;exitX=1;exitY=0.5;exitDx=0;exitDy=0;exitPerimeter=0;entryX=0;entryY=0.5;entryDx=0;entryDy=0;" parent="1" source="YH1fGvTt6RqdAR0_2gCc-18" target="YH1fGvTt6RqdAR0_2gCc-11" edge="1">
          <mxGeometry relative="1" as="geometry" />
        </mxCell>
        <mxCell id="YH1fGvTt6RqdAR0_2gCc-26" value="onSuccess()" style="edgeLabel;html=1;align=center;verticalAlign=middle;resizable=0;points=[];" parent="YH1fGvTt6RqdAR0_2gCc-22" vertex="1" connectable="0">
          <mxGeometry x="0.0861" y="-4" relative="1" as="geometry">
            <mxPoint y="-1" as="offset" />
          </mxGeometry>
        </mxCell>
        <mxCell id="YH1fGvTt6RqdAR0_2gCc-24" style="edgeStyle=orthogonalEdgeStyle;rounded=0;orthogonalLoop=1;jettySize=auto;html=1;exitX=1;exitY=0.5;exitDx=0;exitDy=0;exitPerimeter=0;entryX=0;entryY=0.5;entryDx=0;entryDy=0;" parent="1" source="YH1fGvTt6RqdAR0_2gCc-18" target="YH1fGvTt6RqdAR0_2gCc-13" edge="1">
          <mxGeometry relative="1" as="geometry" />
        </mxCell>
        <mxCell id="YH1fGvTt6RqdAR0_2gCc-25" value="onFailure()" style="edgeLabel;html=1;align=center;verticalAlign=middle;resizable=0;points=[];" parent="YH1fGvTt6RqdAR0_2gCc-24" vertex="1" connectable="0">
          <mxGeometry x="-0.3035" y="3" relative="1" as="geometry">
            <mxPoint y="-1" as="offset" />
          </mxGeometry>
        </mxCell>
        <mxCell id="YH1fGvTt6RqdAR0_2gCc-18" value="&lt;font style=&quot;font-size: 16px&quot;&gt;Se estableció conexión&lt;/font&gt;" style="strokeWidth=2;html=1;shape=mxgraph.flowchart.decision;whiteSpace=wrap;" parent="1" vertex="1">
          <mxGeometry x="770" y="805" width="150" height="140" as="geometry" />
        </mxCell>
        <UserObject label="&lt;div style=&quot;font-size: 13px&quot;&gt;&lt;div style=&quot;font-size: 13px&quot;&gt;&lt;div&gt;LOGGER(&lt;/div&gt;&lt;div&gt;&amp;nbsp; &amp;nbsp; &amp;nbsp; &amp;nbsp; &amp;nbsp; &#39;ERROR&#39;,&lt;/div&gt;&lt;div&gt;&amp;nbsp; &amp;nbsp; &amp;nbsp; &amp;nbsp; &amp;nbsp; {&lt;/div&gt;&lt;div&gt;&amp;nbsp; &amp;nbsp; &amp;nbsp; &amp;nbsp; &amp;nbsp; &amp;nbsp; pid: process.pid,&lt;/div&gt;&lt;div&gt;&amp;nbsp; &amp;nbsp; &amp;nbsp; &amp;nbsp; &amp;nbsp; &amp;nbsp; hostname: process.env.BACKEND_SERVER,&lt;/div&gt;&lt;div&gt;&amp;nbsp; &amp;nbsp; &amp;nbsp; &amp;nbsp; &amp;nbsp; &amp;nbsp; message: {&lt;/div&gt;&lt;div&gt;&amp;nbsp; &amp;nbsp; &amp;nbsp; &amp;nbsp; &amp;nbsp; &amp;nbsp; &amp;nbsp; ipRemota: publicIp(&lt;/div&gt;&lt;div&gt;&amp;nbsp; &amp;nbsp; &amp;nbsp; &amp;nbsp; &amp;nbsp; &amp;nbsp; &amp;nbsp; &amp;nbsp; req.header(&#39;x-forwarded-for&#39;) || req.connection.remoteAddress&lt;/div&gt;&lt;div&gt;&amp;nbsp; &amp;nbsp; &amp;nbsp; &amp;nbsp; &amp;nbsp; &amp;nbsp; &amp;nbsp; ),&lt;/div&gt;&lt;div&gt;&amp;nbsp; &amp;nbsp; &amp;nbsp; &amp;nbsp; &amp;nbsp; &amp;nbsp; &amp;nbsp; accion: &#39;Login&#39;,&lt;/div&gt;&lt;div&gt;&amp;nbsp; &amp;nbsp; &amp;nbsp; &amp;nbsp; &amp;nbsp; &amp;nbsp; &amp;nbsp; estatus: &#39;Error&#39;,&lt;/div&gt;&lt;div&gt;&amp;nbsp; &amp;nbsp; &amp;nbsp; &amp;nbsp; &amp;nbsp; &amp;nbsp; &amp;nbsp; recurso: &#39;Cógnito&#39;,&lt;/div&gt;&lt;div&gt;&amp;nbsp; &amp;nbsp; &amp;nbsp; &amp;nbsp; &amp;nbsp; &amp;nbsp; &amp;nbsp; fase: &#39;Autenticar&#39;,&lt;/div&gt;&lt;div&gt;&amp;nbsp; &amp;nbsp; &amp;nbsp; &amp;nbsp; &amp;nbsp; &amp;nbsp; &amp;nbsp; descripcion: err&lt;/div&gt;&lt;div&gt;&amp;nbsp; &amp;nbsp; &amp;nbsp; &amp;nbsp; &amp;nbsp; &amp;nbsp; }&lt;/div&gt;&lt;div&gt;&amp;nbsp; &amp;nbsp; &amp;nbsp; &amp;nbsp; &amp;nbsp; },&lt;/div&gt;&lt;div&gt;&amp;nbsp; &amp;nbsp; &amp;nbsp; &amp;nbsp; &amp;nbsp; LOGGER_AUTH&lt;/div&gt;&lt;div&gt;&amp;nbsp; &amp;nbsp; &amp;nbsp; &amp;nbsp; )&lt;/div&gt;&lt;/div&gt;&lt;/div&gt;" lucidchartObjectId="FheHkomjUrPZ" id="YH1fGvTt6RqdAR0_2gCc-19">
          <mxCell style="html=1;whiteSpace=wrap;shape=process;whiteSpace=wrap;spacing=3;verticalAlign=top;strokeColor=#b85450;strokeOpacity=100;fillOpacity=100;rounded=1;absoluteArcSize=1;arcSize=7.199999999999999;strokeWidth=2;align=left;fontSize=13;size=0.1;fillColor=#FFBBB1;" parent="1" vertex="1" zOrder="62">
            <mxGeometry x="480" y="1010" width="400" height="350" as="geometry" />
          </mxCell>
        </UserObject>
        <mxCell id="YH1fGvTt6RqdAR0_2gCc-27" value="Si&lt;br&gt;" style="text;html=1;strokeColor=none;fillColor=none;align=center;verticalAlign=middle;whiteSpace=wrap;rounded=0;" parent="1" vertex="1">
          <mxGeometry x="920" y="850" width="40" height="20" as="geometry" />
        </mxCell>
        <mxCell id="YH1fGvTt6RqdAR0_2gCc-36" value="" style="group" parent="1" vertex="1" connectable="0">
          <mxGeometry x="1462.5" y="130" width="250" height="370" as="geometry" />
        </mxCell>
        <UserObject label="&lt;div style=&quot;text-align: left ; font-size: 13px&quot;&gt;&lt;span style=&quot;font-size: 13px ; color: rgb(201 , 45 , 57) ; font-weight: bold&quot;&gt;Header&lt;/span&gt;&lt;/div&gt;&lt;div style=&quot;text-align: left ; font-size: 13px&quot;&gt;&lt;div&gt;Accept: &#39;application/json&#39;,&lt;/div&gt;&lt;div&gt;&amp;nbsp;&#39;Content-Type&#39;: ‘application/x-www-form-urlencoded;charset=UTF-8’,&lt;/div&gt;&lt;div&gt;&amp;nbsp;idConsumidor: 25,&lt;/div&gt;&lt;div&gt;&amp;nbsp;idDestino: 14,&lt;/div&gt;&lt;div&gt;&amp;nbsp;usuario: gtqxhthfafmldtrmlt@niwghx.online&lt;/div&gt;&lt;div&gt;&lt;br&gt;&lt;/div&gt;&lt;/div&gt;&lt;div style=&quot;text-align: left ; font-size: 13px&quot;&gt;&lt;span style=&quot;font-size: 13px ; color: rgb(0 , 0 , 0)&quot;&gt;&lt;br&gt;&lt;/span&gt;&lt;/div&gt;&lt;div style=&quot;text-align: left ; font-size: 13px&quot;&gt;&lt;/div&gt;" lucidchartObjectId="b2fHpSifme5C" id="YH1fGvTt6RqdAR0_2gCc-33">
          <mxCell style="html=1;whiteSpace=wrap;;whiteSpace=wrap;spacing=3;verticalAlign=top;strokeColor=#5e5e5e;strokeOpacity=100;fillOpacity=100;rounded=1;absoluteArcSize=1;arcSize=7.199999999999999;fillColor=#e5e5e5;strokeWidth=2;fontSize=13;" parent="YH1fGvTt6RqdAR0_2gCc-36" vertex="1" zOrder="87">
            <mxGeometry y="75" width="249.99999999999997" height="147.5806451612903" as="geometry" />
          </mxCell>
        </UserObject>
        <UserObject label="&lt;div style=&quot;text-align: left ; font-size: 13px&quot;&gt;&lt;span style=&quot;font-size: 13px ; color: rgb(201 , 45 , 57) ; font-weight: bold&quot;&gt;Payload&lt;/span&gt;&lt;span style=&quot;font-size: 13px ; color: rgb(0 , 0 , 0)&quot;&gt;&lt;br style=&quot;font-size: 13px&quot;&gt;&lt;/span&gt;&lt;/div&gt;&lt;div&gt;&lt;div style=&quot;text-align: left&quot;&gt;•&lt;span&gt; &lt;/span&gt;grant_type: client_credentials&lt;/div&gt;&lt;div style=&quot;text-align: left&quot;&gt;•&lt;span&gt; &lt;/span&gt;client_id: e24fe3a5-43db-4c83-99ea-e0723e9a9c93&lt;/div&gt;&lt;div style=&quot;text-align: left&quot;&gt;•&lt;span&gt; &lt;/span&gt;client_secret: 0d7f208d-0a5b-4225-984d-fd4313360e6b&lt;/div&gt;&lt;div style=&quot;text-align: left&quot;&gt;•&lt;span&gt; &lt;/span&gt;Username: gtqxhthfafmldtrmlt@niwghx.online&lt;/div&gt;&lt;div style=&quot;text-align: left&quot;&gt;•&lt;span&gt; &lt;/span&gt;Password: jrlB7NYaXy&amp;amp;a&lt;/div&gt;&lt;div style=&quot;font-size: 13px&quot;&gt;&lt;br&gt;&lt;/div&gt;&lt;/div&gt;&lt;div style=&quot;text-align: left ; font-size: 13px&quot;&gt;&lt;/div&gt;" lucidchartObjectId="b2fHGq9EwkId" id="YH1fGvTt6RqdAR0_2gCc-34">
          <mxCell style="html=1;whiteSpace=wrap;;whiteSpace=wrap;spacing=3;verticalAlign=top;strokeColor=#5e5e5e;strokeOpacity=100;fillOpacity=100;rounded=1;absoluteArcSize=1;arcSize=7.199999999999999;fillColor=#e5e5e5;strokeWidth=2;fontSize=13;" parent="YH1fGvTt6RqdAR0_2gCc-36" vertex="1" zOrder="88">
            <mxGeometry y="222.58" width="250" height="147.42" as="geometry" />
          </mxCell>
        </UserObject>
        <UserObject label="&lt;div style=&quot;text-align: left ; font-size: 13px&quot;&gt;&lt;span style=&quot;font-size: 13px ; color: rgb(201 , 45 , 57) ; font-weight: bold&quot;&gt;URL&lt;/span&gt;&lt;span style=&quot;font-size: 13px ; color: rgb(0 , 0 , 0)&quot;&gt;:&amp;nbsp;&lt;/span&gt;&lt;/div&gt;&lt;span lang=&quot;EN-US&quot; style=&quot;font-size: 10.0pt ; line-height: 107% ; font-family: &amp;#34;leelawadee ui&amp;#34; , sans-serif&quot;&gt;https://iamdr.montepiedad.com.mx:4444/&lt;br&gt;&lt;div style=&quot;text-align: left&quot;&gt;&lt;span style=&quot;font-size: 10pt&quot;&gt;NMP/oauth/token&lt;/span&gt;&lt;/div&gt;&lt;/span&gt;" lucidchartObjectId="b2fHP6a50O9K" id="YH1fGvTt6RqdAR0_2gCc-35">
          <mxCell style="html=1;whiteSpace=wrap;;whiteSpace=wrap;spacing=3;verticalAlign=top;strokeColor=#5e5e5e;strokeOpacity=100;fillOpacity=100;rounded=1;absoluteArcSize=1;arcSize=7.199999999999999;fillColor=#e5e5e5;strokeWidth=2;fontSize=13;" parent="YH1fGvTt6RqdAR0_2gCc-36" vertex="1" zOrder="89">
            <mxGeometry width="249.99999999999997" height="75.00000000000001" as="geometry" />
          </mxCell>
        </UserObject>
        <mxCell id="YH1fGvTt6RqdAR0_2gCc-43" style="edgeStyle=orthogonalEdgeStyle;rounded=0;orthogonalLoop=1;jettySize=auto;html=1;exitX=0.5;exitY=1;exitDx=0;exitDy=0;" parent="1" source="YH1fGvTt6RqdAR0_2gCc-40" target="YH1fGvTt6RqdAR0_2gCc-42" edge="1">
          <mxGeometry relative="1" as="geometry" />
        </mxCell>
        <UserObject label="&lt;span style=&quot;font-family: &amp;#34;leelawadee ui&amp;#34; , sans-serif ; font-size: 13.3333px&quot;&gt;auth/cognito/login&lt;/span&gt;" lucidchartObjectId="NafHmFh6Zc9_" id="YH1fGvTt6RqdAR0_2gCc-40">
          <mxCell style="html=1;whiteSpace=wrap;shape=hexagon;perimeter=hexagonPerimeter2;whiteSpace=wrap;fontSize=13;fontColor=#000000;spacing=3;strokeColor=#5e5e5e;strokeOpacity=100;rounded=1;absoluteArcSize=1;arcSize=7.199999999999999;strokeWidth=2;" parent="1" vertex="1" zOrder="83">
            <mxGeometry x="1521" y="532" width="133" height="96" as="geometry" />
          </mxCell>
        </UserObject>
        <mxCell id="YH1fGvTt6RqdAR0_2gCc-45" value="No" style="edgeStyle=orthogonalEdgeStyle;rounded=0;orthogonalLoop=1;jettySize=auto;html=1;entryX=0.5;entryY=0;entryDx=0;entryDy=0;" parent="1" source="YH1fGvTt6RqdAR0_2gCc-42" target="YH1fGvTt6RqdAR0_2gCc-44" edge="1">
          <mxGeometry relative="1" as="geometry" />
        </mxCell>
        <mxCell id="YH1fGvTt6RqdAR0_2gCc-46" style="edgeStyle=orthogonalEdgeStyle;rounded=0;orthogonalLoop=1;jettySize=auto;html=1;exitX=1;exitY=0.5;exitDx=0;exitDy=0;entryX=0;entryY=0.5;entryDx=0;entryDy=0;" parent="1" source="YH1fGvTt6RqdAR0_2gCc-42" target="YH1fGvTt6RqdAR0_2gCc-48" edge="1">
          <mxGeometry relative="1" as="geometry">
            <mxPoint x="1950" y="876" as="targetPoint" />
          </mxGeometry>
        </mxCell>
        <mxCell id="YH1fGvTt6RqdAR0_2gCc-47" value="Si" style="edgeLabel;html=1;align=center;verticalAlign=middle;resizable=0;points=[];" parent="YH1fGvTt6RqdAR0_2gCc-46" vertex="1" connectable="0">
          <mxGeometry x="0.0041" y="-28" relative="1" as="geometry">
            <mxPoint x="-27" y="-22" as="offset" />
          </mxGeometry>
        </mxCell>
        <mxCell id="YH1fGvTt6RqdAR0_2gCc-42" value="Petición Exitosa" style="rhombus;whiteSpace=wrap;html=1;" parent="1" vertex="1">
          <mxGeometry x="1531.25" y="820" width="112.5" height="110" as="geometry" />
        </mxCell>
        <UserObject label="&lt;div&gt;LOGGER(&lt;/div&gt;&lt;div&gt;&amp;nbsp; &amp;nbsp; &amp;nbsp; &amp;nbsp; &amp;nbsp; &amp;nbsp; &amp;nbsp; &amp;nbsp; &amp;nbsp; &#39;ERROR&#39;,&lt;/div&gt;&lt;div&gt;&amp;nbsp; &amp;nbsp; &amp;nbsp; &amp;nbsp; &amp;nbsp; &amp;nbsp; &amp;nbsp; &amp;nbsp; &amp;nbsp; {&lt;/div&gt;&lt;div&gt;&amp;nbsp; &amp;nbsp; &amp;nbsp; &amp;nbsp; &amp;nbsp; &amp;nbsp; &amp;nbsp; &amp;nbsp; &amp;nbsp; &amp;nbsp; pid: process.pid,&lt;/div&gt;&lt;div&gt;&amp;nbsp; &amp;nbsp; &amp;nbsp; &amp;nbsp; &amp;nbsp; &amp;nbsp; &amp;nbsp; &amp;nbsp; &amp;nbsp; &amp;nbsp; hostname: process.env.BACKEND_SERVER,&lt;/div&gt;&lt;div&gt;&amp;nbsp; &amp;nbsp; &amp;nbsp; &amp;nbsp; &amp;nbsp; &amp;nbsp; &amp;nbsp; &amp;nbsp; &amp;nbsp; &amp;nbsp; message: {&lt;/div&gt;&lt;div&gt;&amp;nbsp; &amp;nbsp; &amp;nbsp; &amp;nbsp; &amp;nbsp; &amp;nbsp; &amp;nbsp; &amp;nbsp; &amp;nbsp; &amp;nbsp; &amp;nbsp; ipRemota: publicIp(&lt;/div&gt;&lt;div&gt;&amp;nbsp; &amp;nbsp; &amp;nbsp; &amp;nbsp; &amp;nbsp; &amp;nbsp; &amp;nbsp; &amp;nbsp; &amp;nbsp; &amp;nbsp; &amp;nbsp; &amp;nbsp; req.header(&#39;x-forwarded-for&#39;) ||&lt;/div&gt;&lt;div&gt;&amp;nbsp; &amp;nbsp; &amp;nbsp; &amp;nbsp; &amp;nbsp; &amp;nbsp; &amp;nbsp; &amp;nbsp; &amp;nbsp; &amp;nbsp; &amp;nbsp; &amp;nbsp; &amp;nbsp; req.connection.remoteAddress&lt;/div&gt;&lt;div&gt;&amp;nbsp; &amp;nbsp; &amp;nbsp; &amp;nbsp; &amp;nbsp; &amp;nbsp; &amp;nbsp; &amp;nbsp; &amp;nbsp; &amp;nbsp; &amp;nbsp; ),&lt;/div&gt;&lt;div&gt;&amp;nbsp; &amp;nbsp; &amp;nbsp; &amp;nbsp; &amp;nbsp; &amp;nbsp; &amp;nbsp; &amp;nbsp; &amp;nbsp; &amp;nbsp; &amp;nbsp; accion: &#39;Login&#39;,&lt;/div&gt;&lt;div&gt;&amp;nbsp; &amp;nbsp; &amp;nbsp; &amp;nbsp; &amp;nbsp; &amp;nbsp; &amp;nbsp; &amp;nbsp; &amp;nbsp; &amp;nbsp; &amp;nbsp; estatus: &#39;Error&#39;,&lt;/div&gt;&lt;div&gt;&amp;nbsp; &amp;nbsp; &amp;nbsp; &amp;nbsp; &amp;nbsp; &amp;nbsp; &amp;nbsp; &amp;nbsp; &amp;nbsp; &amp;nbsp; &amp;nbsp; recurso: &#39;Cógnito&#39;,&lt;/div&gt;&lt;div&gt;&amp;nbsp; &amp;nbsp; &amp;nbsp; &amp;nbsp; &amp;nbsp; &amp;nbsp; &amp;nbsp; &amp;nbsp; &amp;nbsp; &amp;nbsp; &amp;nbsp; fase: &#39;Autenticar&#39;,&lt;/div&gt;&lt;div&gt;&amp;nbsp; &amp;nbsp; &amp;nbsp; &amp;nbsp; &amp;nbsp; &amp;nbsp; &amp;nbsp; &amp;nbsp; &amp;nbsp; &amp;nbsp; &amp;nbsp; descripcion: err&lt;/div&gt;&lt;div&gt;&amp;nbsp; &amp;nbsp; &amp;nbsp; &amp;nbsp; &amp;nbsp; &amp;nbsp; &amp;nbsp; &amp;nbsp; &amp;nbsp; &amp;nbsp; }&lt;/div&gt;&lt;div&gt;&amp;nbsp; &amp;nbsp; &amp;nbsp; &amp;nbsp; &amp;nbsp; &amp;nbsp; &amp;nbsp; &amp;nbsp; &amp;nbsp; },&lt;/div&gt;&lt;div&gt;&amp;nbsp; &amp;nbsp; &amp;nbsp; &amp;nbsp; &amp;nbsp; &amp;nbsp; &amp;nbsp; &amp;nbsp; &amp;nbsp; LOGGER_AUTH&lt;/div&gt;&lt;div&gt;&amp;nbsp; &amp;nbsp; &amp;nbsp; &amp;nbsp; &amp;nbsp; &amp;nbsp; &amp;nbsp; &amp;nbsp; )&lt;/div&gt;" lucidchartObjectId="FheHkomjUrPZ" id="YH1fGvTt6RqdAR0_2gCc-44">
          <mxCell style="html=1;whiteSpace=wrap;shape=process;whiteSpace=wrap;spacing=3;verticalAlign=top;strokeColor=#b85450;strokeOpacity=100;fillOpacity=100;rounded=1;absoluteArcSize=1;arcSize=7.199999999999999;strokeWidth=2;align=left;fontSize=13;size=0.1;fillColor=#FFBBB1;" parent="1" vertex="1" zOrder="62">
            <mxGeometry x="1450" y="1010" width="400" height="350" as="geometry" />
          </mxCell>
        </UserObject>
        <mxCell id="YH1fGvTt6RqdAR0_2gCc-50" value="No" style="edgeStyle=orthogonalEdgeStyle;rounded=0;orthogonalLoop=1;jettySize=auto;html=1;entryX=0.5;entryY=0;entryDx=0;entryDy=0;" parent="1" source="YH1fGvTt6RqdAR0_2gCc-48" target="YH1fGvTt6RqdAR0_2gCc-49" edge="1">
          <mxGeometry relative="1" as="geometry" />
        </mxCell>
        <mxCell id="YH1fGvTt6RqdAR0_2gCc-51" value="Si" style="edgeStyle=orthogonalEdgeStyle;rounded=0;orthogonalLoop=1;jettySize=auto;html=1;exitX=0.5;exitY=0;exitDx=0;exitDy=0;entryX=0.5;entryY=1;entryDx=0;entryDy=0;" parent="1" source="YH1fGvTt6RqdAR0_2gCc-48" target="YH1fGvTt6RqdAR0_2gCc-52" edge="1">
          <mxGeometry relative="1" as="geometry">
            <mxPoint x="2080" y="710" as="targetPoint" />
          </mxGeometry>
        </mxCell>
        <mxCell id="YH1fGvTt6RqdAR0_2gCc-48" value="Respuesta Exitosa" style="rhombus;whiteSpace=wrap;html=1;" parent="1" vertex="1">
          <mxGeometry x="2012.5" y="815" width="135" height="120" as="geometry" />
        </mxCell>
        <UserObject label="&lt;div&gt;LOGGER(&lt;/div&gt;&lt;div&gt;&amp;nbsp; &amp;nbsp; &amp;nbsp; &amp;nbsp; &amp;nbsp; &amp;nbsp; &amp;nbsp; &amp;nbsp; &amp;nbsp; &amp;nbsp; &#39;ERROR&#39;,&lt;/div&gt;&lt;div&gt;&amp;nbsp; &amp;nbsp; &amp;nbsp; &amp;nbsp; &amp;nbsp; &amp;nbsp; &amp;nbsp; &amp;nbsp; &amp;nbsp; &amp;nbsp; {&lt;/div&gt;&lt;div&gt;&amp;nbsp; &amp;nbsp; &amp;nbsp; &amp;nbsp; &amp;nbsp; &amp;nbsp; &amp;nbsp; &amp;nbsp; &amp;nbsp; &amp;nbsp; &amp;nbsp; pid: process.pid,&lt;/div&gt;&lt;div&gt;&amp;nbsp; &amp;nbsp; &amp;nbsp; &amp;nbsp; &amp;nbsp; &amp;nbsp; &amp;nbsp; &amp;nbsp; &amp;nbsp; &amp;nbsp; &amp;nbsp; hostname: process.env.BACKEND_SERVER,&lt;/div&gt;&lt;div&gt;&amp;nbsp; &amp;nbsp; &amp;nbsp; &amp;nbsp; &amp;nbsp; &amp;nbsp; &amp;nbsp; &amp;nbsp; &amp;nbsp; &amp;nbsp; &amp;nbsp; message: {&lt;/div&gt;&lt;div&gt;&amp;nbsp; &amp;nbsp; &amp;nbsp; &amp;nbsp; &amp;nbsp; &amp;nbsp; &amp;nbsp; &amp;nbsp; &amp;nbsp; &amp;nbsp; &amp;nbsp; &amp;nbsp; ipRemota: publicIp(&lt;/div&gt;&lt;div&gt;&amp;nbsp; &amp;nbsp; &amp;nbsp; &amp;nbsp; &amp;nbsp; &amp;nbsp; &amp;nbsp; &amp;nbsp; &amp;nbsp; &amp;nbsp; &amp;nbsp; &amp;nbsp; &amp;nbsp; req.header(&#39;x-forwarded-for&#39;) ||&lt;/div&gt;&lt;div&gt;&amp;nbsp; &amp;nbsp; &amp;nbsp; &amp;nbsp; &amp;nbsp; &amp;nbsp; &amp;nbsp; &amp;nbsp; &amp;nbsp; &amp;nbsp; &amp;nbsp; &amp;nbsp; &amp;nbsp; &amp;nbsp; req.connection.remoteAddress&lt;/div&gt;&lt;div&gt;&amp;nbsp; &amp;nbsp; &amp;nbsp; &amp;nbsp; &amp;nbsp; &amp;nbsp; &amp;nbsp; &amp;nbsp; &amp;nbsp; &amp;nbsp; &amp;nbsp; &amp;nbsp; ),&lt;/div&gt;&lt;div&gt;&amp;nbsp; &amp;nbsp; &amp;nbsp; &amp;nbsp; &amp;nbsp; &amp;nbsp; &amp;nbsp; &amp;nbsp; &amp;nbsp; &amp;nbsp; &amp;nbsp; &amp;nbsp; idCliente: &#39;&#39;,&lt;/div&gt;&lt;div&gt;&amp;nbsp; &amp;nbsp; &amp;nbsp; &amp;nbsp; &amp;nbsp; &amp;nbsp; &amp;nbsp; &amp;nbsp; &amp;nbsp; &amp;nbsp; &amp;nbsp; &amp;nbsp; nombreUsuario: data.idUser,&lt;/div&gt;&lt;div&gt;&amp;nbsp; &amp;nbsp; &amp;nbsp; &amp;nbsp; &amp;nbsp; &amp;nbsp; &amp;nbsp; &amp;nbsp; &amp;nbsp; &amp;nbsp; &amp;nbsp; &amp;nbsp; idSesion: data.token,&lt;/div&gt;&lt;div&gt;&amp;nbsp; &amp;nbsp; &amp;nbsp; &amp;nbsp; &amp;nbsp; &amp;nbsp; &amp;nbsp; &amp;nbsp; &amp;nbsp; &amp;nbsp; &amp;nbsp; &amp;nbsp; accion: &#39;Login&#39;,&lt;/div&gt;&lt;div&gt;&amp;nbsp; &amp;nbsp; &amp;nbsp; &amp;nbsp; &amp;nbsp; &amp;nbsp; &amp;nbsp; &amp;nbsp; &amp;nbsp; &amp;nbsp; &amp;nbsp; &amp;nbsp; estatus: &#39;Error&#39;,&lt;/div&gt;&lt;div&gt;&amp;nbsp; &amp;nbsp; &amp;nbsp; &amp;nbsp; &amp;nbsp; &amp;nbsp; &amp;nbsp; &amp;nbsp; &amp;nbsp; &amp;nbsp; &amp;nbsp; &amp;nbsp; recurso: `${SERVICE_TOKEN_OAUTH.HOST}//${SERVICE_TOKEN_OAUTH.PORT}/&lt;/div&gt;&lt;div&gt;${SERVICE_TOKEN_OAUTH.PATH}:${SERVICE_TOKEN_OAUTH.PORT}`,&lt;/div&gt;&lt;div&gt;&amp;nbsp; &amp;nbsp; &amp;nbsp; &amp;nbsp; &amp;nbsp; &amp;nbsp; &amp;nbsp; &amp;nbsp; &amp;nbsp; &amp;nbsp; &amp;nbsp; &amp;nbsp; fase: &#39;Autenticar&#39;,&lt;/div&gt;&lt;div&gt;&amp;nbsp; &amp;nbsp; &amp;nbsp; &amp;nbsp; &amp;nbsp; &amp;nbsp; &amp;nbsp; &amp;nbsp; &amp;nbsp; &amp;nbsp; &amp;nbsp; &amp;nbsp; descripcion: JSON.parse(responseJSON)&lt;/div&gt;&lt;div&gt;&amp;nbsp; &amp;nbsp; &amp;nbsp; &amp;nbsp; &amp;nbsp; &amp;nbsp; &amp;nbsp; &amp;nbsp; &amp;nbsp; &amp;nbsp; &amp;nbsp; }&lt;/div&gt;&lt;div&gt;&amp;nbsp; &amp;nbsp; &amp;nbsp; &amp;nbsp; &amp;nbsp; &amp;nbsp; &amp;nbsp; &amp;nbsp; &amp;nbsp; &amp;nbsp; },&lt;/div&gt;&lt;div&gt;&amp;nbsp; &amp;nbsp; &amp;nbsp; &amp;nbsp; &amp;nbsp; &amp;nbsp; &amp;nbsp; &amp;nbsp; &amp;nbsp; &amp;nbsp; LOGGER_AUTH&lt;/div&gt;&lt;div&gt;&amp;nbsp; &amp;nbsp; &amp;nbsp; &amp;nbsp; &amp;nbsp; &amp;nbsp; &amp;nbsp; &amp;nbsp; &amp;nbsp; )&lt;/div&gt;" lucidchartObjectId="FheHkomjUrPZ" id="YH1fGvTt6RqdAR0_2gCc-49">
          <mxCell style="html=1;whiteSpace=wrap;shape=process;whiteSpace=wrap;spacing=3;verticalAlign=top;strokeColor=#b85450;strokeOpacity=100;fillOpacity=100;rounded=1;absoluteArcSize=1;arcSize=7.199999999999999;strokeWidth=2;align=left;fontSize=13;size=0.1;fillColor=#FFBBB1;" parent="1" vertex="1" zOrder="62">
            <mxGeometry x="1880" y="1010" width="630" height="410" as="geometry" />
          </mxCell>
        </UserObject>
        <mxCell id="YH1fGvTt6RqdAR0_2gCc-54" style="edgeStyle=orthogonalEdgeStyle;rounded=0;orthogonalLoop=1;jettySize=auto;html=1;entryX=0;entryY=0.5;entryDx=0;entryDy=0;" parent="1" source="YH1fGvTt6RqdAR0_2gCc-52" target="YH1fGvTt6RqdAR0_2gCc-53" edge="1">
          <mxGeometry relative="1" as="geometry" />
        </mxCell>
        <UserObject label="&lt;div style=&quot;font-size: 13px&quot;&gt;&lt;div style=&quot;font-size: 13px&quot;&gt;&lt;div&gt;LOGGER(&lt;/div&gt;&lt;div&gt;&amp;nbsp; &amp;nbsp; &amp;nbsp; &amp;nbsp; &amp;nbsp; &amp;nbsp; &amp;nbsp; &amp;nbsp; &amp;nbsp; &amp;nbsp; &#39;INFO&#39;,&lt;/div&gt;&lt;div&gt;&amp;nbsp; &amp;nbsp; &amp;nbsp; &amp;nbsp; &amp;nbsp; &amp;nbsp; &amp;nbsp; &amp;nbsp; &amp;nbsp; &amp;nbsp; {&lt;/div&gt;&lt;div&gt;&amp;nbsp; &amp;nbsp; &amp;nbsp; &amp;nbsp; &amp;nbsp; &amp;nbsp; &amp;nbsp; &amp;nbsp; &amp;nbsp; &amp;nbsp; &amp;nbsp; pid: process.pid,&lt;/div&gt;&lt;div&gt;&amp;nbsp; &amp;nbsp; &amp;nbsp; &amp;nbsp; &amp;nbsp; &amp;nbsp; &amp;nbsp; &amp;nbsp; &amp;nbsp; &amp;nbsp; &amp;nbsp; hostname: process.env.BACKEND_SERVER,&lt;/div&gt;&lt;div&gt;&amp;nbsp; &amp;nbsp; &amp;nbsp; &amp;nbsp; &amp;nbsp; &amp;nbsp; &amp;nbsp; &amp;nbsp; &amp;nbsp; &amp;nbsp; &amp;nbsp; message: {&lt;/div&gt;&lt;div&gt;&amp;nbsp; &amp;nbsp; &amp;nbsp; &amp;nbsp; &amp;nbsp; &amp;nbsp; &amp;nbsp; &amp;nbsp; &amp;nbsp; &amp;nbsp; &amp;nbsp; &amp;nbsp; ipRemota: publicIp(&lt;/div&gt;&lt;div&gt;&amp;nbsp; &amp;nbsp; &amp;nbsp; &amp;nbsp; &amp;nbsp; &amp;nbsp; &amp;nbsp; &amp;nbsp; &amp;nbsp; &amp;nbsp; &amp;nbsp; &amp;nbsp; &amp;nbsp; req.header(&#39;x-forwarded-for&#39;) ||&lt;/div&gt;&lt;div&gt;&amp;nbsp; &amp;nbsp; &amp;nbsp; &amp;nbsp; &amp;nbsp; &amp;nbsp; &amp;nbsp; &amp;nbsp; &amp;nbsp; &amp;nbsp; &amp;nbsp; &amp;nbsp; &amp;nbsp; &amp;nbsp; req.connection.remoteAddress&lt;/div&gt;&lt;div&gt;&amp;nbsp; &amp;nbsp; &amp;nbsp; &amp;nbsp; &amp;nbsp; &amp;nbsp; &amp;nbsp; &amp;nbsp; &amp;nbsp; &amp;nbsp; &amp;nbsp; &amp;nbsp; ),&lt;/div&gt;&lt;div&gt;&amp;nbsp; &amp;nbsp; &amp;nbsp; &amp;nbsp; &amp;nbsp; &amp;nbsp; &amp;nbsp; &amp;nbsp; &amp;nbsp; &amp;nbsp; &amp;nbsp; &amp;nbsp; accion: &#39;Login&#39;,&lt;/div&gt;&lt;div&gt;&amp;nbsp; &amp;nbsp; &amp;nbsp; &amp;nbsp; &amp;nbsp; &amp;nbsp; &amp;nbsp; &amp;nbsp; &amp;nbsp; &amp;nbsp; &amp;nbsp; &amp;nbsp; estatus: &#39;Exitoso&#39;,&lt;/div&gt;&lt;div&gt;&amp;nbsp; &amp;nbsp; &amp;nbsp; &amp;nbsp; &amp;nbsp; &amp;nbsp; &amp;nbsp; &amp;nbsp; &amp;nbsp; &amp;nbsp; &amp;nbsp; &amp;nbsp; recurso: `${SERVICE_TOKEN_OAUTH.HOST}//&lt;/div&gt;&lt;div&gt;${SERVICE_TOKEN_OAUTH.PORT}/&lt;/div&gt;&lt;div&gt;${SERVICE_TOKEN_OAUTH.PATH}:&lt;/div&gt;&lt;div&gt;${SERVICE_TOKEN_OAUTH.PORT}`,&lt;/div&gt;&lt;div&gt;&amp;nbsp; &amp;nbsp; &amp;nbsp; &amp;nbsp; &amp;nbsp; &amp;nbsp; &amp;nbsp; &amp;nbsp; &amp;nbsp; &amp;nbsp; &amp;nbsp; &amp;nbsp; fase: &#39;Autenticar&#39;,&lt;/div&gt;&lt;div&gt;&amp;nbsp; &amp;nbsp; &amp;nbsp; &amp;nbsp; &amp;nbsp; &amp;nbsp; &amp;nbsp; &amp;nbsp; &amp;nbsp; &amp;nbsp; &amp;nbsp; &amp;nbsp; descripcion: responseJSON&lt;/div&gt;&lt;div&gt;&amp;nbsp; &amp;nbsp; &amp;nbsp; &amp;nbsp; &amp;nbsp; &amp;nbsp; &amp;nbsp; &amp;nbsp; &amp;nbsp; &amp;nbsp; &amp;nbsp; }&lt;/div&gt;&lt;div&gt;&amp;nbsp; &amp;nbsp; &amp;nbsp; &amp;nbsp; &amp;nbsp; &amp;nbsp; &amp;nbsp; &amp;nbsp; &amp;nbsp; &amp;nbsp; },&lt;/div&gt;&lt;div&gt;&amp;nbsp; &amp;nbsp; &amp;nbsp; &amp;nbsp; &amp;nbsp; &amp;nbsp; &amp;nbsp; &amp;nbsp; &amp;nbsp; &amp;nbsp; LOGGER_AUTH&lt;/div&gt;&lt;div&gt;&amp;nbsp; &amp;nbsp; &amp;nbsp; &amp;nbsp; &amp;nbsp; &amp;nbsp; &amp;nbsp; &amp;nbsp; &amp;nbsp; )&lt;/div&gt;&lt;/div&gt;&lt;/div&gt;" lucidchartObjectId="FheHkomjUrPZ" id="YH1fGvTt6RqdAR0_2gCc-52">
          <mxCell style="html=1;whiteSpace=wrap;shape=process;whiteSpace=wrap;spacing=3;verticalAlign=top;strokeColor=#5e5e5e;strokeOpacity=100;fillOpacity=100;rounded=1;absoluteArcSize=1;arcSize=7.199999999999999;fillColor=#c7e8ac;strokeWidth=2;align=left;fontSize=13;" parent="1" vertex="1" zOrder="62">
            <mxGeometry x="1880" y="390" width="400" height="370" as="geometry" />
          </mxCell>
        </UserObject>
        <UserObject label="&lt;div&gt;&lt;span&gt;Response:&amp;nbsp;&lt;/span&gt;&lt;/div&gt;&lt;font&gt;&lt;div&gt;{&lt;/div&gt;&lt;div&gt;&amp;nbsp; &amp;nbsp; &quot;access_token&quot;: &quot;Mp61dWKH7yEvf7V04K29HO1i3A81mpDCFExplBdiYYGj9uTvSI07lu&quot;,&lt;/div&gt;&lt;div&gt;&amp;nbsp; &amp;nbsp; &quot;token_type&quot;: &quot;Bearer&quot;,&lt;/div&gt;&lt;div&gt;&amp;nbsp; &amp;nbsp; &quot;expires_in&quot;: 3599,&lt;/div&gt;&lt;div&gt;&amp;nbsp; &amp;nbsp; &quot;refresh_token&quot;: &quot;HTsE6ZM8rMj02Bm4eK71Wq7cU9Vtvy8FHRMiIf3dEzT8zN91ABmVX6&quot;,&lt;/div&gt;&lt;div&gt;&amp;nbsp; &amp;nbsp; &quot;scope&quot;: &quot;/NMP/GestionClientes/Cliente/v2/numeroCredencial /NMP/GestionClientes/UsuariosMonte/v1/validarMedioContacto /NMP/OperacionPrendaria/Partidas/v1/Folio /NMP/OperacionPrendaria/Partidas/v1/Cliente /NMP/GestionClientes/UsuariosMonte/v1/solicitarAlta /NMP/GestionClientes/UsuariosMonte/v1/validarDatos /NMP/GestionClientes/UsuariosMonte/v1/actualizarDatos /NMP/OperacionPrendaria/OperacionesEnLinea/Transaccion.svc/v1 /NMP/GestionClientes/UsuariosMonte/v1/solicitarReinicioContrasena /NMP/OperacionPrendaria/EstadoCuenta/v1 /NMP/OperacionCreditos/Servicios/Acceso/MiMonte /NMP/GestionClientes/Cliente/v2/usuarioMonte /NMP/GestionClientes/Cliente/v2/idCliente /NMP/GestionClientes/UsuariosMonte/v1/registrarContrasena /NMP/GestionClientes/UsuariosMonte/v1/solicitarActivacion&quot;&lt;/div&gt;&lt;div&gt;}&lt;/div&gt;&lt;div style=&quot;font-size: 13px&quot;&gt;&lt;br&gt;&lt;/div&gt;&lt;/font&gt;" lucidchartObjectId="FheHwJTHAw6u" id="YH1fGvTt6RqdAR0_2gCc-53">
          <mxCell style="html=1;whiteSpace=wrap;;whiteSpace=wrap;spacing=3;verticalAlign=top;strokeColor=#5e5e5e;strokeOpacity=100;rounded=1;absoluteArcSize=1;arcSize=7.199999999999999;strokeWidth=2;fontSize=13;align=left;" parent="1" vertex="1" zOrder="69">
            <mxGeometry x="2460" y="380" width="440" height="390" as="geometry" />
          </mxCell>
        </UserObject>
        <mxCell id="YH1fGvTt6RqdAR0_2gCc-57" style="edgeStyle=orthogonalEdgeStyle;rounded=0;orthogonalLoop=1;jettySize=auto;html=1;exitX=1;exitY=0.5;exitDx=0;exitDy=0;entryX=0;entryY=0.5;entryDx=0;entryDy=0;" parent="1" source="YH1fGvTt6RqdAR0_2gCc-55" target="YH1fGvTt6RqdAR0_2gCc-56" edge="1">
          <mxGeometry relative="1" as="geometry" />
        </mxCell>
        <mxCell id="YH1fGvTt6RqdAR0_2gCc-55" value="&lt;font style=&quot;font-size: 17px&quot;&gt;Refresh&lt;/font&gt;" style="ellipse;whiteSpace=wrap;html=1;aspect=fixed;" parent="1" vertex="1">
          <mxGeometry x="20" y="1870" width="110" height="110" as="geometry" />
        </mxCell>
        <mxCell id="YH1fGvTt6RqdAR0_2gCc-59" value="Si" style="edgeStyle=orthogonalEdgeStyle;rounded=0;orthogonalLoop=1;jettySize=auto;html=1;exitX=0.5;exitY=1;exitDx=0;exitDy=0;entryX=0.5;entryY=0;entryDx=0;entryDy=0;" parent="1" source="YH1fGvTt6RqdAR0_2gCc-56" target="YH1fGvTt6RqdAR0_2gCc-58" edge="1">
          <mxGeometry relative="1" as="geometry" />
        </mxCell>
        <mxCell id="YH1fGvTt6RqdAR0_2gCc-73" style="edgeStyle=orthogonalEdgeStyle;rounded=0;orthogonalLoop=1;jettySize=auto;html=1;exitX=1;exitY=0.5;exitDx=0;exitDy=0;" parent="1" source="YH1fGvTt6RqdAR0_2gCc-56" target="YH1fGvTt6RqdAR0_2gCc-72" edge="1">
          <mxGeometry relative="1" as="geometry" />
        </mxCell>
        <UserObject label="&lt;div style=&quot;text-align: center; font-size: 13px;&quot;&gt;&lt;span style=&quot;font-size: 13px; color: rgb(51, 51, 51);&quot;&gt;data &amp;amp;&amp;amp; keys(data).length === 0) ||&#xa;&lt;/span&gt;&lt;/div&gt;&lt;div style=&quot;text-align: center; font-size: 13px;&quot;&gt;&lt;span style=&quot;font-size: 13px; color: rgb(51, 51, 51);&quot;&gt;      (data &amp;amp;&amp;amp; data.idUser === undefined) ||&#xa;&lt;/span&gt;&lt;/div&gt;&lt;div style=&quot;text-align: center; font-size: 13px;&quot;&gt;&lt;span style=&quot;font-size: 13px; color: rgb(51, 51, 51);&quot;&gt;      (data &amp;amp;&amp;amp; data.access_token === &#39;&quot;)&#39;&lt;/span&gt;&lt;/div&gt;" lucidchartObjectId="FheH1cczlGUl" id="YH1fGvTt6RqdAR0_2gCc-56">
          <mxCell style="html=1;whiteSpace=wrap;rhombus;whiteSpace=wrap;spacing=3;strokeColor=#5e5e5e;strokeOpacity=100;rounded=1;absoluteArcSize=1;arcSize=7.199999999999999;strokeWidth=2;fontSize=13;" parent="1" vertex="1" zOrder="49">
            <mxGeometry x="260" y="1846" width="293.5" height="158" as="geometry" />
          </mxCell>
        </UserObject>
        <UserObject label="&lt;div style=&quot;font-size: 13px&quot;&gt;&lt;div style=&quot;font-size: 13px&quot;&gt;&lt;div&gt;LOGGER(&lt;/div&gt;&lt;div&gt;&amp;nbsp; &amp;nbsp; &amp;nbsp; &amp;nbsp; &#39;ERROR&#39;,&lt;/div&gt;&lt;div&gt;&amp;nbsp; &amp;nbsp; &amp;nbsp; &amp;nbsp; {&lt;/div&gt;&lt;div&gt;&amp;nbsp; &amp;nbsp; &amp;nbsp; &amp;nbsp; &amp;nbsp; pid: process.pid,&lt;/div&gt;&lt;div&gt;&amp;nbsp; &amp;nbsp; &amp;nbsp; &amp;nbsp; &amp;nbsp; hostname: process.env.BACKEND_SERVER,&lt;/div&gt;&lt;div&gt;&amp;nbsp; &amp;nbsp; &amp;nbsp; &amp;nbsp; &amp;nbsp; message: {&lt;/div&gt;&lt;div&gt;&amp;nbsp; &amp;nbsp; &amp;nbsp; &amp;nbsp; &amp;nbsp; &amp;nbsp; ipRemota: publicIp(&lt;/div&gt;&lt;div&gt;&amp;nbsp; &amp;nbsp; &amp;nbsp; &amp;nbsp; &amp;nbsp; &amp;nbsp; &amp;nbsp; req.header(&#39;x-forwarded-for&#39;) || req.connection.remoteAddress&lt;/div&gt;&lt;div&gt;&amp;nbsp; &amp;nbsp; &amp;nbsp; &amp;nbsp; &amp;nbsp; &amp;nbsp; ),&lt;/div&gt;&lt;div&gt;&amp;nbsp; &amp;nbsp; &amp;nbsp; &amp;nbsp; &amp;nbsp; &amp;nbsp; accion: &#39;Token refresh&#39;,&lt;/div&gt;&lt;div&gt;&amp;nbsp; &amp;nbsp; &amp;nbsp; &amp;nbsp; &amp;nbsp; &amp;nbsp; estatus: &#39;Error&#39;,&lt;/div&gt;&lt;div&gt;&amp;nbsp; &amp;nbsp; &amp;nbsp; &amp;nbsp; &amp;nbsp; &amp;nbsp; recurso: `${SERVICE_TOKEN_OAUTH.PROTOCOL}//&lt;/div&gt;&lt;div&gt;${SERVICE_TOKEN_OAUTH.HOST}/&lt;/div&gt;&lt;div&gt;${SERVICE_TOKEN_OAUTH.PATH}:&lt;/div&gt;&lt;div&gt;${SERVICE_TOKEN_OAUTH.PORT}`,&lt;/div&gt;&lt;div&gt;&amp;nbsp; &amp;nbsp; &amp;nbsp; &amp;nbsp; &amp;nbsp; &amp;nbsp; fase: &#39;Autenticar&#39;,&lt;/div&gt;&lt;div&gt;&amp;nbsp; &amp;nbsp; &amp;nbsp; &amp;nbsp; &amp;nbsp; &amp;nbsp; descripcion: { error: &#39;ValidationError Need: refreshToken&#39; }&lt;/div&gt;&lt;div&gt;&amp;nbsp; &amp;nbsp; &amp;nbsp; &amp;nbsp; &amp;nbsp; }&lt;/div&gt;&lt;div&gt;&amp;nbsp; &amp;nbsp; &amp;nbsp; &amp;nbsp; },&lt;/div&gt;&lt;div&gt;&amp;nbsp; &amp;nbsp; &amp;nbsp; &amp;nbsp; LOGGER_AUTH&lt;/div&gt;&lt;div&gt;&amp;nbsp; &amp;nbsp; &amp;nbsp; )&lt;/div&gt;&lt;/div&gt;&lt;/div&gt;" lucidchartObjectId="FheHkomjUrPZ" id="YH1fGvTt6RqdAR0_2gCc-58">
          <mxCell style="html=1;whiteSpace=wrap;shape=process;whiteSpace=wrap;spacing=3;verticalAlign=top;strokeColor=#b85450;strokeOpacity=100;fillOpacity=100;rounded=1;absoluteArcSize=1;arcSize=7.199999999999999;strokeWidth=2;align=left;fontSize=13;size=0.1;fillColor=#FFBBB1;" parent="1" vertex="1" zOrder="62">
            <mxGeometry x="206.75" y="2070" width="400" height="380" as="geometry" />
          </mxCell>
        </UserObject>
        <mxCell id="YH1fGvTt6RqdAR0_2gCc-67" value="" style="group" parent="1" vertex="1" connectable="0">
          <mxGeometry x="681.5" y="1540" width="250" height="370" as="geometry" />
        </mxCell>
        <UserObject label="&lt;div style=&quot;text-align: left ; font-size: 13px&quot;&gt;&lt;span style=&quot;font-size: 13px ; color: rgb(201 , 45 , 57) ; font-weight: bold&quot;&gt;Header&lt;/span&gt;&lt;/div&gt;&lt;div style=&quot;text-align: left ; font-size: 13px&quot;&gt;&lt;div&gt;Accept: &#39;application/json&#39;,&lt;/div&gt;&lt;div&gt;&amp;nbsp;&#39;Content-Type&#39;: ‘application/x-www-form-urlencoded;charset=UTF-8’,&lt;/div&gt;&lt;div&gt;&amp;nbsp;idConsumidor: 25,&lt;/div&gt;&lt;div&gt;&amp;nbsp;idDestino: 14,&lt;/div&gt;&lt;div&gt;&lt;br&gt;&lt;/div&gt;&lt;div&gt;&lt;br&gt;&lt;/div&gt;&lt;/div&gt;&lt;div style=&quot;text-align: left ; font-size: 13px&quot;&gt;&lt;span style=&quot;font-size: 13px ; color: rgb(0 , 0 , 0)&quot;&gt;&lt;br&gt;&lt;/span&gt;&lt;/div&gt;&lt;div style=&quot;text-align: left ; font-size: 13px&quot;&gt;&lt;/div&gt;" lucidchartObjectId="b2fHpSifme5C" id="YH1fGvTt6RqdAR0_2gCc-68">
          <mxCell style="html=1;whiteSpace=wrap;;whiteSpace=wrap;spacing=3;verticalAlign=top;strokeColor=#5e5e5e;strokeOpacity=100;fillOpacity=100;rounded=1;absoluteArcSize=1;arcSize=7.199999999999999;fillColor=#e5e5e5;strokeWidth=2;fontSize=13;" parent="YH1fGvTt6RqdAR0_2gCc-67" vertex="1" zOrder="87">
            <mxGeometry y="75" width="250" height="115" as="geometry" />
          </mxCell>
        </UserObject>
        <UserObject label="&lt;div style=&quot;text-align: left ; font-size: 13px&quot;&gt;&lt;span style=&quot;font-size: 13px ; color: rgb(201 , 45 , 57) ; font-weight: bold&quot;&gt;Payload&lt;/span&gt;&lt;span style=&quot;font-size: 13px ; color: rgb(0 , 0 , 0)&quot;&gt;&lt;br style=&quot;font-size: 13px&quot;&gt;&lt;/span&gt;&lt;/div&gt;&lt;div&gt;&lt;div style=&quot;text-align: left&quot;&gt;&lt;div&gt;•&lt;span&gt; &lt;/span&gt;grant_type: refresh_token&lt;/div&gt;&lt;div&gt;•&lt;span&gt; &lt;/span&gt;client_id: e24fe3a5-43db-4c83-99ea-e0723e9a9c93&lt;/div&gt;&lt;div&gt;•&lt;span&gt; &lt;/span&gt;client_secret: 0d7f208d-0a5b-4225-984d-fd4313360e6b&lt;/div&gt;&lt;div&gt;•&lt;span&gt; &lt;/span&gt;refresh_token: {refresh_token}&lt;/div&gt;&lt;/div&gt;&lt;div style=&quot;font-size: 13px&quot;&gt;&lt;br&gt;&lt;/div&gt;&lt;/div&gt;&lt;div style=&quot;text-align: left ; font-size: 13px&quot;&gt;&lt;/div&gt;" lucidchartObjectId="b2fHGq9EwkId" id="YH1fGvTt6RqdAR0_2gCc-69">
          <mxCell style="html=1;whiteSpace=wrap;;whiteSpace=wrap;spacing=3;verticalAlign=top;strokeColor=#5e5e5e;strokeOpacity=100;fillOpacity=100;rounded=1;absoluteArcSize=1;arcSize=7.199999999999999;fillColor=#e5e5e5;strokeWidth=2;fontSize=13;" parent="YH1fGvTt6RqdAR0_2gCc-67" vertex="1" zOrder="88">
            <mxGeometry y="190" width="250" height="120" as="geometry" />
          </mxCell>
        </UserObject>
        <UserObject label="&lt;div style=&quot;text-align: left ; font-size: 13px&quot;&gt;&lt;span style=&quot;font-size: 13px ; color: rgb(201 , 45 , 57) ; font-weight: bold&quot;&gt;URL&lt;/span&gt;&lt;span style=&quot;font-size: 13px ; color: rgb(0 , 0 , 0)&quot;&gt;:&amp;nbsp;&lt;/span&gt;&lt;/div&gt;&lt;span lang=&quot;EN-US&quot; style=&quot;font-size: 10.0pt ; line-height: 107% ; font-family: &amp;#34;leelawadee ui&amp;#34; , sans-serif&quot;&gt;https://iamdr.montepiedad.com.mx:4444/&lt;br&gt;&lt;div style=&quot;text-align: left&quot;&gt;&lt;span style=&quot;font-size: 10pt&quot;&gt;NMP/oauth/token&lt;/span&gt;&lt;/div&gt;&lt;/span&gt;" lucidchartObjectId="b2fHP6a50O9K" id="YH1fGvTt6RqdAR0_2gCc-70">
          <mxCell style="html=1;whiteSpace=wrap;;whiteSpace=wrap;spacing=3;verticalAlign=top;strokeColor=#5e5e5e;strokeOpacity=100;fillOpacity=100;rounded=1;absoluteArcSize=1;arcSize=7.199999999999999;fillColor=#e5e5e5;strokeWidth=2;fontSize=13;" parent="YH1fGvTt6RqdAR0_2gCc-67" vertex="1" zOrder="89">
            <mxGeometry width="249.99999999999997" height="75.00000000000001" as="geometry" />
          </mxCell>
        </UserObject>
        <mxCell id="YH1fGvTt6RqdAR0_2gCc-82" style="edgeStyle=orthogonalEdgeStyle;rounded=0;orthogonalLoop=1;jettySize=auto;html=1;exitX=1;exitY=0.5;exitDx=0;exitDy=0;entryX=0;entryY=0.5;entryDx=0;entryDy=0;" parent="1" source="YH1fGvTt6RqdAR0_2gCc-72" target="YH1fGvTt6RqdAR0_2gCc-81" edge="1">
          <mxGeometry relative="1" as="geometry" />
        </mxCell>
        <UserObject label="&lt;span lang=&quot;EN-US&quot; style=&quot;font-size: 11.0pt ; line-height: 107% ; font-family: &amp;#34;segoe ui semilight&amp;#34; , sans-serif&quot;&gt;auth/oauth/refresh&lt;/span&gt;" lucidchartObjectId="NafHmFh6Zc9_" id="YH1fGvTt6RqdAR0_2gCc-72">
          <mxCell style="html=1;whiteSpace=wrap;shape=hexagon;perimeter=hexagonPerimeter2;whiteSpace=wrap;fontSize=13;fontColor=#000000;spacing=3;strokeColor=#5e5e5e;strokeOpacity=100;rounded=1;absoluteArcSize=1;arcSize=7.199999999999999;strokeWidth=2;" parent="1" vertex="1" zOrder="83">
            <mxGeometry x="740" y="1877" width="133" height="96" as="geometry" />
          </mxCell>
        </UserObject>
        <mxCell id="YH1fGvTt6RqdAR0_2gCc-80" value="" style="group" parent="1" vertex="1" connectable="0">
          <mxGeometry x="1377.5" y="1730" width="902.5" height="390" as="geometry" />
        </mxCell>
        <UserObject label="&lt;div style=&quot;font-size: 13px&quot;&gt;&lt;div style=&quot;font-size: 13px&quot;&gt;&lt;div&gt;LOGGER(&lt;/div&gt;&lt;div&gt;&amp;nbsp; &amp;nbsp; &amp;nbsp; &amp;nbsp; &amp;nbsp; &amp;nbsp; &#39;INFO&#39;,&lt;/div&gt;&lt;div&gt;&amp;nbsp; &amp;nbsp; &amp;nbsp; &amp;nbsp; &amp;nbsp; &amp;nbsp; {&lt;/div&gt;&lt;div&gt;&amp;nbsp; &amp;nbsp; &amp;nbsp; &amp;nbsp; &amp;nbsp; &amp;nbsp; &amp;nbsp; pid: process.pid,&lt;/div&gt;&lt;div&gt;&amp;nbsp; &amp;nbsp; &amp;nbsp; &amp;nbsp; &amp;nbsp; &amp;nbsp; &amp;nbsp; hostname: process.env.BACKEND_SERVER,&lt;/div&gt;&lt;div&gt;&amp;nbsp; &amp;nbsp; &amp;nbsp; &amp;nbsp; &amp;nbsp; &amp;nbsp; &amp;nbsp; message: {&lt;/div&gt;&lt;div&gt;&amp;nbsp; &amp;nbsp; &amp;nbsp; &amp;nbsp; &amp;nbsp; &amp;nbsp; &amp;nbsp; &amp;nbsp; ipRemota: publicIp(&lt;/div&gt;&lt;div&gt;&amp;nbsp; &amp;nbsp; &amp;nbsp; &amp;nbsp; &amp;nbsp; &amp;nbsp; &amp;nbsp; &amp;nbsp; &amp;nbsp; req.header(&#39;x-forwarded-for&#39;) || req.connection.remoteAddress&lt;/div&gt;&lt;div&gt;&amp;nbsp; &amp;nbsp; &amp;nbsp; &amp;nbsp; &amp;nbsp; &amp;nbsp; &amp;nbsp; &amp;nbsp; ),&lt;/div&gt;&lt;div&gt;&amp;nbsp; &amp;nbsp; &amp;nbsp; &amp;nbsp; &amp;nbsp; &amp;nbsp; &amp;nbsp; &amp;nbsp; accion: &#39;Token refresh&#39;,&lt;/div&gt;&lt;div&gt;&amp;nbsp; &amp;nbsp; &amp;nbsp; &amp;nbsp; &amp;nbsp; &amp;nbsp; &amp;nbsp; &amp;nbsp; estatus: &#39;Exitoso&#39;,&lt;/div&gt;&lt;div&gt;&amp;nbsp; &amp;nbsp; &amp;nbsp; &amp;nbsp; &amp;nbsp; &amp;nbsp; &amp;nbsp; &amp;nbsp; recurso: `${SERVICE_TOKEN_OAUTH.PROTOCOL}//&lt;/div&gt;&lt;div&gt;${SERVICE_TOKEN_OAUTH.HOST}/&lt;/div&gt;&lt;div&gt;${SERVICE_TOKEN_OAUTH.PATH}:&lt;/div&gt;&lt;div&gt;${SERVICE_TOKEN_OAUTH.PORT}`,&lt;/div&gt;&lt;div&gt;&amp;nbsp; &amp;nbsp; &amp;nbsp; &amp;nbsp; &amp;nbsp; &amp;nbsp; &amp;nbsp; &amp;nbsp; fase: &#39;Autenticar&#39;,&lt;/div&gt;&lt;div&gt;&amp;nbsp; &amp;nbsp; &amp;nbsp; &amp;nbsp; &amp;nbsp; &amp;nbsp; &amp;nbsp; &amp;nbsp; descripcion: responseJSON&lt;/div&gt;&lt;div&gt;&amp;nbsp; &amp;nbsp; &amp;nbsp; &amp;nbsp; &amp;nbsp; &amp;nbsp; &amp;nbsp; }&lt;/div&gt;&lt;div&gt;&amp;nbsp; &amp;nbsp; &amp;nbsp; &amp;nbsp; &amp;nbsp; &amp;nbsp; },&lt;/div&gt;&lt;div&gt;&amp;nbsp; &amp;nbsp; &amp;nbsp; &amp;nbsp; &amp;nbsp; &amp;nbsp; LOGGER_AUTH&lt;/div&gt;&lt;div&gt;&amp;nbsp; &amp;nbsp; &amp;nbsp; &amp;nbsp; &amp;nbsp; )&lt;/div&gt;&lt;/div&gt;&lt;/div&gt;" lucidchartObjectId="FheHkomjUrPZ" id="YH1fGvTt6RqdAR0_2gCc-76">
          <mxCell style="html=1;whiteSpace=wrap;shape=process;whiteSpace=wrap;spacing=3;verticalAlign=top;strokeColor=#5e5e5e;strokeOpacity=100;fillOpacity=100;rounded=1;absoluteArcSize=1;arcSize=7.199999999999999;fillColor=#c7e8ac;strokeWidth=2;align=left;fontSize=13;" parent="YH1fGvTt6RqdAR0_2gCc-80" vertex="1" zOrder="62">
            <mxGeometry y="10" width="400" height="370" as="geometry" />
          </mxCell>
        </UserObject>
        <UserObject label="&lt;div&gt;&lt;span&gt;Response:&amp;nbsp;&lt;/span&gt;&lt;/div&gt;&lt;font&gt;&lt;div&gt;{&lt;/div&gt;&lt;div&gt;&amp;nbsp; &amp;nbsp; &quot;access_token&quot;: &quot;Mp61dWKH7yEvf7V04K29HO1i3A81mpDCFExplBdiYYGj9uTvSI07lu&quot;,&lt;/div&gt;&lt;div&gt;&amp;nbsp; &amp;nbsp; &quot;token_type&quot;: &quot;Bearer&quot;,&lt;/div&gt;&lt;div&gt;&amp;nbsp; &amp;nbsp; &quot;expires_in&quot;: 3599,&lt;/div&gt;&lt;div&gt;&amp;nbsp; &amp;nbsp; &quot;refresh_token&quot;: &quot;HTsE6ZM8rMj02Bm4eK71Wq7cU9Vtvy8FHRMiIf3dEzT8zN91ABmVX6&quot;,&lt;/div&gt;&lt;div&gt;&amp;nbsp; &amp;nbsp; &quot;scope&quot;: &quot;/NMP/GestionClientes/Cliente/v2/numeroCredencial /NMP/GestionClientes/UsuariosMonte/v1/validarMedioContacto /NMP/OperacionPrendaria/Partidas/v1/Folio /NMP/OperacionPrendaria/Partidas/v1/Cliente /NMP/GestionClientes/UsuariosMonte/v1/solicitarAlta /NMP/GestionClientes/UsuariosMonte/v1/validarDatos /NMP/GestionClientes/UsuariosMonte/v1/actualizarDatos /NMP/OperacionPrendaria/OperacionesEnLinea/Transaccion.svc/v1 /NMP/GestionClientes/UsuariosMonte/v1/solicitarReinicioContrasena /NMP/OperacionPrendaria/EstadoCuenta/v1 /NMP/OperacionCreditos/Servicios/Acceso/MiMonte /NMP/GestionClientes/Cliente/v2/usuarioMonte /NMP/GestionClientes/Cliente/v2/idCliente /NMP/GestionClientes/UsuariosMonte/v1/registrarContrasena /NMP/GestionClientes/UsuariosMonte/v1/solicitarActivacion&quot;&lt;/div&gt;&lt;div&gt;}&lt;/div&gt;&lt;div style=&quot;font-size: 13px&quot;&gt;&lt;br&gt;&lt;/div&gt;&lt;/font&gt;" lucidchartObjectId="FheHwJTHAw6u" id="YH1fGvTt6RqdAR0_2gCc-78">
          <mxCell style="html=1;whiteSpace=wrap;;whiteSpace=wrap;spacing=3;verticalAlign=top;strokeColor=#5e5e5e;strokeOpacity=100;rounded=1;absoluteArcSize=1;arcSize=7.199999999999999;strokeWidth=2;fontSize=13;align=left;" parent="YH1fGvTt6RqdAR0_2gCc-80" vertex="1" zOrder="69">
            <mxGeometry x="462.5" width="440" height="390" as="geometry" />
          </mxCell>
        </UserObject>
        <mxCell id="YH1fGvTt6RqdAR0_2gCc-79" style="edgeStyle=orthogonalEdgeStyle;rounded=0;orthogonalLoop=1;jettySize=auto;html=1;exitX=1;exitY=0.5;exitDx=0;exitDy=0;entryX=0;entryY=0.5;entryDx=0;entryDy=0;" parent="YH1fGvTt6RqdAR0_2gCc-80" source="YH1fGvTt6RqdAR0_2gCc-76" target="YH1fGvTt6RqdAR0_2gCc-78" edge="1">
          <mxGeometry relative="1" as="geometry" />
        </mxCell>
        <mxCell id="YH1fGvTt6RqdAR0_2gCc-84" value="No" style="edgeStyle=orthogonalEdgeStyle;rounded=0;orthogonalLoop=1;jettySize=auto;html=1;entryX=0.5;entryY=0;entryDx=0;entryDy=0;" parent="1" source="YH1fGvTt6RqdAR0_2gCc-81" target="YH1fGvTt6RqdAR0_2gCc-85" edge="1">
          <mxGeometry relative="1" as="geometry">
            <mxPoint x="1057.5" y="2070" as="targetPoint" />
          </mxGeometry>
        </mxCell>
        <mxCell id="YH1fGvTt6RqdAR0_2gCc-92" style="edgeStyle=orthogonalEdgeStyle;rounded=0;orthogonalLoop=1;jettySize=auto;html=1;exitX=1;exitY=0.5;exitDx=0;exitDy=0;entryX=0;entryY=0.5;entryDx=0;entryDy=0;" parent="1" source="YH1fGvTt6RqdAR0_2gCc-81" target="YH1fGvTt6RqdAR0_2gCc-76" edge="1">
          <mxGeometry relative="1" as="geometry" />
        </mxCell>
        <mxCell id="YH1fGvTt6RqdAR0_2gCc-81" value="Respuesta Exitosa" style="rhombus;whiteSpace=wrap;html=1;" parent="1" vertex="1">
          <mxGeometry x="990" y="1865" width="135" height="120" as="geometry" />
        </mxCell>
        <mxCell id="YH1fGvTt6RqdAR0_2gCc-89" value="Si" style="edgeStyle=orthogonalEdgeStyle;rounded=0;orthogonalLoop=1;jettySize=auto;html=1;exitX=0;exitY=0.5;exitDx=0;exitDy=0;entryX=0.5;entryY=0;entryDx=0;entryDy=0;" parent="1" source="YH1fGvTt6RqdAR0_2gCc-85" target="YH1fGvTt6RqdAR0_2gCc-86" edge="1">
          <mxGeometry relative="1" as="geometry" />
        </mxCell>
        <mxCell id="YH1fGvTt6RqdAR0_2gCc-90" style="edgeStyle=orthogonalEdgeStyle;rounded=0;orthogonalLoop=1;jettySize=auto;html=1;exitX=1;exitY=0.5;exitDx=0;exitDy=0;" parent="1" source="YH1fGvTt6RqdAR0_2gCc-85" target="YH1fGvTt6RqdAR0_2gCc-87" edge="1">
          <mxGeometry relative="1" as="geometry" />
        </mxCell>
        <mxCell id="YH1fGvTt6RqdAR0_2gCc-91" value="No" style="edgeLabel;html=1;align=center;verticalAlign=middle;resizable=0;points=[];" parent="YH1fGvTt6RqdAR0_2gCc-90" vertex="1" connectable="0">
          <mxGeometry x="-0.0516" y="-5" relative="1" as="geometry">
            <mxPoint x="-21" y="-5" as="offset" />
          </mxGeometry>
        </mxCell>
        <mxCell id="YH1fGvTt6RqdAR0_2gCc-85" value="Es HTML" style="rhombus;whiteSpace=wrap;html=1;" parent="1" vertex="1">
          <mxGeometry x="990" y="2020" width="135" height="120" as="geometry" />
        </mxCell>
        <UserObject label="&lt;div style=&quot;font-size: 13px&quot;&gt;&lt;div style=&quot;font-size: 13px&quot;&gt;&lt;div&gt;LOGGER(&lt;/div&gt;&lt;div&gt;&amp;nbsp; &amp;nbsp; &amp;nbsp; &amp;nbsp; &amp;nbsp; &amp;nbsp; &amp;nbsp; &#39;ERROR&#39;,&lt;/div&gt;&lt;div&gt;&amp;nbsp; &amp;nbsp; &amp;nbsp; &amp;nbsp; &amp;nbsp; &amp;nbsp; &amp;nbsp; {&lt;/div&gt;&lt;div&gt;&amp;nbsp; &amp;nbsp; &amp;nbsp; &amp;nbsp; &amp;nbsp; &amp;nbsp; &amp;nbsp; &amp;nbsp; pid: process.pid,&lt;/div&gt;&lt;div&gt;&amp;nbsp; &amp;nbsp; &amp;nbsp; &amp;nbsp; &amp;nbsp; &amp;nbsp; &amp;nbsp; &amp;nbsp; hostname: process.env.BACKEND_SERVER,&lt;/div&gt;&lt;div&gt;&amp;nbsp; &amp;nbsp; &amp;nbsp; &amp;nbsp; &amp;nbsp; &amp;nbsp; &amp;nbsp; &amp;nbsp; message: {&lt;/div&gt;&lt;div&gt;&amp;nbsp; &amp;nbsp; &amp;nbsp; &amp;nbsp; &amp;nbsp; &amp;nbsp; &amp;nbsp; &amp;nbsp; &amp;nbsp; ipRemota: publicIp(&lt;/div&gt;&lt;div&gt;&amp;nbsp; &amp;nbsp; &amp;nbsp; &amp;nbsp; &amp;nbsp; &amp;nbsp; &amp;nbsp; &amp;nbsp; &amp;nbsp; &amp;nbsp; req.header(&#39;x-forwarded-for&#39;) ||&lt;/div&gt;&lt;div&gt;&amp;nbsp; &amp;nbsp; &amp;nbsp; &amp;nbsp; &amp;nbsp; &amp;nbsp; &amp;nbsp; &amp;nbsp; &amp;nbsp; &amp;nbsp; &amp;nbsp; req.connection.remoteAddress&lt;/div&gt;&lt;div&gt;&amp;nbsp; &amp;nbsp; &amp;nbsp; &amp;nbsp; &amp;nbsp; &amp;nbsp; &amp;nbsp; &amp;nbsp; &amp;nbsp; ),&lt;/div&gt;&lt;div&gt;&amp;nbsp; &amp;nbsp; &amp;nbsp; &amp;nbsp; &amp;nbsp; &amp;nbsp; &amp;nbsp; &amp;nbsp; &amp;nbsp; accion: &#39;Token refresh&#39;,&lt;/div&gt;&lt;div&gt;&amp;nbsp; &amp;nbsp; &amp;nbsp; &amp;nbsp; &amp;nbsp; &amp;nbsp; &amp;nbsp; &amp;nbsp; &amp;nbsp; estatus: `Error se recibó un HTML como respuesta ${err}`,&lt;/div&gt;&lt;div&gt;&amp;nbsp; &amp;nbsp; &amp;nbsp; &amp;nbsp; &amp;nbsp; &amp;nbsp; &amp;nbsp; &amp;nbsp; &amp;nbsp; recurso: `${SERVICE_TOKEN_OAUTH.PROTOCOL}//&lt;/div&gt;&lt;div&gt;${SERVICE_TOKEN_OAUTH.HOST}/&lt;/div&gt;&lt;div&gt;${SERVICE_TOKEN_OAUTH.PATH}:&lt;/div&gt;&lt;div&gt;${SERVICE_TOKEN_OAUTH.PORT}`,&lt;/div&gt;&lt;div&gt;&amp;nbsp; &amp;nbsp; &amp;nbsp; &amp;nbsp; &amp;nbsp; &amp;nbsp; &amp;nbsp; &amp;nbsp; &amp;nbsp; fase: &#39;Autenticar&#39;,&lt;/div&gt;&lt;div&gt;&amp;nbsp; &amp;nbsp; &amp;nbsp; &amp;nbsp; &amp;nbsp; &amp;nbsp; &amp;nbsp; &amp;nbsp; &amp;nbsp; descripcion: dataResponse&lt;/div&gt;&lt;div&gt;&amp;nbsp; &amp;nbsp; &amp;nbsp; &amp;nbsp; &amp;nbsp; &amp;nbsp; &amp;nbsp; &amp;nbsp; }&lt;/div&gt;&lt;div&gt;&amp;nbsp; &amp;nbsp; &amp;nbsp; &amp;nbsp; &amp;nbsp; &amp;nbsp; &amp;nbsp; },&lt;/div&gt;&lt;div&gt;&amp;nbsp; &amp;nbsp; &amp;nbsp; &amp;nbsp; &amp;nbsp; &amp;nbsp; &amp;nbsp; LOGGER_AUTH&lt;/div&gt;&lt;div&gt;&amp;nbsp; &amp;nbsp; &amp;nbsp; &amp;nbsp; &amp;nbsp; &amp;nbsp; )&lt;/div&gt;&lt;div&gt;&lt;br&gt;&lt;/div&gt;&lt;/div&gt;&lt;/div&gt;" lucidchartObjectId="FheHkomjUrPZ" id="YH1fGvTt6RqdAR0_2gCc-86">
          <mxCell style="html=1;whiteSpace=wrap;shape=process;whiteSpace=wrap;spacing=3;verticalAlign=top;strokeColor=#b85450;strokeOpacity=100;fillOpacity=100;rounded=1;absoluteArcSize=1;arcSize=7.199999999999999;strokeWidth=2;align=left;fontSize=13;size=0.1;fillColor=#FFBBB1;" parent="1" vertex="1" zOrder="62">
            <mxGeometry x="620" y="2170" width="400" height="380" as="geometry" />
          </mxCell>
        </UserObject>
        <UserObject label="&lt;div style=&quot;font-size: 13px&quot;&gt;&lt;div style=&quot;font-size: 13px&quot;&gt;&lt;div&gt;LOGGER(&lt;/div&gt;&lt;div&gt;&amp;nbsp; &amp;nbsp; &amp;nbsp; &amp;nbsp; &amp;nbsp; &amp;nbsp; &#39;ERROR&#39;,&lt;/div&gt;&lt;div&gt;&amp;nbsp; &amp;nbsp; &amp;nbsp; &amp;nbsp; &amp;nbsp; &amp;nbsp; {&lt;/div&gt;&lt;div&gt;&amp;nbsp; &amp;nbsp; &amp;nbsp; &amp;nbsp; &amp;nbsp; &amp;nbsp; &amp;nbsp; pid: process.pid,&lt;/div&gt;&lt;div&gt;&amp;nbsp; &amp;nbsp; &amp;nbsp; &amp;nbsp; &amp;nbsp; &amp;nbsp; &amp;nbsp; hostname: process.env.BACKEND_SERVER,&lt;/div&gt;&lt;div&gt;&amp;nbsp; &amp;nbsp; &amp;nbsp; &amp;nbsp; &amp;nbsp; &amp;nbsp; &amp;nbsp; message: {&lt;/div&gt;&lt;div&gt;&amp;nbsp; &amp;nbsp; &amp;nbsp; &amp;nbsp; &amp;nbsp; &amp;nbsp; &amp;nbsp; &amp;nbsp; ipRemota: publicIp(&lt;/div&gt;&lt;div&gt;&amp;nbsp; &amp;nbsp; &amp;nbsp; &amp;nbsp; &amp;nbsp; &amp;nbsp; &amp;nbsp; &amp;nbsp; &amp;nbsp; req.header(&#39;x-forwarded-for&#39;) || req.connection.remoteAddress&lt;/div&gt;&lt;div&gt;&amp;nbsp; &amp;nbsp; &amp;nbsp; &amp;nbsp; &amp;nbsp; &amp;nbsp; &amp;nbsp; &amp;nbsp; ),&lt;/div&gt;&lt;div&gt;&amp;nbsp; &amp;nbsp; &amp;nbsp; &amp;nbsp; &amp;nbsp; &amp;nbsp; &amp;nbsp; &amp;nbsp; accion: &#39;Token refresh&#39;,&lt;/div&gt;&lt;div&gt;&amp;nbsp; &amp;nbsp; &amp;nbsp; &amp;nbsp; &amp;nbsp; &amp;nbsp; &amp;nbsp; &amp;nbsp; estatus: &#39;Error&#39;,&lt;/div&gt;&lt;div&gt;&amp;nbsp; &amp;nbsp; &amp;nbsp; &amp;nbsp; &amp;nbsp; &amp;nbsp; &amp;nbsp; &amp;nbsp; recurso: `${SERVICE_TOKEN_OAUTH.PROTOCOL}//&lt;/div&gt;&lt;div&gt;${SERVICE_TOKEN_OAUTH.HOST}/&lt;/div&gt;&lt;div&gt;${SERVICE_TOKEN_OAUTH.PATH}:&lt;/div&gt;&lt;div&gt;${SERVICE_TOKEN_OAUTH.PORT}`,&lt;/div&gt;&lt;div&gt;&amp;nbsp; &amp;nbsp; &amp;nbsp; &amp;nbsp; &amp;nbsp; &amp;nbsp; &amp;nbsp; &amp;nbsp; fase: &#39;Autenticar&#39;,&lt;/div&gt;&lt;div&gt;&amp;nbsp; &amp;nbsp; &amp;nbsp; &amp;nbsp; &amp;nbsp; &amp;nbsp; &amp;nbsp; &amp;nbsp; descripcion: err&lt;/div&gt;&lt;div&gt;&amp;nbsp; &amp;nbsp; &amp;nbsp; &amp;nbsp; &amp;nbsp; &amp;nbsp; &amp;nbsp; }&lt;/div&gt;&lt;div&gt;&amp;nbsp; &amp;nbsp; &amp;nbsp; &amp;nbsp; &amp;nbsp; &amp;nbsp; },&lt;/div&gt;&lt;div&gt;&amp;nbsp; &amp;nbsp; &amp;nbsp; &amp;nbsp; &amp;nbsp; &amp;nbsp; LOGGER_AUTH&lt;/div&gt;&lt;div&gt;&amp;nbsp; &amp;nbsp; &amp;nbsp; &amp;nbsp; &amp;nbsp; )&lt;/div&gt;&lt;/div&gt;&lt;/div&gt;" lucidchartObjectId="FheHkomjUrPZ" id="YH1fGvTt6RqdAR0_2gCc-87">
          <mxCell style="html=1;whiteSpace=wrap;shape=process;whiteSpace=wrap;spacing=3;verticalAlign=top;strokeColor=#b85450;strokeOpacity=100;fillOpacity=100;rounded=1;absoluteArcSize=1;arcSize=7.199999999999999;strokeWidth=2;align=left;fontSize=13;size=0.1;fillColor=#FFBBB1;" parent="1" vertex="1" zOrder="62">
            <mxGeometry x="1100" y="2170" width="400" height="380" as="geometry" />
          </mxCell>
        </UserObject>
        <mxCell id="YH1fGvTt6RqdAR0_2gCc-94" style="edgeStyle=orthogonalEdgeStyle;rounded=0;orthogonalLoop=1;jettySize=auto;html=1;exitX=1;exitY=0.5;exitDx=0;exitDy=0;entryX=0;entryY=0.5;entryDx=0;entryDy=0;" parent="1" source="YH1fGvTt6RqdAR0_2gCc-95" target="YH1fGvTt6RqdAR0_2gCc-98" edge="1">
          <mxGeometry relative="1" as="geometry" />
        </mxCell>
        <mxCell id="YH1fGvTt6RqdAR0_2gCc-95" value="&lt;font style=&quot;font-size: 17px&quot;&gt;Logout&lt;/font&gt;" style="ellipse;whiteSpace=wrap;html=1;aspect=fixed;" parent="1" vertex="1">
          <mxGeometry x="40" y="3050" width="110" height="110" as="geometry" />
        </mxCell>
        <mxCell id="YH1fGvTt6RqdAR0_2gCc-97" style="edgeStyle=orthogonalEdgeStyle;rounded=0;orthogonalLoop=1;jettySize=auto;html=1;exitX=1;exitY=0.5;exitDx=0;exitDy=0;" parent="1" source="YH1fGvTt6RqdAR0_2gCc-98" target="YH1fGvTt6RqdAR0_2gCc-105" edge="1">
          <mxGeometry relative="1" as="geometry" />
        </mxCell>
        <mxCell id="YH1fGvTt6RqdAR0_2gCc-125" style="edgeStyle=orthogonalEdgeStyle;rounded=0;orthogonalLoop=1;jettySize=auto;html=1;exitX=0.5;exitY=1;exitDx=0;exitDy=0;entryX=0.5;entryY=0;entryDx=0;entryDy=0;" parent="1" source="YH1fGvTt6RqdAR0_2gCc-98" target="YH1fGvTt6RqdAR0_2gCc-99" edge="1">
          <mxGeometry relative="1" as="geometry" />
        </mxCell>
        <UserObject label="&lt;div style=&quot;text-align: center; font-size: 13px;&quot;&gt;&lt;span style=&quot;font-size: 13px; color: rgb(51, 51, 51);&quot;&gt;data &amp;amp;&amp;amp; keys(data).length === 0) ||&#xa;&lt;/span&gt;&lt;/div&gt;&lt;div style=&quot;text-align: center; font-size: 13px;&quot;&gt;&lt;span style=&quot;font-size: 13px; color: rgb(51, 51, 51);&quot;&gt;      (data &amp;amp;&amp;amp; data.idUser === undefined) ||&#xa;&lt;/span&gt;&lt;/div&gt;&lt;div style=&quot;text-align: center; font-size: 13px;&quot;&gt;&lt;span style=&quot;font-size: 13px; color: rgb(51, 51, 51);&quot;&gt;      (data &amp;amp;&amp;amp; data.access_token === &#39;&quot;)&#39;&lt;/span&gt;&lt;/div&gt;" lucidchartObjectId="FheH1cczlGUl" id="YH1fGvTt6RqdAR0_2gCc-98">
          <mxCell style="html=1;whiteSpace=wrap;rhombus;whiteSpace=wrap;spacing=3;strokeColor=#5e5e5e;strokeOpacity=100;rounded=1;absoluteArcSize=1;arcSize=7.199999999999999;strokeWidth=2;fontSize=13;" parent="1" vertex="1" zOrder="49">
            <mxGeometry x="280" y="3026" width="293.5" height="158" as="geometry" />
          </mxCell>
        </UserObject>
        <UserObject label="&lt;div style=&quot;font-size: 13px&quot;&gt;&lt;div style=&quot;font-size: 13px&quot;&gt;&lt;div&gt;LOGGER(&lt;/div&gt;&lt;div&gt;&amp;nbsp; &amp;nbsp; &amp;nbsp; &amp;nbsp; &#39;ERROR&#39;,&lt;/div&gt;&lt;div&gt;&amp;nbsp; &amp;nbsp; &amp;nbsp; &amp;nbsp; {&lt;/div&gt;&lt;div&gt;&amp;nbsp; &amp;nbsp; &amp;nbsp; &amp;nbsp; &amp;nbsp; pid: process.pid,&lt;/div&gt;&lt;div&gt;&amp;nbsp; &amp;nbsp; &amp;nbsp; &amp;nbsp; &amp;nbsp; hostname: process.env.BACKEND_SERVER,&lt;/div&gt;&lt;div&gt;&amp;nbsp; &amp;nbsp; &amp;nbsp; &amp;nbsp; &amp;nbsp; message: {&lt;/div&gt;&lt;div&gt;&amp;nbsp; &amp;nbsp; &amp;nbsp; &amp;nbsp; &amp;nbsp; &amp;nbsp; ipRemota: publicIp(&lt;/div&gt;&lt;div&gt;&amp;nbsp; &amp;nbsp; &amp;nbsp; &amp;nbsp; &amp;nbsp; &amp;nbsp; &amp;nbsp; req.header(&#39;x-forwarded-for&#39;) || req.connection.remoteAddress&lt;/div&gt;&lt;div&gt;&amp;nbsp; &amp;nbsp; &amp;nbsp; &amp;nbsp; &amp;nbsp; &amp;nbsp; ),&lt;/div&gt;&lt;div&gt;&amp;nbsp; &amp;nbsp; &amp;nbsp; &amp;nbsp; &amp;nbsp; &amp;nbsp; accion: &#39;Delete token&#39;,&lt;/div&gt;&lt;div&gt;&amp;nbsp; &amp;nbsp; &amp;nbsp; &amp;nbsp; &amp;nbsp; &amp;nbsp; estatus: &#39;Error&#39;,&lt;/div&gt;&lt;div&gt;&amp;nbsp; &amp;nbsp; &amp;nbsp; &amp;nbsp; &amp;nbsp; &amp;nbsp; recurso: `${SERVICE_TOKEN_OAUTH.PROTOCOL}//&lt;/div&gt;&lt;div&gt;${SERVICE_TOKEN_OAUTH.HOST}/&lt;/div&gt;&lt;div&gt;${SERVICE_TOKEN_OAUTH.PATH}:&lt;/div&gt;&lt;div&gt;${SERVICE_TOKEN_OAUTH.PORT}`,&lt;/div&gt;&lt;div&gt;&amp;nbsp; &amp;nbsp; &amp;nbsp; &amp;nbsp; &amp;nbsp; &amp;nbsp; fase: &#39;Autenticar&#39;,&lt;/div&gt;&lt;div&gt;&amp;nbsp; &amp;nbsp; &amp;nbsp; &amp;nbsp; &amp;nbsp; &amp;nbsp; descripcion: { error: &#39;ValidationError Need: refreshToken&#39; }&lt;/div&gt;&lt;div&gt;&amp;nbsp; &amp;nbsp; &amp;nbsp; &amp;nbsp; &amp;nbsp; }&lt;/div&gt;&lt;div&gt;&amp;nbsp; &amp;nbsp; &amp;nbsp; &amp;nbsp; },&lt;/div&gt;&lt;div&gt;&amp;nbsp; &amp;nbsp; &amp;nbsp; &amp;nbsp; LOGGER_AUTH&lt;/div&gt;&lt;div&gt;&amp;nbsp; &amp;nbsp; &amp;nbsp; )&lt;/div&gt;&lt;/div&gt;&lt;/div&gt;" lucidchartObjectId="FheHkomjUrPZ" id="YH1fGvTt6RqdAR0_2gCc-99">
          <mxCell style="html=1;whiteSpace=wrap;shape=process;whiteSpace=wrap;spacing=3;verticalAlign=top;strokeColor=#b85450;strokeOpacity=100;fillOpacity=100;rounded=1;absoluteArcSize=1;arcSize=7.199999999999999;strokeWidth=2;align=left;fontSize=13;size=0.1;fillColor=#FFBBB1;" parent="1" vertex="1" zOrder="62">
            <mxGeometry x="226.75" y="3250" width="400" height="380" as="geometry" />
          </mxCell>
        </UserObject>
        <mxCell id="YH1fGvTt6RqdAR0_2gCc-100" value="" style="group" parent="1" vertex="1" connectable="0">
          <mxGeometry x="701.5" y="2720" width="250" height="370" as="geometry" />
        </mxCell>
        <UserObject label="&lt;div style=&quot;text-align: left ; font-size: 13px&quot;&gt;&lt;span style=&quot;font-size: 13px ; color: rgb(201 , 45 , 57) ; font-weight: bold&quot;&gt;Header&lt;/span&gt;&lt;/div&gt;&lt;div style=&quot;text-align: left ; font-size: 13px&quot;&gt;&lt;div&gt;Accept: &#39;application/json&#39;,&lt;/div&gt;&lt;div&gt;&amp;nbsp;&#39;Content-Type&#39;: ‘application/x-www-form-urlencoded;charset=UTF-8’,&lt;/div&gt;&lt;div&gt;&amp;nbsp;idConsumidor: 25,&lt;/div&gt;&lt;div&gt;&amp;nbsp;idDestino: 14,&lt;/div&gt;&lt;div&gt;&lt;br&gt;&lt;/div&gt;&lt;div&gt;&lt;br&gt;&lt;/div&gt;&lt;/div&gt;&lt;div style=&quot;text-align: left ; font-size: 13px&quot;&gt;&lt;span style=&quot;font-size: 13px ; color: rgb(0 , 0 , 0)&quot;&gt;&lt;br&gt;&lt;/span&gt;&lt;/div&gt;&lt;div style=&quot;text-align: left ; font-size: 13px&quot;&gt;&lt;/div&gt;" lucidchartObjectId="b2fHpSifme5C" id="YH1fGvTt6RqdAR0_2gCc-101">
          <mxCell style="html=1;whiteSpace=wrap;;whiteSpace=wrap;spacing=3;verticalAlign=top;strokeColor=#5e5e5e;strokeOpacity=100;fillOpacity=100;rounded=1;absoluteArcSize=1;arcSize=7.199999999999999;fillColor=#e5e5e5;strokeWidth=2;fontSize=13;" parent="YH1fGvTt6RqdAR0_2gCc-100" vertex="1" zOrder="87">
            <mxGeometry y="75" width="250" height="115" as="geometry" />
          </mxCell>
        </UserObject>
        <UserObject label="&lt;div style=&quot;text-align: left ; font-size: 13px&quot;&gt;&lt;span style=&quot;font-size: 13px ; color: rgb(201 , 45 , 57) ; font-weight: bold&quot;&gt;Payload&lt;/span&gt;&lt;span style=&quot;font-size: 13px ; color: rgb(0 , 0 , 0)&quot;&gt;&lt;br style=&quot;font-size: 13px&quot;&gt;&lt;/span&gt;&lt;/div&gt;&lt;div&gt;&lt;div style=&quot;text-align: left&quot;&gt;&lt;div&gt;•&lt;span&gt; &lt;/span&gt;grant_type: revoke_token&lt;/div&gt;&lt;div&gt;•&lt;span&gt; &lt;/span&gt;client_id: e24fe3a5-43db-4c83-99ea-e0723e9a9c93&lt;/div&gt;&lt;div&gt;•&lt;span&gt; &lt;/span&gt;client_secret: 0d7f208d-0a5b-4225-984d-fd4313360e6b&lt;/div&gt;&lt;div&gt;•&lt;span&gt; &lt;/span&gt;token: {acces_token}&lt;/div&gt;&lt;/div&gt;&lt;div style=&quot;font-size: 13px&quot;&gt;&lt;br&gt;&lt;/div&gt;&lt;/div&gt;&lt;div style=&quot;text-align: left ; font-size: 13px&quot;&gt;&lt;/div&gt;" lucidchartObjectId="b2fHGq9EwkId" id="YH1fGvTt6RqdAR0_2gCc-102">
          <mxCell style="html=1;whiteSpace=wrap;;whiteSpace=wrap;spacing=3;verticalAlign=top;strokeColor=#5e5e5e;strokeOpacity=100;fillOpacity=100;rounded=1;absoluteArcSize=1;arcSize=7.199999999999999;fillColor=#e5e5e5;strokeWidth=2;fontSize=13;" parent="YH1fGvTt6RqdAR0_2gCc-100" vertex="1" zOrder="88">
            <mxGeometry y="190" width="250" height="120" as="geometry" />
          </mxCell>
        </UserObject>
        <UserObject label="&lt;div style=&quot;text-align: left ; font-size: 13px&quot;&gt;&lt;span style=&quot;font-size: 13px ; color: rgb(201 , 45 , 57) ; font-weight: bold&quot;&gt;URL&lt;/span&gt;&lt;span style=&quot;font-size: 13px ; color: rgb(0 , 0 , 0)&quot;&gt;:&amp;nbsp;&lt;/span&gt;&lt;/div&gt;&lt;span lang=&quot;EN-US&quot; style=&quot;font-size: 10.0pt ; line-height: 107% ; font-family: &amp;#34;leelawadee ui&amp;#34; , sans-serif&quot;&gt;https://iamdr.montepiedad.com.mx:4444/&lt;br&gt;&lt;div style=&quot;text-align: left&quot;&gt;&lt;span style=&quot;font-size: 10pt&quot;&gt;NMP/oauth/token&lt;/span&gt;&lt;/div&gt;&lt;/span&gt;" lucidchartObjectId="b2fHP6a50O9K" id="YH1fGvTt6RqdAR0_2gCc-103">
          <mxCell style="html=1;whiteSpace=wrap;;whiteSpace=wrap;spacing=3;verticalAlign=top;strokeColor=#5e5e5e;strokeOpacity=100;fillOpacity=100;rounded=1;absoluteArcSize=1;arcSize=7.199999999999999;fillColor=#e5e5e5;strokeWidth=2;fontSize=13;" parent="YH1fGvTt6RqdAR0_2gCc-100" vertex="1" zOrder="89">
            <mxGeometry width="249.99999999999997" height="75.00000000000001" as="geometry" />
          </mxCell>
        </UserObject>
        <mxCell id="YH1fGvTt6RqdAR0_2gCc-104" style="edgeStyle=orthogonalEdgeStyle;rounded=0;orthogonalLoop=1;jettySize=auto;html=1;exitX=1;exitY=0.5;exitDx=0;exitDy=0;entryX=0;entryY=0.5;entryDx=0;entryDy=0;" parent="1" source="YH1fGvTt6RqdAR0_2gCc-105" target="YH1fGvTt6RqdAR0_2gCc-126" edge="1">
          <mxGeometry relative="1" as="geometry">
            <mxPoint x="1010" y="3105" as="targetPoint" />
          </mxGeometry>
        </mxCell>
        <UserObject label="&lt;span lang=&quot;EN-US&quot; style=&quot;line-height: 107% ; font-family: &amp;#34;leelawadee ui&amp;#34; , sans-serif&quot;&gt;&lt;font style=&quot;font-size: 15px&quot;&gt;auth/oauth/logout&lt;/font&gt;&lt;/span&gt;" lucidchartObjectId="NafHmFh6Zc9_" id="YH1fGvTt6RqdAR0_2gCc-105">
          <mxCell style="html=1;whiteSpace=wrap;shape=hexagon;perimeter=hexagonPerimeter2;whiteSpace=wrap;fontSize=13;fontColor=#000000;spacing=3;strokeColor=#5e5e5e;strokeOpacity=100;rounded=1;absoluteArcSize=1;arcSize=7.199999999999999;strokeWidth=2;" parent="1" vertex="1" zOrder="83">
            <mxGeometry x="760" y="3057" width="133" height="96" as="geometry" />
          </mxCell>
        </UserObject>
        <mxCell id="YH1fGvTt6RqdAR0_2gCc-130" value="No" style="edgeStyle=orthogonalEdgeStyle;rounded=0;orthogonalLoop=1;jettySize=auto;html=1;" parent="1" source="YH1fGvTt6RqdAR0_2gCc-126" target="YH1fGvTt6RqdAR0_2gCc-128" edge="1">
          <mxGeometry relative="1" as="geometry" />
        </mxCell>
        <mxCell id="YH1fGvTt6RqdAR0_2gCc-131" style="edgeStyle=orthogonalEdgeStyle;rounded=0;orthogonalLoop=1;jettySize=auto;html=1;exitX=1;exitY=0.5;exitDx=0;exitDy=0;entryX=0;entryY=0.5;entryDx=0;entryDy=0;" parent="1" source="YH1fGvTt6RqdAR0_2gCc-126" target="YH1fGvTt6RqdAR0_2gCc-127" edge="1">
          <mxGeometry relative="1" as="geometry" />
        </mxCell>
        <mxCell id="YH1fGvTt6RqdAR0_2gCc-126" value="Petición Exitosa" style="rhombus;whiteSpace=wrap;html=1;" parent="1" vertex="1">
          <mxGeometry x="960" y="3050" width="112.5" height="110" as="geometry" />
        </mxCell>
        <mxCell id="YH1fGvTt6RqdAR0_2gCc-134" value="No" style="edgeStyle=orthogonalEdgeStyle;rounded=0;orthogonalLoop=1;jettySize=auto;html=1;exitX=0.5;exitY=1;exitDx=0;exitDy=0;entryX=0.5;entryY=0;entryDx=0;entryDy=0;" parent="1" source="YH1fGvTt6RqdAR0_2gCc-127" target="YH1fGvTt6RqdAR0_2gCc-132" edge="1">
          <mxGeometry relative="1" as="geometry" />
        </mxCell>
        <mxCell id="YH1fGvTt6RqdAR0_2gCc-135" style="edgeStyle=orthogonalEdgeStyle;rounded=0;orthogonalLoop=1;jettySize=auto;html=1;exitX=1;exitY=0.5;exitDx=0;exitDy=0;entryX=0;entryY=0.5;entryDx=0;entryDy=0;" parent="1" source="YH1fGvTt6RqdAR0_2gCc-127" target="YH1fGvTt6RqdAR0_2gCc-107" edge="1">
          <mxGeometry relative="1" as="geometry" />
        </mxCell>
        <mxCell id="YH1fGvTt6RqdAR0_2gCc-127" value="Respuesta Exitosa" style="rhombus;whiteSpace=wrap;html=1;" parent="1" vertex="1">
          <mxGeometry x="1372.5" y="3045" width="135" height="120" as="geometry" />
        </mxCell>
        <UserObject label="&lt;div&gt;&lt;div&gt;&lt;div&gt;LOGGER(&lt;/div&gt;&lt;div&gt;&amp;nbsp; &amp;nbsp; &amp;nbsp; &amp;nbsp; &amp;nbsp; &amp;nbsp; &#39;ERROR&#39;,&lt;/div&gt;&lt;div&gt;&amp;nbsp; &amp;nbsp; &amp;nbsp; &amp;nbsp; &amp;nbsp; &amp;nbsp; {&lt;/div&gt;&lt;div&gt;&amp;nbsp; &amp;nbsp; &amp;nbsp; &amp;nbsp; &amp;nbsp; &amp;nbsp; &amp;nbsp; pid: process.pid,&lt;/div&gt;&lt;div&gt;&amp;nbsp; &amp;nbsp; &amp;nbsp; &amp;nbsp; &amp;nbsp; &amp;nbsp; &amp;nbsp; hostname: process.env.BACKEND_SERVER,&lt;/div&gt;&lt;div&gt;&amp;nbsp; &amp;nbsp; &amp;nbsp; &amp;nbsp; &amp;nbsp; &amp;nbsp; &amp;nbsp; message: {&lt;/div&gt;&lt;div&gt;&amp;nbsp; &amp;nbsp; &amp;nbsp; &amp;nbsp; &amp;nbsp; &amp;nbsp; &amp;nbsp; &amp;nbsp; ipRemota: publicIp(&lt;/div&gt;&lt;div&gt;&amp;nbsp; &amp;nbsp; &amp;nbsp; &amp;nbsp; &amp;nbsp; &amp;nbsp; &amp;nbsp; &amp;nbsp; &amp;nbsp; req.header(&#39;x-forwarded-for&#39;) || req.connection.remoteAddress&lt;/div&gt;&lt;div&gt;&amp;nbsp; &amp;nbsp; &amp;nbsp; &amp;nbsp; &amp;nbsp; &amp;nbsp; &amp;nbsp; &amp;nbsp; ),&lt;/div&gt;&lt;div&gt;&amp;nbsp; &amp;nbsp; &amp;nbsp; &amp;nbsp; &amp;nbsp; &amp;nbsp; &amp;nbsp; &amp;nbsp; accion: &#39;Delete token&#39;,&lt;/div&gt;&lt;div&gt;&amp;nbsp; &amp;nbsp; &amp;nbsp; &amp;nbsp; &amp;nbsp; &amp;nbsp; &amp;nbsp; &amp;nbsp; estatus: &#39;Error&#39;,&lt;/div&gt;&lt;div&gt;&amp;nbsp; &amp;nbsp; &amp;nbsp; &amp;nbsp; &amp;nbsp; &amp;nbsp; &amp;nbsp; &amp;nbsp; recurso: `${SERVICE_TOKEN_OAUTH.PROTOCOL}//&lt;/div&gt;&lt;div&gt;${SERVICE_TOKEN_OAUTH.HOST}/&lt;/div&gt;&lt;div&gt;${SERVICE_TOKEN_OAUTH.PATH}:&lt;/div&gt;&lt;div&gt;${SERVICE_TOKEN_OAUTH.PORT}`,&lt;/div&gt;&lt;div&gt;&amp;nbsp; &amp;nbsp; &amp;nbsp; &amp;nbsp; &amp;nbsp; &amp;nbsp; &amp;nbsp; &amp;nbsp; fase: &#39;Autenticar&#39;,&lt;/div&gt;&lt;div&gt;&amp;nbsp; &amp;nbsp; &amp;nbsp; &amp;nbsp; &amp;nbsp; &amp;nbsp; &amp;nbsp; &amp;nbsp; descripcion: err&lt;/div&gt;&lt;div&gt;&amp;nbsp; &amp;nbsp; &amp;nbsp; &amp;nbsp; &amp;nbsp; &amp;nbsp; &amp;nbsp; }&lt;/div&gt;&lt;div&gt;&amp;nbsp; &amp;nbsp; &amp;nbsp; &amp;nbsp; &amp;nbsp; &amp;nbsp; },&lt;/div&gt;&lt;div&gt;&amp;nbsp; &amp;nbsp; &amp;nbsp; &amp;nbsp; &amp;nbsp; &amp;nbsp; LOGGER_AUTH&lt;/div&gt;&lt;div&gt;&amp;nbsp; &amp;nbsp; &amp;nbsp; &amp;nbsp; &amp;nbsp; )&lt;/div&gt;&lt;/div&gt;&lt;/div&gt;" lucidchartObjectId="FheHkomjUrPZ" id="YH1fGvTt6RqdAR0_2gCc-128">
          <mxCell style="html=1;whiteSpace=wrap;shape=process;whiteSpace=wrap;spacing=3;verticalAlign=top;strokeColor=#b85450;strokeOpacity=100;fillOpacity=100;rounded=1;absoluteArcSize=1;arcSize=7.199999999999999;strokeWidth=2;align=left;fontSize=13;size=0.1;fillColor=#FFBBB1;" parent="1" vertex="1" zOrder="62">
            <mxGeometry x="816.25" y="3250" width="400" height="380" as="geometry" />
          </mxCell>
        </UserObject>
        <UserObject label="&lt;div&gt;LOGGER(&lt;/div&gt;&lt;div&gt;&amp;nbsp; &amp;nbsp; &amp;nbsp; &amp;nbsp; &amp;nbsp; &amp;nbsp; &amp;nbsp; &#39;ERROR&#39;,&lt;/div&gt;&lt;div&gt;&amp;nbsp; &amp;nbsp; &amp;nbsp; &amp;nbsp; &amp;nbsp; &amp;nbsp; &amp;nbsp; {&lt;/div&gt;&lt;div&gt;&amp;nbsp; &amp;nbsp; &amp;nbsp; &amp;nbsp; &amp;nbsp; &amp;nbsp; &amp;nbsp; &amp;nbsp; pid: process.pid,&lt;/div&gt;&lt;div&gt;&amp;nbsp; &amp;nbsp; &amp;nbsp; &amp;nbsp; &amp;nbsp; &amp;nbsp; &amp;nbsp; &amp;nbsp; hostname: process.env.BACKEND_SERVER,&lt;/div&gt;&lt;div&gt;&amp;nbsp; &amp;nbsp; &amp;nbsp; &amp;nbsp; &amp;nbsp; &amp;nbsp; &amp;nbsp; &amp;nbsp; message: {&lt;/div&gt;&lt;div&gt;&amp;nbsp; &amp;nbsp; &amp;nbsp; &amp;nbsp; &amp;nbsp; &amp;nbsp; &amp;nbsp; &amp;nbsp; &amp;nbsp; ipRemota: publicIp(&lt;/div&gt;&lt;div&gt;&amp;nbsp; &amp;nbsp; &amp;nbsp; &amp;nbsp; &amp;nbsp; &amp;nbsp; &amp;nbsp; &amp;nbsp; &amp;nbsp; &amp;nbsp; req.header(&#39;x-forwarded-for&#39;) ||&lt;/div&gt;&lt;div&gt;&amp;nbsp; &amp;nbsp; &amp;nbsp; &amp;nbsp; &amp;nbsp; &amp;nbsp; &amp;nbsp; &amp;nbsp; &amp;nbsp; &amp;nbsp; &amp;nbsp; req.connection.remoteAddress&lt;/div&gt;&lt;div&gt;&amp;nbsp; &amp;nbsp; &amp;nbsp; &amp;nbsp; &amp;nbsp; &amp;nbsp; &amp;nbsp; &amp;nbsp; &amp;nbsp; ),&lt;/div&gt;&lt;div&gt;&amp;nbsp; &amp;nbsp; &amp;nbsp; &amp;nbsp; &amp;nbsp; &amp;nbsp; &amp;nbsp; &amp;nbsp; &amp;nbsp; accion: &#39;Delete token&#39;,&lt;/div&gt;&lt;div&gt;&amp;nbsp; &amp;nbsp; &amp;nbsp; &amp;nbsp; &amp;nbsp; &amp;nbsp; &amp;nbsp; &amp;nbsp; &amp;nbsp; estatus: &#39;Error&#39;,&lt;/div&gt;&lt;div&gt;&amp;nbsp; &amp;nbsp; &amp;nbsp; &amp;nbsp; &amp;nbsp; &amp;nbsp; &amp;nbsp; &amp;nbsp; &amp;nbsp; recurso: `${SERVICE_TOKEN_OAUTH.PROTOCOL}//&lt;/div&gt;&lt;div&gt;${SERVICE_TOKEN_OAUTH.HOST}/&lt;/div&gt;&lt;div&gt;${SERVICE_TOKEN_OAUTH.PATH}:&lt;/div&gt;&lt;div&gt;${SERVICE_TOKEN_OAUTH.PORT}`,&lt;/div&gt;&lt;div&gt;&amp;nbsp; &amp;nbsp; &amp;nbsp; &amp;nbsp; &amp;nbsp; &amp;nbsp; &amp;nbsp; &amp;nbsp; &amp;nbsp; fase: &#39;Autenticar&#39;,&lt;/div&gt;&lt;div&gt;&amp;nbsp; &amp;nbsp; &amp;nbsp; &amp;nbsp; &amp;nbsp; &amp;nbsp; &amp;nbsp; &amp;nbsp; &amp;nbsp; descripcion: JSON.parse(responseJSON)&lt;/div&gt;&lt;div&gt;&amp;nbsp; &amp;nbsp; &amp;nbsp; &amp;nbsp; &amp;nbsp; &amp;nbsp; &amp;nbsp; &amp;nbsp; }&lt;/div&gt;&lt;div&gt;&amp;nbsp; &amp;nbsp; &amp;nbsp; &amp;nbsp; &amp;nbsp; &amp;nbsp; &amp;nbsp; },&lt;/div&gt;&lt;div&gt;&amp;nbsp; &amp;nbsp; &amp;nbsp; &amp;nbsp; &amp;nbsp; &amp;nbsp; &amp;nbsp; LOGGER_AUTH&lt;/div&gt;&lt;div&gt;&amp;nbsp; &amp;nbsp; &amp;nbsp; &amp;nbsp; &amp;nbsp; &amp;nbsp; )&lt;/div&gt;" lucidchartObjectId="FheHkomjUrPZ" id="YH1fGvTt6RqdAR0_2gCc-132">
          <mxCell style="html=1;whiteSpace=wrap;shape=process;whiteSpace=wrap;spacing=3;verticalAlign=top;strokeColor=#b85450;strokeOpacity=100;fillOpacity=100;rounded=1;absoluteArcSize=1;arcSize=7.199999999999999;strokeWidth=2;align=left;fontSize=13;size=0.1;fillColor=#FFBBB1;" parent="1" vertex="1" zOrder="62">
            <mxGeometry x="1240" y="3250" width="400" height="380" as="geometry" />
          </mxCell>
        </UserObject>
        <UserObject label="&lt;div style=&quot;font-size: 13px&quot;&gt;&lt;div style=&quot;font-size: 13px&quot;&gt;&lt;div&gt;LOGGER(&lt;/div&gt;&lt;div&gt;&amp;nbsp; &amp;nbsp; &amp;nbsp; &amp;nbsp; &amp;nbsp; &amp;nbsp; &amp;nbsp; &#39;INFO&#39;,&lt;/div&gt;&lt;div&gt;&amp;nbsp; &amp;nbsp; &amp;nbsp; &amp;nbsp; &amp;nbsp; &amp;nbsp; &amp;nbsp; {&lt;/div&gt;&lt;div&gt;&amp;nbsp; &amp;nbsp; &amp;nbsp; &amp;nbsp; &amp;nbsp; &amp;nbsp; &amp;nbsp; &amp;nbsp; pid: process.pid,&lt;/div&gt;&lt;div&gt;&amp;nbsp; &amp;nbsp; &amp;nbsp; &amp;nbsp; &amp;nbsp; &amp;nbsp; &amp;nbsp; &amp;nbsp; hostname: process.env.BACKEND_SERVER,&lt;/div&gt;&lt;div&gt;&amp;nbsp; &amp;nbsp; &amp;nbsp; &amp;nbsp; &amp;nbsp; &amp;nbsp; &amp;nbsp; &amp;nbsp; message: {&lt;/div&gt;&lt;div&gt;&amp;nbsp; &amp;nbsp; &amp;nbsp; &amp;nbsp; &amp;nbsp; &amp;nbsp; &amp;nbsp; &amp;nbsp; &amp;nbsp; ipRemota: publicIp(&lt;/div&gt;&lt;div&gt;&amp;nbsp; &amp;nbsp; &amp;nbsp; &amp;nbsp; &amp;nbsp; &amp;nbsp; &amp;nbsp; &amp;nbsp; &amp;nbsp; &amp;nbsp; req.header(&#39;x-forwarded-for&#39;) ||&lt;/div&gt;&lt;div&gt;&amp;nbsp; &amp;nbsp; &amp;nbsp; &amp;nbsp; &amp;nbsp; &amp;nbsp; &amp;nbsp; &amp;nbsp; &amp;nbsp; &amp;nbsp; &amp;nbsp; req.connection.remoteAddress&lt;/div&gt;&lt;div&gt;&amp;nbsp; &amp;nbsp; &amp;nbsp; &amp;nbsp; &amp;nbsp; &amp;nbsp; &amp;nbsp; &amp;nbsp; &amp;nbsp; ),&lt;/div&gt;&lt;div&gt;&amp;nbsp; &amp;nbsp; &amp;nbsp; &amp;nbsp; &amp;nbsp; &amp;nbsp; &amp;nbsp; &amp;nbsp; &amp;nbsp; accion: &#39;Delete token&#39;,&lt;/div&gt;&lt;div&gt;&amp;nbsp; &amp;nbsp; &amp;nbsp; &amp;nbsp; &amp;nbsp; &amp;nbsp; &amp;nbsp; &amp;nbsp; &amp;nbsp; estatus: &#39;Exitoso&#39;,&lt;/div&gt;&lt;div&gt;&amp;nbsp; &amp;nbsp; &amp;nbsp; &amp;nbsp; &amp;nbsp; &amp;nbsp; &amp;nbsp; &amp;nbsp; &amp;nbsp; recurso: `${SERVICE_TOKEN_OAUTH.PROTOCOL}//&lt;/div&gt;&lt;div&gt;${SERVICE_TOKEN_OAUTH.HOST}/&lt;/div&gt;&lt;div&gt;${SERVICE_TOKEN_OAUTH.PATH}:&lt;/div&gt;&lt;div&gt;${SERVICE_TOKEN_OAUTH.PORT}`,&lt;/div&gt;&lt;div&gt;&amp;nbsp; &amp;nbsp; &amp;nbsp; &amp;nbsp; &amp;nbsp; &amp;nbsp; &amp;nbsp; &amp;nbsp; &amp;nbsp; fase: &#39;Autenticar&#39;,&lt;/div&gt;&lt;div&gt;&amp;nbsp; &amp;nbsp; &amp;nbsp; &amp;nbsp; &amp;nbsp; &amp;nbsp; &amp;nbsp; &amp;nbsp; &amp;nbsp; descripcion: responseJSON&lt;/div&gt;&lt;div&gt;&amp;nbsp; &amp;nbsp; &amp;nbsp; &amp;nbsp; &amp;nbsp; &amp;nbsp; &amp;nbsp; &amp;nbsp; }&lt;/div&gt;&lt;div&gt;&amp;nbsp; &amp;nbsp; &amp;nbsp; &amp;nbsp; &amp;nbsp; &amp;nbsp; &amp;nbsp; },&lt;/div&gt;&lt;div&gt;&amp;nbsp; &amp;nbsp; &amp;nbsp; &amp;nbsp; &amp;nbsp; &amp;nbsp; &amp;nbsp; LOGGER_AUTH&lt;/div&gt;&lt;div&gt;&amp;nbsp; &amp;nbsp; &amp;nbsp; &amp;nbsp; &amp;nbsp; &amp;nbsp; )&lt;/div&gt;&lt;/div&gt;&lt;/div&gt;" lucidchartObjectId="FheHkomjUrPZ" id="YH1fGvTt6RqdAR0_2gCc-107">
          <mxCell style="html=1;whiteSpace=wrap;shape=process;whiteSpace=wrap;spacing=3;verticalAlign=top;strokeColor=#5e5e5e;strokeOpacity=100;fillOpacity=100;rounded=1;absoluteArcSize=1;arcSize=7.199999999999999;fillColor=#c7e8ac;strokeWidth=2;align=left;fontSize=13;" parent="1" vertex="1" zOrder="62">
            <mxGeometry x="1690" y="2920" width="400" height="370" as="geometry" />
          </mxCell>
        </UserObject>
        <UserObject label="&lt;div&gt;&lt;span&gt;Response:&amp;nbsp;&lt;/span&gt;&lt;/div&gt;&lt;div&gt;&lt;span&gt;&lt;div&gt;{&lt;/div&gt;&lt;div&gt;&amp;nbsp; &amp;nbsp; &quot;message&quot;: &quot;The token has been removed&quot;&lt;/div&gt;&lt;div&gt;}&lt;/div&gt;&lt;div&gt;&lt;br&gt;&lt;/div&gt;&lt;/span&gt;&lt;/div&gt;&lt;font&gt;&lt;div style=&quot;font-size: 13px&quot;&gt;&lt;br&gt;&lt;/div&gt;&lt;/font&gt;" lucidchartObjectId="FheHwJTHAw6u" id="YH1fGvTt6RqdAR0_2gCc-108">
          <mxCell style="html=1;whiteSpace=wrap;;whiteSpace=wrap;spacing=3;verticalAlign=top;strokeColor=#5e5e5e;strokeOpacity=100;rounded=1;absoluteArcSize=1;arcSize=7.199999999999999;strokeWidth=2;fontSize=13;align=left;" parent="1" vertex="1" zOrder="69">
            <mxGeometry x="2147.5" y="3060" width="440" height="90" as="geometry" />
          </mxCell>
        </UserObject>
        <mxCell id="YH1fGvTt6RqdAR0_2gCc-109" style="edgeStyle=orthogonalEdgeStyle;rounded=0;orthogonalLoop=1;jettySize=auto;html=1;exitX=1;exitY=0.5;exitDx=0;exitDy=0;entryX=0;entryY=0.5;entryDx=0;entryDy=0;" parent="1" source="YH1fGvTt6RqdAR0_2gCc-107" target="YH1fGvTt6RqdAR0_2gCc-108" edge="1">
          <mxGeometry x="1690" y="2910" as="geometry" />
        </mxCell>
        <mxCell id="YH1fGvTt6RqdAR0_2gCc-136" style="edgeStyle=orthogonalEdgeStyle;rounded=0;orthogonalLoop=1;jettySize=auto;html=1;exitX=1;exitY=0.5;exitDx=0;exitDy=0;entryX=0;entryY=0.5;entryDx=0;entryDy=0;" parent="1" source="YH1fGvTt6RqdAR0_2gCc-137" target="YH1fGvTt6RqdAR0_2gCc-161" edge="1">
          <mxGeometry relative="1" as="geometry">
            <mxPoint x="370" y="4135" as="targetPoint" />
          </mxGeometry>
        </mxCell>
        <mxCell id="YH1fGvTt6RqdAR0_2gCc-137" value="&lt;font style=&quot;font-size: 17px&quot;&gt;Solicitar&lt;br&gt;Reinicio&lt;br&gt;Contraseña&lt;/font&gt;" style="ellipse;whiteSpace=wrap;html=1;aspect=fixed;" parent="1" vertex="1">
          <mxGeometry x="40" y="4080" width="110" height="110" as="geometry" />
        </mxCell>
        <mxCell id="YH1fGvTt6RqdAR0_2gCc-181" style="edgeStyle=orthogonalEdgeStyle;rounded=0;orthogonalLoop=1;jettySize=auto;html=1;exitX=1;exitY=0.5;exitDx=0;exitDy=0;entryX=0;entryY=0.5;entryDx=0;entryDy=0;" parent="1" source="YH1fGvTt6RqdAR0_2gCc-147" target="YH1fGvTt6RqdAR0_2gCc-180" edge="1">
          <mxGeometry relative="1" as="geometry" />
        </mxCell>
        <UserObject label="&lt;span lang=&quot;EN-US&quot; style=&quot;font-size: 16px ; line-height: 107% ; font-family: &amp;#34;leelawadee ui&amp;#34; , sans-serif&quot;&gt;auth/oauth/&lt;br&gt;solicitarReinicioContrasena&lt;/span&gt;" lucidchartObjectId="NafHmFh6Zc9_" id="YH1fGvTt6RqdAR0_2gCc-147">
          <mxCell style="html=1;whiteSpace=wrap;shape=hexagon;perimeter=hexagonPerimeter2;whiteSpace=wrap;fontSize=13;fontColor=#000000;spacing=3;strokeColor=#5e5e5e;strokeOpacity=100;rounded=1;absoluteArcSize=1;arcSize=7.199999999999999;strokeWidth=2;" parent="1" vertex="1" zOrder="83">
            <mxGeometry x="1750" y="4063.5" width="220" height="143" as="geometry" />
          </mxCell>
        </UserObject>
        <UserObject label="&lt;div&gt;&lt;div&gt;&lt;div&gt;LOGGER(&lt;/div&gt;&lt;div&gt;&amp;nbsp; &amp;nbsp; &amp;nbsp; &amp;nbsp; &amp;nbsp; &amp;nbsp; &amp;nbsp; &amp;nbsp; &#39;INFO&#39;,&lt;/div&gt;&lt;div&gt;&amp;nbsp; &amp;nbsp; &amp;nbsp; &amp;nbsp; &amp;nbsp; &amp;nbsp; &amp;nbsp; &amp;nbsp; {&lt;/div&gt;&lt;div&gt;&amp;nbsp; &amp;nbsp; &amp;nbsp; &amp;nbsp; &amp;nbsp; &amp;nbsp; &amp;nbsp; &amp;nbsp; &amp;nbsp; pid: process.pid,&lt;/div&gt;&lt;div&gt;&amp;nbsp; &amp;nbsp; &amp;nbsp; &amp;nbsp; &amp;nbsp; &amp;nbsp; &amp;nbsp; &amp;nbsp; &amp;nbsp; hostname: process.env.BACKEND_SERVER,&lt;/div&gt;&lt;div&gt;&amp;nbsp; &amp;nbsp; &amp;nbsp; &amp;nbsp; &amp;nbsp; &amp;nbsp; &amp;nbsp; &amp;nbsp; &amp;nbsp; message: {&lt;/div&gt;&lt;div&gt;&amp;nbsp; &amp;nbsp; &amp;nbsp; &amp;nbsp; &amp;nbsp; &amp;nbsp; &amp;nbsp; &amp;nbsp; &amp;nbsp; &amp;nbsp; ipRemota: publicIp(&lt;/div&gt;&lt;div&gt;&amp;nbsp; &amp;nbsp; &amp;nbsp; &amp;nbsp; &amp;nbsp; &amp;nbsp; &amp;nbsp; &amp;nbsp; &amp;nbsp; &amp;nbsp; &amp;nbsp; req.header(&#39;x-forwarded-for&#39;) ||&lt;/div&gt;&lt;div&gt;&amp;nbsp; &amp;nbsp; &amp;nbsp; &amp;nbsp; &amp;nbsp; &amp;nbsp; &amp;nbsp; &amp;nbsp; &amp;nbsp; &amp;nbsp; &amp;nbsp; &amp;nbsp; req.connection.remoteAddress&lt;/div&gt;&lt;div&gt;&amp;nbsp; &amp;nbsp; &amp;nbsp; &amp;nbsp; &amp;nbsp; &amp;nbsp; &amp;nbsp; &amp;nbsp; &amp;nbsp; &amp;nbsp; ),&lt;/div&gt;&lt;div&gt;&amp;nbsp; &amp;nbsp; &amp;nbsp; &amp;nbsp; &amp;nbsp; &amp;nbsp; &amp;nbsp; &amp;nbsp; &amp;nbsp; &amp;nbsp; idCliente: &#39;&#39;,&lt;/div&gt;&lt;div&gt;&amp;nbsp; &amp;nbsp; &amp;nbsp; &amp;nbsp; &amp;nbsp; &amp;nbsp; &amp;nbsp; &amp;nbsp; &amp;nbsp; &amp;nbsp; nombreUsuario: data.idUser,&lt;/div&gt;&lt;div&gt;&amp;nbsp; &amp;nbsp; &amp;nbsp; &amp;nbsp; &amp;nbsp; &amp;nbsp; &amp;nbsp; &amp;nbsp; &amp;nbsp; &amp;nbsp; idSesion: responseJSON.access_token,&lt;/div&gt;&lt;div&gt;&amp;nbsp; &amp;nbsp; &amp;nbsp; &amp;nbsp; &amp;nbsp; &amp;nbsp; &amp;nbsp; &amp;nbsp; &amp;nbsp; &amp;nbsp; accion: &#39;Registro&#39;,&lt;/div&gt;&lt;div&gt;&amp;nbsp; &amp;nbsp; &amp;nbsp; &amp;nbsp; &amp;nbsp; &amp;nbsp; &amp;nbsp; &amp;nbsp; &amp;nbsp; &amp;nbsp; estatus: &#39;Exitoso&#39;,&lt;/div&gt;&lt;div&gt;&amp;nbsp; &amp;nbsp; &amp;nbsp; &amp;nbsp; &amp;nbsp; &amp;nbsp; &amp;nbsp; &amp;nbsp; &amp;nbsp; &amp;nbsp; recurso: `${SERVICE_TOKEN_OAUTH.PROTOCOL}//&lt;/div&gt;&lt;div&gt;${SERVICE_TOKEN_OAUTH.HOST}/&lt;/div&gt;&lt;div&gt;${SERVICE_TOKEN_OAUTH.PATH}:&lt;/div&gt;&lt;div&gt;${SERVICE_TOKEN_OAUTH.PORT}`,&lt;/div&gt;&lt;div&gt;&amp;nbsp; &amp;nbsp; &amp;nbsp; &amp;nbsp; &amp;nbsp; &amp;nbsp; &amp;nbsp; &amp;nbsp; &amp;nbsp; &amp;nbsp; fase: &#39;Solicitar Reinicio Contraseña&#39;,&lt;/div&gt;&lt;div&gt;&amp;nbsp; &amp;nbsp; &amp;nbsp; &amp;nbsp; &amp;nbsp; &amp;nbsp; &amp;nbsp; &amp;nbsp; &amp;nbsp; &amp;nbsp; descripcion: responseJSON&lt;/div&gt;&lt;div&gt;&amp;nbsp; &amp;nbsp; &amp;nbsp; &amp;nbsp; &amp;nbsp; &amp;nbsp; &amp;nbsp; &amp;nbsp; &amp;nbsp; }&lt;/div&gt;&lt;div&gt;&amp;nbsp; &amp;nbsp; &amp;nbsp; &amp;nbsp; &amp;nbsp; &amp;nbsp; &amp;nbsp; &amp;nbsp; },&lt;/div&gt;&lt;div&gt;&amp;nbsp; &amp;nbsp; &amp;nbsp; &amp;nbsp; &amp;nbsp; &amp;nbsp; &amp;nbsp; &amp;nbsp; LOGGER_AUTH&lt;/div&gt;&lt;div&gt;&amp;nbsp; &amp;nbsp; &amp;nbsp; &amp;nbsp; &amp;nbsp; &amp;nbsp; &amp;nbsp; )&lt;/div&gt;&lt;/div&gt;&lt;/div&gt;" lucidchartObjectId="FheHkomjUrPZ" id="YH1fGvTt6RqdAR0_2gCc-156">
          <mxCell style="html=1;whiteSpace=wrap;shape=process;whiteSpace=wrap;spacing=3;verticalAlign=top;strokeColor=#5e5e5e;strokeOpacity=100;fillOpacity=100;rounded=1;absoluteArcSize=1;arcSize=7.199999999999999;fillColor=#c7e8ac;strokeWidth=2;align=left;fontSize=13;" parent="1" vertex="1" zOrder="62">
            <mxGeometry x="2340" y="3920" width="400" height="430" as="geometry" />
          </mxCell>
        </UserObject>
        <UserObject label="&lt;div&gt;&lt;span&gt;Response:&amp;nbsp;&lt;/span&gt;&lt;/div&gt;&lt;div&gt;&lt;span&gt;&lt;div&gt;&lt;div&gt;{&lt;/div&gt;&lt;div&gt;&amp;nbsp; &amp;nbsp; &quot;telefono&quot;: {&lt;/div&gt;&lt;div&gt;&amp;nbsp; &amp;nbsp; &amp;nbsp; &amp;nbsp; &quot;ultimosDigitos&quot;: &quot;9232&quot;&lt;/div&gt;&lt;div&gt;&amp;nbsp; &amp;nbsp; },&lt;/div&gt;&lt;div&gt;&amp;nbsp; &amp;nbsp; &quot;respuesta&quot;: {&lt;/div&gt;&lt;div&gt;&amp;nbsp; &amp;nbsp; &amp;nbsp; &amp;nbsp; &quot;codigo&quot;: &quot;0&quot;,&lt;/div&gt;&lt;div&gt;&amp;nbsp; &amp;nbsp; &amp;nbsp; &amp;nbsp; &quot;mensaje&quot;: &quot;Reinicio de contrasena pendiente de validación&quot;&lt;/div&gt;&lt;div&gt;&amp;nbsp; &amp;nbsp; }&lt;/div&gt;&lt;/div&gt;&lt;div&gt;&lt;br&gt;&lt;/div&gt;&lt;/span&gt;&lt;/div&gt;&lt;font&gt;&lt;div style=&quot;font-size: 13px&quot;&gt;&lt;br&gt;&lt;/div&gt;&lt;/font&gt;" lucidchartObjectId="FheHwJTHAw6u" id="YH1fGvTt6RqdAR0_2gCc-157">
          <mxCell style="html=1;whiteSpace=wrap;;whiteSpace=wrap;spacing=3;verticalAlign=top;strokeColor=#5e5e5e;strokeOpacity=100;rounded=1;absoluteArcSize=1;arcSize=7.199999999999999;strokeWidth=2;fontSize=13;align=left;" parent="1" vertex="1" zOrder="69">
            <mxGeometry x="2780" y="4060" width="440" height="150" as="geometry" />
          </mxCell>
        </UserObject>
        <mxCell id="YH1fGvTt6RqdAR0_2gCc-158" style="edgeStyle=orthogonalEdgeStyle;rounded=0;orthogonalLoop=1;jettySize=auto;html=1;exitX=1;exitY=0.5;exitDx=0;exitDy=0;entryX=0;entryY=0.5;entryDx=0;entryDy=0;" parent="1" source="YH1fGvTt6RqdAR0_2gCc-156" target="YH1fGvTt6RqdAR0_2gCc-157" edge="1">
          <mxGeometry x="2340" y="3940" as="geometry" />
        </mxCell>
        <mxCell id="YH1fGvTt6RqdAR0_2gCc-164" style="edgeStyle=orthogonalEdgeStyle;rounded=0;orthogonalLoop=1;jettySize=auto;html=1;exitX=1;exitY=0.5;exitDx=0;exitDy=0;entryX=0;entryY=0.5;entryDx=0;entryDy=0;" parent="1" source="YH1fGvTt6RqdAR0_2gCc-161" target="YH1fGvTt6RqdAR0_2gCc-163" edge="1">
          <mxGeometry relative="1" as="geometry" />
        </mxCell>
        <mxCell id="YH1fGvTt6RqdAR0_2gCc-161" value="Obtener Token usuarioMonte" style="rounded=1;whiteSpace=wrap;html=1;" parent="1" vertex="1">
          <mxGeometry x="380" y="4105" width="120" height="60" as="geometry" />
        </mxCell>
        <mxCell id="YH1fGvTt6RqdAR0_2gCc-162" style="edgeStyle=orthogonalEdgeStyle;rounded=0;orthogonalLoop=1;jettySize=auto;html=1;exitX=0.5;exitY=1;exitDx=0;exitDy=0;" parent="1" source="YH1fGvTt6RqdAR0_2gCc-144" edge="1">
          <mxGeometry relative="1" as="geometry">
            <mxPoint x="440" y="4100" as="targetPoint" />
          </mxGeometry>
        </mxCell>
        <mxCell id="YH1fGvTt6RqdAR0_2gCc-166" value="No" style="edgeStyle=orthogonalEdgeStyle;rounded=0;orthogonalLoop=1;jettySize=auto;html=1;exitX=0.5;exitY=1;exitDx=0;exitDy=0;entryX=0.5;entryY=0;entryDx=0;entryDy=0;" parent="1" source="YH1fGvTt6RqdAR0_2gCc-163" target="YH1fGvTt6RqdAR0_2gCc-165" edge="1">
          <mxGeometry relative="1" as="geometry" />
        </mxCell>
        <mxCell id="YH1fGvTt6RqdAR0_2gCc-168" value="Si" style="edgeStyle=orthogonalEdgeStyle;rounded=0;orthogonalLoop=1;jettySize=auto;html=1;exitX=1;exitY=0.5;exitDx=0;exitDy=0;entryX=0;entryY=0.5;entryDx=0;entryDy=0;" parent="1" source="YH1fGvTt6RqdAR0_2gCc-163" target="YH1fGvTt6RqdAR0_2gCc-167" edge="1">
          <mxGeometry relative="1" as="geometry" />
        </mxCell>
        <mxCell id="YH1fGvTt6RqdAR0_2gCc-163" value="Petición Exitosa" style="rhombus;whiteSpace=wrap;html=1;" parent="1" vertex="1">
          <mxGeometry x="583.75" y="4080" width="112.5" height="110" as="geometry" />
        </mxCell>
        <UserObject label="&lt;div&gt;LOGGER(&lt;/div&gt;&lt;div&gt;&amp;nbsp; &amp;nbsp; &amp;nbsp; &amp;nbsp; &amp;nbsp; &#39;ERROR&#39;,&lt;/div&gt;&lt;div&gt;&amp;nbsp; &amp;nbsp; &amp;nbsp; &amp;nbsp; &amp;nbsp; {&lt;/div&gt;&lt;div&gt;&amp;nbsp; &amp;nbsp; &amp;nbsp; &amp;nbsp; &amp;nbsp; &amp;nbsp; pid: process.pid,&lt;/div&gt;&lt;div&gt;&amp;nbsp; &amp;nbsp; &amp;nbsp; &amp;nbsp; &amp;nbsp; &amp;nbsp; hostname: process.env.BACKEND_SERVER,&lt;/div&gt;&lt;div&gt;&amp;nbsp; &amp;nbsp; &amp;nbsp; &amp;nbsp; &amp;nbsp; &amp;nbsp; message: {&lt;/div&gt;&lt;div&gt;&amp;nbsp; &amp;nbsp; &amp;nbsp; &amp;nbsp; &amp;nbsp; &amp;nbsp; &amp;nbsp; ipRemota: publicIp(&lt;/div&gt;&lt;div&gt;&amp;nbsp; &amp;nbsp; &amp;nbsp; &amp;nbsp; &amp;nbsp; &amp;nbsp; &amp;nbsp; &amp;nbsp; req.header(&#39;x-forwarded-for&#39;) || req.connection.remoteAddress&lt;/div&gt;&lt;div&gt;&amp;nbsp; &amp;nbsp; &amp;nbsp; &amp;nbsp; &amp;nbsp; &amp;nbsp; &amp;nbsp; ),&lt;/div&gt;&lt;div&gt;&amp;nbsp; &amp;nbsp; &amp;nbsp; &amp;nbsp; &amp;nbsp; &amp;nbsp; &amp;nbsp; nombreUsuario: data.idUser,&lt;/div&gt;&lt;div&gt;&amp;nbsp; &amp;nbsp; &amp;nbsp; &amp;nbsp; &amp;nbsp; &amp;nbsp; &amp;nbsp; accion: &#39;Registro&#39;,&lt;/div&gt;&lt;div&gt;&amp;nbsp; &amp;nbsp; &amp;nbsp; &amp;nbsp; &amp;nbsp; &amp;nbsp; &amp;nbsp; estatus: &#39;Error&#39;,&lt;/div&gt;&lt;div&gt;&amp;nbsp; &amp;nbsp; &amp;nbsp; &amp;nbsp; &amp;nbsp; &amp;nbsp; &amp;nbsp; recurso: `${SERVICE_TOKEN_OAUTH.PROTOCOL}//&lt;/div&gt;&lt;div&gt;${SERVICE_TOKEN_OAUTH.HOST}/&lt;/div&gt;&lt;div&gt;${SERVICE_TOKEN_OAUTH.PATH}:&lt;/div&gt;&lt;div&gt;${SERVICE_TOKEN_OAUTH.PORT}`,&lt;/div&gt;&lt;div&gt;&amp;nbsp; &amp;nbsp; &amp;nbsp; &amp;nbsp; &amp;nbsp; &amp;nbsp; &amp;nbsp; fase: &#39;Solicitar Reinicio Contraseña OAuth&#39;,&lt;/div&gt;&lt;div&gt;&amp;nbsp; &amp;nbsp; &amp;nbsp; &amp;nbsp; &amp;nbsp; &amp;nbsp; &amp;nbsp; descripcion: err&lt;/div&gt;&lt;div&gt;&amp;nbsp; &amp;nbsp; &amp;nbsp; &amp;nbsp; &amp;nbsp; &amp;nbsp; }&lt;/div&gt;&lt;div&gt;&amp;nbsp; &amp;nbsp; &amp;nbsp; &amp;nbsp; &amp;nbsp; },&lt;/div&gt;&lt;div&gt;&amp;nbsp; &amp;nbsp; &amp;nbsp; &amp;nbsp; &amp;nbsp; LOGGER_AUTH&lt;/div&gt;&lt;div&gt;&amp;nbsp; &amp;nbsp; &amp;nbsp; &amp;nbsp; )&lt;/div&gt;" lucidchartObjectId="FheHkomjUrPZ" id="YH1fGvTt6RqdAR0_2gCc-165">
          <mxCell style="html=1;whiteSpace=wrap;shape=process;whiteSpace=wrap;spacing=3;verticalAlign=top;strokeColor=#b85450;strokeOpacity=100;fillOpacity=100;rounded=1;absoluteArcSize=1;arcSize=7.199999999999999;strokeWidth=2;align=left;fontSize=13;size=0.1;fillColor=#FFBBB1;" parent="1" vertex="1" zOrder="62">
            <mxGeometry x="440" y="4260" width="400" height="380" as="geometry" />
          </mxCell>
        </UserObject>
        <mxCell id="YH1fGvTt6RqdAR0_2gCc-171" value="No" style="edgeStyle=orthogonalEdgeStyle;rounded=0;orthogonalLoop=1;jettySize=auto;html=1;exitX=0.5;exitY=1;exitDx=0;exitDy=0;entryX=0.5;entryY=0;entryDx=0;entryDy=0;" parent="1" source="YH1fGvTt6RqdAR0_2gCc-167" target="YH1fGvTt6RqdAR0_2gCc-170" edge="1">
          <mxGeometry relative="1" as="geometry" />
        </mxCell>
        <mxCell id="YH1fGvTt6RqdAR0_2gCc-173" style="edgeStyle=orthogonalEdgeStyle;rounded=0;orthogonalLoop=1;jettySize=auto;html=1;exitX=1;exitY=0.5;exitDx=0;exitDy=0;entryX=0;entryY=0.5;entryDx=0;entryDy=0;" parent="1" source="YH1fGvTt6RqdAR0_2gCc-167" target="YH1fGvTt6RqdAR0_2gCc-172" edge="1">
          <mxGeometry relative="1" as="geometry" />
        </mxCell>
        <mxCell id="YH1fGvTt6RqdAR0_2gCc-167" value="Respuesta Exitosa" style="rhombus;whiteSpace=wrap;html=1;" parent="1" vertex="1">
          <mxGeometry x="980" y="4075" width="135" height="120" as="geometry" />
        </mxCell>
        <UserObject label="&lt;div&gt;LOGGER(&lt;/div&gt;&lt;div&gt;&amp;nbsp; &amp;nbsp; &amp;nbsp; &amp;nbsp; &amp;nbsp; &amp;nbsp; &#39;ERROR&#39;,&lt;/div&gt;&lt;div&gt;&amp;nbsp; &amp;nbsp; &amp;nbsp; &amp;nbsp; &amp;nbsp; &amp;nbsp; {&lt;/div&gt;&lt;div&gt;&amp;nbsp; &amp;nbsp; &amp;nbsp; &amp;nbsp; &amp;nbsp; &amp;nbsp; &amp;nbsp; pid: process.pid,&lt;/div&gt;&lt;div&gt;&amp;nbsp; &amp;nbsp; &amp;nbsp; &amp;nbsp; &amp;nbsp; &amp;nbsp; &amp;nbsp; hostname: process.env.BACKEND_SERVER,&lt;/div&gt;&lt;div&gt;&amp;nbsp; &amp;nbsp; &amp;nbsp; &amp;nbsp; &amp;nbsp; &amp;nbsp; &amp;nbsp; message: {&lt;/div&gt;&lt;div&gt;&amp;nbsp; &amp;nbsp; &amp;nbsp; &amp;nbsp; &amp;nbsp; &amp;nbsp; &amp;nbsp; &amp;nbsp; ipRemota: publicIp(&lt;/div&gt;&lt;div&gt;&amp;nbsp; &amp;nbsp; &amp;nbsp; &amp;nbsp; &amp;nbsp; &amp;nbsp; &amp;nbsp; &amp;nbsp; &amp;nbsp; req.header(&#39;x-forwarded-for&#39;) || req.connection.remoteAddress&lt;/div&gt;&lt;div&gt;&amp;nbsp; &amp;nbsp; &amp;nbsp; &amp;nbsp; &amp;nbsp; &amp;nbsp; &amp;nbsp; &amp;nbsp; ),&lt;/div&gt;&lt;div&gt;&amp;nbsp; &amp;nbsp; &amp;nbsp; &amp;nbsp; &amp;nbsp; &amp;nbsp; &amp;nbsp; &amp;nbsp; nombreUsuario: data.idUser,&lt;/div&gt;&lt;div&gt;&amp;nbsp; &amp;nbsp; &amp;nbsp; &amp;nbsp; &amp;nbsp; &amp;nbsp; &amp;nbsp; &amp;nbsp; accion: &#39;Registro&#39;,&lt;/div&gt;&lt;div&gt;&amp;nbsp; &amp;nbsp; &amp;nbsp; &amp;nbsp; &amp;nbsp; &amp;nbsp; &amp;nbsp; &amp;nbsp; estatus: &#39;Error&#39;,&lt;/div&gt;&lt;div&gt;&amp;nbsp; &amp;nbsp; &amp;nbsp; &amp;nbsp; &amp;nbsp; &amp;nbsp; &amp;nbsp; &amp;nbsp; recurso: `${SERVICE_TOKEN_OAUTH.PROTOCOL}//&lt;/div&gt;&lt;div&gt;${SERVICE_TOKEN_OAUTH.HOST}/&lt;/div&gt;&lt;div&gt;${SERVICE_TOKEN_OAUTH.PATH}:&lt;/div&gt;&lt;div&gt;${SERVICE_TOKEN_OAUTH.PORT}`,&lt;/div&gt;&lt;div&gt;&amp;nbsp; &amp;nbsp; &amp;nbsp; &amp;nbsp; &amp;nbsp; &amp;nbsp; &amp;nbsp; &amp;nbsp; fase: &#39;Solicitar Reinicio Contraseña OAuth&#39;,&lt;/div&gt;&lt;div&gt;&amp;nbsp; &amp;nbsp; &amp;nbsp; &amp;nbsp; &amp;nbsp; &amp;nbsp; &amp;nbsp; &amp;nbsp; descripcion: JSON.parse(responseJSON)&lt;/div&gt;&lt;div&gt;&amp;nbsp; &amp;nbsp; &amp;nbsp; &amp;nbsp; &amp;nbsp; &amp;nbsp; &amp;nbsp; }&lt;/div&gt;&lt;div&gt;&amp;nbsp; &amp;nbsp; &amp;nbsp; &amp;nbsp; &amp;nbsp; &amp;nbsp; },&lt;/div&gt;&lt;div&gt;&amp;nbsp; &amp;nbsp; &amp;nbsp; &amp;nbsp; &amp;nbsp; &amp;nbsp; LOGGER_AUTH&lt;/div&gt;&lt;div&gt;&amp;nbsp; &amp;nbsp; &amp;nbsp; &amp;nbsp; &amp;nbsp; )&lt;/div&gt;" lucidchartObjectId="FheHkomjUrPZ" id="YH1fGvTt6RqdAR0_2gCc-170">
          <mxCell style="html=1;whiteSpace=wrap;shape=process;whiteSpace=wrap;spacing=3;verticalAlign=top;strokeColor=#b85450;strokeOpacity=100;fillOpacity=100;rounded=1;absoluteArcSize=1;arcSize=7.199999999999999;strokeWidth=2;align=left;fontSize=13;size=0.1;fillColor=#FFBBB1;" parent="1" vertex="1" zOrder="62">
            <mxGeometry x="847.5" y="4260" width="400" height="380" as="geometry" />
          </mxCell>
        </UserObject>
        <mxCell id="YH1fGvTt6RqdAR0_2gCc-174" style="edgeStyle=orthogonalEdgeStyle;rounded=0;orthogonalLoop=1;jettySize=auto;html=1;exitX=1;exitY=0.5;exitDx=0;exitDy=0;" parent="1" source="YH1fGvTt6RqdAR0_2gCc-172" target="YH1fGvTt6RqdAR0_2gCc-147" edge="1">
          <mxGeometry relative="1" as="geometry" />
        </mxCell>
        <UserObject label="&lt;div style=&quot;font-size: 13px&quot;&gt;&lt;div style=&quot;font-size: 13px&quot;&gt;&lt;div&gt;LOGGER(&lt;/div&gt;&lt;div&gt;&amp;nbsp; &amp;nbsp; &amp;nbsp; &amp;nbsp; &amp;nbsp; &amp;nbsp; &#39;INFO&#39;,&lt;/div&gt;&lt;div&gt;&amp;nbsp; &amp;nbsp; &amp;nbsp; &amp;nbsp; &amp;nbsp; &amp;nbsp; {&lt;/div&gt;&lt;div&gt;&amp;nbsp; &amp;nbsp; &amp;nbsp; &amp;nbsp; &amp;nbsp; &amp;nbsp; &amp;nbsp; pid: process.pid,&lt;/div&gt;&lt;div&gt;&amp;nbsp; &amp;nbsp; &amp;nbsp; &amp;nbsp; &amp;nbsp; &amp;nbsp; &amp;nbsp; hostname: process.env.BACKEND_SERVER,&lt;/div&gt;&lt;div&gt;&amp;nbsp; &amp;nbsp; &amp;nbsp; &amp;nbsp; &amp;nbsp; &amp;nbsp; &amp;nbsp; message: {&lt;/div&gt;&lt;div&gt;&amp;nbsp; &amp;nbsp; &amp;nbsp; &amp;nbsp; &amp;nbsp; &amp;nbsp; &amp;nbsp; &amp;nbsp; ipRemota: publicIp(&lt;/div&gt;&lt;div&gt;&amp;nbsp; &amp;nbsp; &amp;nbsp; &amp;nbsp; &amp;nbsp; &amp;nbsp; &amp;nbsp; &amp;nbsp; &amp;nbsp; req.header(&#39;x-forwarded-for&#39;) || req.connection.remoteAddress&lt;/div&gt;&lt;div&gt;&amp;nbsp; &amp;nbsp; &amp;nbsp; &amp;nbsp; &amp;nbsp; &amp;nbsp; &amp;nbsp; &amp;nbsp; ),&lt;/div&gt;&lt;div&gt;&amp;nbsp; &amp;nbsp; &amp;nbsp; &amp;nbsp; &amp;nbsp; &amp;nbsp; &amp;nbsp; &amp;nbsp; idCliente: &#39;&#39;,&lt;/div&gt;&lt;div&gt;&amp;nbsp; &amp;nbsp; &amp;nbsp; &amp;nbsp; &amp;nbsp; &amp;nbsp; &amp;nbsp; &amp;nbsp; nombreUsuario: data.idUser,&lt;/div&gt;&lt;div&gt;&amp;nbsp; &amp;nbsp; &amp;nbsp; &amp;nbsp; &amp;nbsp; &amp;nbsp; &amp;nbsp; &amp;nbsp; idSesion: responseJSON.access_token,&lt;/div&gt;&lt;div&gt;&amp;nbsp; &amp;nbsp; &amp;nbsp; &amp;nbsp; &amp;nbsp; &amp;nbsp; &amp;nbsp; &amp;nbsp; accion: &#39;Registro&#39;,&lt;/div&gt;&lt;div&gt;&amp;nbsp; &amp;nbsp; &amp;nbsp; &amp;nbsp; &amp;nbsp; &amp;nbsp; &amp;nbsp; &amp;nbsp; estatus: &#39;Éxito&#39;,&lt;/div&gt;&lt;div&gt;&amp;nbsp; &amp;nbsp; &amp;nbsp; &amp;nbsp; &amp;nbsp; &amp;nbsp; &amp;nbsp; &amp;nbsp; recurso: `${SERVICE_TOKEN_OAUTH.PROTOCOL}//&lt;/div&gt;&lt;div&gt;${SERVICE_TOKEN_OAUTH.HOST}/&lt;/div&gt;&lt;div&gt;${SERVICE_TOKEN_OAUTH.PATH}:&lt;/div&gt;&lt;div&gt;${SERVICE_TOKEN_OAUTH.PORT}`,&lt;/div&gt;&lt;div&gt;&amp;nbsp; &amp;nbsp; &amp;nbsp; &amp;nbsp; &amp;nbsp; &amp;nbsp; &amp;nbsp; &amp;nbsp; fase: &#39;Solicitar Reinicio Contraseña OAuth&#39;,&lt;/div&gt;&lt;div&gt;&amp;nbsp; &amp;nbsp; &amp;nbsp; &amp;nbsp; &amp;nbsp; &amp;nbsp; &amp;nbsp; &amp;nbsp; descripcion: responseJSON&lt;/div&gt;&lt;div&gt;&amp;nbsp; &amp;nbsp; &amp;nbsp; &amp;nbsp; &amp;nbsp; &amp;nbsp; &amp;nbsp; }&lt;/div&gt;&lt;div&gt;&amp;nbsp; &amp;nbsp; &amp;nbsp; &amp;nbsp; &amp;nbsp; &amp;nbsp; },&lt;/div&gt;&lt;div&gt;&amp;nbsp; &amp;nbsp; &amp;nbsp; &amp;nbsp; &amp;nbsp; &amp;nbsp; LOGGER_AUTH&lt;/div&gt;&lt;div&gt;&amp;nbsp; &amp;nbsp; &amp;nbsp; &amp;nbsp; &amp;nbsp; )&amp;nbsp;&lt;/div&gt;&lt;/div&gt;&lt;/div&gt;" lucidchartObjectId="FheHkomjUrPZ" id="YH1fGvTt6RqdAR0_2gCc-172">
          <mxCell style="html=1;whiteSpace=wrap;shape=process;whiteSpace=wrap;spacing=3;verticalAlign=top;strokeColor=#5e5e5e;strokeOpacity=100;fillOpacity=100;rounded=1;absoluteArcSize=1;arcSize=7.199999999999999;fillColor=#c7e8ac;strokeWidth=2;align=left;fontSize=13;" parent="1" vertex="1" zOrder="62">
            <mxGeometry x="1270" y="3935" width="400" height="400" as="geometry" />
          </mxCell>
        </UserObject>
        <mxCell id="YH1fGvTt6RqdAR0_2gCc-175" value="" style="group" parent="1" vertex="1" connectable="0">
          <mxGeometry x="1740" y="3680" width="250" height="370" as="geometry" />
        </mxCell>
        <UserObject label="&lt;div style=&quot;text-align: left ; font-size: 13px&quot;&gt;&lt;span style=&quot;font-size: 13px ; color: rgb(201 , 45 , 57) ; font-weight: bold&quot;&gt;Header&lt;/span&gt;&lt;/div&gt;&lt;div style=&quot;text-align: left ; font-size: 13px&quot;&gt;&lt;div&gt;Accept: &#39;application/json&#39;,&lt;/div&gt;&lt;div&gt;&amp;nbsp;&#39;Content-Type&#39;: ‘application/x-www-form-urlencoded;charset=UTF-8’,&lt;/div&gt;&lt;div&gt;&amp;nbsp;idConsumidor: 25,&lt;/div&gt;&lt;div&gt;&amp;nbsp;idDestino: 14,&lt;/div&gt;&lt;div&gt;&amp;nbsp;usuario: &#39;usuarioMonte&#39;&lt;/div&gt;&lt;div&gt;&lt;span lang=&quot;EN-US&quot; style=&quot;font-size: 10.0pt ; line-height: 107% ; font-family: &amp;#34;leelawadee ui&amp;#34; , sans-serif&quot;&gt;Authorization: Baerer {access_token&lt;/span&gt;&lt;/div&gt;&lt;div&gt;&lt;span lang=&quot;EN-US&quot; style=&quot;font-size: 10.0pt ; line-height: 107% ; font-family: &amp;#34;leelawadee ui&amp;#34; , sans-serif&quot;&gt;}&lt;/span&gt;&lt;br&gt;&lt;/div&gt;&lt;div&gt;&lt;br&gt;&lt;/div&gt;&lt;div&gt;&lt;br&gt;&lt;/div&gt;&lt;/div&gt;&lt;div style=&quot;text-align: left ; font-size: 13px&quot;&gt;&lt;span style=&quot;font-size: 13px ; color: rgb(0 , 0 , 0)&quot;&gt;&lt;br&gt;&lt;/span&gt;&lt;/div&gt;&lt;div style=&quot;text-align: left ; font-size: 13px&quot;&gt;&lt;/div&gt;" lucidchartObjectId="b2fHpSifme5C" id="YH1fGvTt6RqdAR0_2gCc-176">
          <mxCell style="html=1;whiteSpace=wrap;;whiteSpace=wrap;spacing=3;verticalAlign=top;strokeColor=#5e5e5e;strokeOpacity=100;fillOpacity=100;rounded=1;absoluteArcSize=1;arcSize=7.199999999999999;fillColor=#e5e5e5;strokeWidth=2;fontSize=13;" parent="YH1fGvTt6RqdAR0_2gCc-175" vertex="1" zOrder="87">
            <mxGeometry y="75" width="250" height="155" as="geometry" />
          </mxCell>
        </UserObject>
        <UserObject label="&lt;div style=&quot;text-align: left ; font-size: 13px&quot;&gt;&lt;span style=&quot;font-size: 13px ; color: rgb(201 , 45 , 57) ; font-weight: bold&quot;&gt;Payload&lt;/span&gt;&lt;span style=&quot;font-size: 13px ; color: rgb(0 , 0 , 0)&quot;&gt;&lt;br style=&quot;font-size: 13px&quot;&gt;&lt;/span&gt;&lt;/div&gt;&lt;div&gt;&lt;div style=&quot;text-align: left&quot;&gt;&lt;div&gt;{&lt;/div&gt;&lt;div&gt;&amp;nbsp; &amp;nbsp; &quot;usuario&quot;: {&lt;/div&gt;&lt;div&gt;&amp;nbsp; &amp;nbsp; &amp;nbsp; &amp;nbsp; &quot;nombreUsuario&quot;: &quot;gtqxhthfafmldtrmlt@niwghx.online&quot;&lt;/div&gt;&lt;div&gt;&amp;nbsp; &amp;nbsp; }&lt;/div&gt;&lt;div&gt;}&lt;/div&gt;&lt;div&gt;&lt;br&gt;&lt;/div&gt;&lt;/div&gt;&lt;div style=&quot;font-size: 13px&quot;&gt;&lt;br&gt;&lt;/div&gt;&lt;/div&gt;&lt;div style=&quot;text-align: left ; font-size: 13px&quot;&gt;&lt;/div&gt;" lucidchartObjectId="b2fHGq9EwkId" id="YH1fGvTt6RqdAR0_2gCc-177">
          <mxCell style="html=1;whiteSpace=wrap;;whiteSpace=wrap;spacing=3;verticalAlign=top;strokeColor=#5e5e5e;strokeOpacity=100;fillOpacity=100;rounded=1;absoluteArcSize=1;arcSize=7.199999999999999;fillColor=#e5e5e5;strokeWidth=2;fontSize=13;" parent="YH1fGvTt6RqdAR0_2gCc-175" vertex="1" zOrder="88">
            <mxGeometry y="230" width="250" height="120" as="geometry" />
          </mxCell>
        </UserObject>
        <UserObject label="&lt;div style=&quot;text-align: left ; font-size: 13px&quot;&gt;&lt;span style=&quot;font-size: 13px ; color: rgb(201 , 45 , 57) ; font-weight: bold&quot;&gt;URL&lt;/span&gt;&lt;span style=&quot;font-size: 13px ; color: rgb(0 , 0 , 0)&quot;&gt;:&amp;nbsp;&lt;/span&gt;&lt;/div&gt;&lt;font face=&quot;leelawadee ui, sans-serif&quot;&gt;&lt;span style=&quot;font-size: 13.3333px&quot;&gt;https://iamdr.montepiedad.com.mx:4444/&lt;br&gt;NMP/GestionClientes/UsuariosMonte/v1/&lt;br&gt;solicitarReinicioContrasena&amp;nbsp;&lt;/span&gt;&lt;/font&gt;" lucidchartObjectId="b2fHP6a50O9K" id="YH1fGvTt6RqdAR0_2gCc-178">
          <mxCell style="html=1;whiteSpace=wrap;;whiteSpace=wrap;spacing=3;verticalAlign=top;strokeColor=#5e5e5e;strokeOpacity=100;fillOpacity=100;rounded=1;absoluteArcSize=1;arcSize=7.199999999999999;fillColor=#e5e5e5;strokeWidth=2;fontSize=13;" parent="YH1fGvTt6RqdAR0_2gCc-175" vertex="1" zOrder="89">
            <mxGeometry width="249.99999999999997" height="75.00000000000001" as="geometry" />
          </mxCell>
        </UserObject>
        <mxCell id="YH1fGvTt6RqdAR0_2gCc-183" value="No" style="edgeStyle=orthogonalEdgeStyle;rounded=0;orthogonalLoop=1;jettySize=auto;html=1;exitX=0.5;exitY=1;exitDx=0;exitDy=0;entryX=0.5;entryY=0;entryDx=0;entryDy=0;" parent="1" source="YH1fGvTt6RqdAR0_2gCc-180" target="YH1fGvTt6RqdAR0_2gCc-182" edge="1">
          <mxGeometry relative="1" as="geometry">
            <mxPoint x="2107.5" y="4250" as="targetPoint" />
          </mxGeometry>
        </mxCell>
        <mxCell id="YH1fGvTt6RqdAR0_2gCc-184" style="edgeStyle=orthogonalEdgeStyle;rounded=0;orthogonalLoop=1;jettySize=auto;html=1;exitX=1;exitY=0.5;exitDx=0;exitDy=0;entryX=0;entryY=0.5;entryDx=0;entryDy=0;" parent="1" source="YH1fGvTt6RqdAR0_2gCc-180" target="YH1fGvTt6RqdAR0_2gCc-156" edge="1">
          <mxGeometry relative="1" as="geometry" />
        </mxCell>
        <mxCell id="YH1fGvTt6RqdAR0_2gCc-185" value="Si" style="edgeLabel;html=1;align=center;verticalAlign=middle;resizable=0;points=[];" parent="YH1fGvTt6RqdAR0_2gCc-184" vertex="1" connectable="0">
          <mxGeometry x="-0.3201" y="2" relative="1" as="geometry">
            <mxPoint as="offset" />
          </mxGeometry>
        </mxCell>
        <mxCell id="YH1fGvTt6RqdAR0_2gCc-180" value="Respuesta Exitosa" style="rhombus;whiteSpace=wrap;html=1;" parent="1" vertex="1">
          <mxGeometry x="2040" y="4075" width="135" height="120" as="geometry" />
        </mxCell>
        <UserObject label="&lt;div&gt;LOGGER(&lt;/div&gt;&lt;div&gt;&amp;nbsp; &amp;nbsp; &amp;nbsp; &amp;nbsp; &amp;nbsp; &amp;nbsp; &amp;nbsp; &amp;nbsp; &#39;ERROR&#39;,&lt;/div&gt;&lt;div&gt;&amp;nbsp; &amp;nbsp; &amp;nbsp; &amp;nbsp; &amp;nbsp; &amp;nbsp; &amp;nbsp; &amp;nbsp; {&lt;/div&gt;&lt;div&gt;&amp;nbsp; &amp;nbsp; &amp;nbsp; &amp;nbsp; &amp;nbsp; &amp;nbsp; &amp;nbsp; &amp;nbsp; &amp;nbsp; pid: process.pid,&lt;/div&gt;&lt;div&gt;&amp;nbsp; &amp;nbsp; &amp;nbsp; &amp;nbsp; &amp;nbsp; &amp;nbsp; &amp;nbsp; &amp;nbsp; &amp;nbsp; hostname: process.env.BACKEND_SERVER,&lt;/div&gt;&lt;div&gt;&amp;nbsp; &amp;nbsp; &amp;nbsp; &amp;nbsp; &amp;nbsp; &amp;nbsp; &amp;nbsp; &amp;nbsp; &amp;nbsp; message: {&lt;/div&gt;&lt;div&gt;&amp;nbsp; &amp;nbsp; &amp;nbsp; &amp;nbsp; &amp;nbsp; &amp;nbsp; &amp;nbsp; &amp;nbsp; &amp;nbsp; &amp;nbsp; ipRemota: publicIp(&lt;/div&gt;&lt;div&gt;&amp;nbsp; &amp;nbsp; &amp;nbsp; &amp;nbsp; &amp;nbsp; &amp;nbsp; &amp;nbsp; &amp;nbsp; &amp;nbsp; &amp;nbsp; &amp;nbsp; req.header(&#39;x-forwarded-for&#39;) ||&lt;/div&gt;&lt;div&gt;&amp;nbsp; &amp;nbsp; &amp;nbsp; &amp;nbsp; &amp;nbsp; &amp;nbsp; &amp;nbsp; &amp;nbsp; &amp;nbsp; &amp;nbsp; &amp;nbsp; &amp;nbsp; req.connection.remoteAddress&lt;/div&gt;&lt;div&gt;&amp;nbsp; &amp;nbsp; &amp;nbsp; &amp;nbsp; &amp;nbsp; &amp;nbsp; &amp;nbsp; &amp;nbsp; &amp;nbsp; &amp;nbsp; ),&lt;/div&gt;&lt;div&gt;&amp;nbsp; &amp;nbsp; &amp;nbsp; &amp;nbsp; &amp;nbsp; &amp;nbsp; &amp;nbsp; &amp;nbsp; &amp;nbsp; &amp;nbsp; idCliente: &#39;&#39;,&lt;/div&gt;&lt;div&gt;&amp;nbsp; &amp;nbsp; &amp;nbsp; &amp;nbsp; &amp;nbsp; &amp;nbsp; &amp;nbsp; &amp;nbsp; &amp;nbsp; &amp;nbsp; nombreUsuario: data.idUser,&lt;/div&gt;&lt;div&gt;&amp;nbsp; &amp;nbsp; &amp;nbsp; &amp;nbsp; &amp;nbsp; &amp;nbsp; &amp;nbsp; &amp;nbsp; &amp;nbsp; &amp;nbsp; idSesion: responseJSO N.access_token,&lt;/div&gt;&lt;div&gt;&amp;nbsp; &amp;nbsp; &amp;nbsp; &amp;nbsp; &amp;nbsp; &amp;nbsp; &amp;nbsp; &amp;nbsp; &amp;nbsp; &amp;nbsp; accion: &#39;Registro&#39;,&lt;/div&gt;&lt;div&gt;&amp;nbsp; &amp;nbsp; &amp;nbsp; &amp;nbsp; &amp;nbsp; &amp;nbsp; &amp;nbsp; &amp;nbsp; &amp;nbsp; &amp;nbsp; estatus: &#39;Error&#39;,&lt;/div&gt;&lt;div&gt;&amp;nbsp; &amp;nbsp; &amp;nbsp; &amp;nbsp; &amp;nbsp; &amp;nbsp; &amp;nbsp; &amp;nbsp; &amp;nbsp; &amp;nbsp; recurso: `${SERVICE_TOKEN_OAUTH.PROTOCOL}//&lt;/div&gt;&lt;div&gt;${SERVICE_TOKEN_OAUTH.HOST}/&lt;/div&gt;&lt;div&gt;${SERVICE_TOKEN_OAUTH.PATH}:&lt;/div&gt;&lt;div&gt;${SERVICE_TOKEN_OAUTH.PORT}`,&lt;/div&gt;&lt;div&gt;&amp;nbsp; &amp;nbsp; &amp;nbsp; &amp;nbsp; &amp;nbsp; &amp;nbsp; &amp;nbsp; &amp;nbsp; &amp;nbsp; &amp;nbsp; fase: &#39;Solicitar Reinicio Contraseña&#39;,&lt;/div&gt;&lt;div&gt;&amp;nbsp; &amp;nbsp; &amp;nbsp; &amp;nbsp; &amp;nbsp; &amp;nbsp; &amp;nbsp; &amp;nbsp; &amp;nbsp; &amp;nbsp; descripcion: err&lt;/div&gt;&lt;div&gt;&amp;nbsp; &amp;nbsp; &amp;nbsp; &amp;nbsp; &amp;nbsp; &amp;nbsp; &amp;nbsp; &amp;nbsp; &amp;nbsp; }&lt;/div&gt;&lt;div&gt;&amp;nbsp; &amp;nbsp; &amp;nbsp; &amp;nbsp; &amp;nbsp; &amp;nbsp; &amp;nbsp; &amp;nbsp; },&lt;/div&gt;&lt;div&gt;&amp;nbsp; &amp;nbsp; &amp;nbsp; &amp;nbsp; &amp;nbsp; &amp;nbsp; &amp;nbsp; &amp;nbsp; LOGGER_AUTH&lt;/div&gt;&lt;div&gt;&amp;nbsp; &amp;nbsp; &amp;nbsp; &amp;nbsp; &amp;nbsp; &amp;nbsp; &amp;nbsp; )&lt;/div&gt;" lucidchartObjectId="FheHkomjUrPZ" id="YH1fGvTt6RqdAR0_2gCc-182">
          <mxCell style="html=1;whiteSpace=wrap;shape=process;whiteSpace=wrap;spacing=3;verticalAlign=top;strokeColor=#b85450;strokeOpacity=100;fillOpacity=100;rounded=1;absoluteArcSize=1;arcSize=7.199999999999999;strokeWidth=2;align=left;fontSize=13;size=0.1;fillColor=#FFBBB1;" parent="1" vertex="1" zOrder="62">
            <mxGeometry x="1907.5" y="4240" width="400" height="410" as="geometry" />
          </mxCell>
        </UserObject>
        <mxCell id="YH1fGvTt6RqdAR0_2gCc-186" style="edgeStyle=orthogonalEdgeStyle;rounded=0;orthogonalLoop=1;jettySize=auto;html=1;exitX=1;exitY=0.5;exitDx=0;exitDy=0;entryX=0;entryY=0.5;entryDx=0;entryDy=0;" parent="1" source="YH1fGvTt6RqdAR0_2gCc-187" target="YH1fGvTt6RqdAR0_2gCc-195" edge="1">
          <mxGeometry relative="1" as="geometry">
            <mxPoint x="370" y="5190" as="targetPoint" />
          </mxGeometry>
        </mxCell>
        <mxCell id="YH1fGvTt6RqdAR0_2gCc-187" value="&lt;font style=&quot;font-size: 13px;&quot;&gt;&lt;span style=&quot;font-size: 13px;&quot;&gt;Registrar&lt;br style=&quot;font-size: 13px;&quot;&gt;Contrasenaseña&lt;/span&gt;&lt;/font&gt;" style="ellipse;whiteSpace=wrap;html=1;aspect=fixed;fontSize=13;" parent="1" vertex="1">
          <mxGeometry x="40" y="5135" width="110" height="110" as="geometry" />
        </mxCell>
        <mxCell id="YH1fGvTt6RqdAR0_2gCc-190" style="edgeStyle=orthogonalEdgeStyle;rounded=0;orthogonalLoop=1;jettySize=auto;html=1;exitX=1;exitY=0.5;exitDx=0;exitDy=0;entryX=0;entryY=0.5;entryDx=0;entryDy=0;" parent="1" source="YH1fGvTt6RqdAR0_2gCc-191" target="YH1fGvTt6RqdAR0_2gCc-212" edge="1">
          <mxGeometry relative="1" as="geometry" />
        </mxCell>
        <UserObject label="&lt;font face=&quot;leelawadee ui, sans-serif&quot;&gt;&lt;span style=&quot;font-size: 16px&quot;&gt;auth/oauth/&lt;br&gt;registrarContrasena&lt;/span&gt;&lt;/font&gt;" lucidchartObjectId="NafHmFh6Zc9_" id="YH1fGvTt6RqdAR0_2gCc-191">
          <mxCell style="html=1;whiteSpace=wrap;shape=hexagon;perimeter=hexagonPerimeter2;whiteSpace=wrap;fontSize=13;fontColor=#000000;spacing=3;strokeColor=#5e5e5e;strokeOpacity=100;rounded=1;absoluteArcSize=1;arcSize=7.199999999999999;strokeWidth=2;" parent="1" vertex="1" zOrder="83">
            <mxGeometry x="1750" y="5118.5" width="220" height="143" as="geometry" />
          </mxCell>
        </UserObject>
        <mxCell id="YH1fGvTt6RqdAR0_2gCc-225" style="edgeStyle=orthogonalEdgeStyle;rounded=0;orthogonalLoop=1;jettySize=auto;html=1;exitX=1;exitY=0.5;exitDx=0;exitDy=0;entryX=0;entryY=0.5;entryDx=0;entryDy=0;fontSize=13;" parent="1" source="YH1fGvTt6RqdAR0_2gCc-192" target="YH1fGvTt6RqdAR0_2gCc-224" edge="1">
          <mxGeometry relative="1" as="geometry" />
        </mxCell>
        <UserObject label="&lt;div&gt;&amp;nbsp;LOGGER(&lt;/div&gt;&lt;div&gt;&amp;nbsp; &amp;nbsp; &amp;nbsp; &amp;nbsp; &amp;nbsp; &amp;nbsp; &amp;nbsp; &amp;nbsp; &#39;INFO&#39;,&lt;/div&gt;&lt;div&gt;&amp;nbsp; &amp;nbsp; &amp;nbsp; &amp;nbsp; &amp;nbsp; &amp;nbsp; &amp;nbsp; &amp;nbsp; {&lt;/div&gt;&lt;div&gt;&amp;nbsp; &amp;nbsp; &amp;nbsp; &amp;nbsp; &amp;nbsp; &amp;nbsp; &amp;nbsp; &amp;nbsp; &amp;nbsp; pid: process.pid,&lt;/div&gt;&lt;div&gt;&amp;nbsp; &amp;nbsp; &amp;nbsp; &amp;nbsp; &amp;nbsp; &amp;nbsp; &amp;nbsp; &amp;nbsp; &amp;nbsp; hostname: process.env.BACKEND_SERVER,&lt;/div&gt;&lt;div&gt;&amp;nbsp; &amp;nbsp; &amp;nbsp; &amp;nbsp; &amp;nbsp; &amp;nbsp; &amp;nbsp; &amp;nbsp; &amp;nbsp; message: {&lt;/div&gt;&lt;div&gt;&amp;nbsp; &amp;nbsp; &amp;nbsp; &amp;nbsp; &amp;nbsp; &amp;nbsp; &amp;nbsp; &amp;nbsp; &amp;nbsp; &amp;nbsp; ipRemota: publicIp(&lt;/div&gt;&lt;div&gt;&amp;nbsp; &amp;nbsp; &amp;nbsp; &amp;nbsp; &amp;nbsp; &amp;nbsp; &amp;nbsp; &amp;nbsp; &amp;nbsp; &amp;nbsp; &amp;nbsp; req.header(&#39;x-forwarded-for&#39;) ||&lt;/div&gt;&lt;div&gt;&amp;nbsp; &amp;nbsp; &amp;nbsp; &amp;nbsp; &amp;nbsp; &amp;nbsp; &amp;nbsp; &amp;nbsp; &amp;nbsp; &amp;nbsp; &amp;nbsp; &amp;nbsp; req.connection.remoteAddress&lt;/div&gt;&lt;div&gt;&amp;nbsp; &amp;nbsp; &amp;nbsp; &amp;nbsp; &amp;nbsp; &amp;nbsp; &amp;nbsp; &amp;nbsp; &amp;nbsp; &amp;nbsp; ),&lt;/div&gt;&lt;div&gt;&amp;nbsp; &amp;nbsp; &amp;nbsp; &amp;nbsp; &amp;nbsp; &amp;nbsp; &amp;nbsp; &amp;nbsp; &amp;nbsp; &amp;nbsp; idCliente: &#39;&#39;,&lt;/div&gt;&lt;div&gt;&amp;nbsp; &amp;nbsp; &amp;nbsp; &amp;nbsp; &amp;nbsp; &amp;nbsp; &amp;nbsp; &amp;nbsp; &amp;nbsp; &amp;nbsp; nombreUsuario: data.idUser,&lt;/div&gt;&lt;div&gt;&amp;nbsp; &amp;nbsp; &amp;nbsp; &amp;nbsp; &amp;nbsp; &amp;nbsp; &amp;nbsp; &amp;nbsp; &amp;nbsp; &amp;nbsp; idSesion: responseJSON.access_token,&lt;/div&gt;&lt;div&gt;&amp;nbsp; &amp;nbsp; &amp;nbsp; &amp;nbsp; &amp;nbsp; &amp;nbsp; &amp;nbsp; &amp;nbsp; &amp;nbsp; &amp;nbsp; accion: &#39;Registro&#39;,&lt;/div&gt;&lt;div&gt;&amp;nbsp; &amp;nbsp; &amp;nbsp; &amp;nbsp; &amp;nbsp; &amp;nbsp; &amp;nbsp; &amp;nbsp; &amp;nbsp; &amp;nbsp; estatus: &#39;Éxito&#39;,&lt;/div&gt;&lt;div&gt;&amp;nbsp; &amp;nbsp; &amp;nbsp; &amp;nbsp; &amp;nbsp; &amp;nbsp; &amp;nbsp; &amp;nbsp; &amp;nbsp; &amp;nbsp; recurso: `${SERVICE_TOKEN_OAUTH.PROTOCOL}//&lt;/div&gt;&lt;div&gt;${SERVICE_TOKEN_OAUTH.HOST}/&lt;/div&gt;&lt;div&gt;${SERVICE_TOKEN_OAUTH.PATH}:&lt;/div&gt;&lt;div&gt;${SERVICE_TOKEN_OAUTH.PORT}`,&lt;/div&gt;&lt;div&gt;&amp;nbsp; &amp;nbsp; &amp;nbsp; &amp;nbsp; &amp;nbsp; &amp;nbsp; &amp;nbsp; &amp;nbsp; &amp;nbsp; &amp;nbsp; fase: &#39;Registrar Nueva Contraseña&#39;,&lt;/div&gt;&lt;div&gt;&amp;nbsp; &amp;nbsp; &amp;nbsp; &amp;nbsp; &amp;nbsp; &amp;nbsp; &amp;nbsp; &amp;nbsp; &amp;nbsp; &amp;nbsp; descripcion: responseJSON&lt;/div&gt;&lt;div&gt;&amp;nbsp; &amp;nbsp; &amp;nbsp; &amp;nbsp; &amp;nbsp; &amp;nbsp; &amp;nbsp; &amp;nbsp; &amp;nbsp; }&lt;/div&gt;&lt;div&gt;&amp;nbsp; &amp;nbsp; &amp;nbsp; &amp;nbsp; &amp;nbsp; &amp;nbsp; &amp;nbsp; &amp;nbsp; },&lt;/div&gt;&lt;div&gt;&amp;nbsp; &amp;nbsp; &amp;nbsp; &amp;nbsp; &amp;nbsp; &amp;nbsp; &amp;nbsp; &amp;nbsp; LOGGER_AUTH&lt;/div&gt;&lt;div&gt;&amp;nbsp; &amp;nbsp; &amp;nbsp; &amp;nbsp; &amp;nbsp; &amp;nbsp; &amp;nbsp; )&lt;/div&gt;" lucidchartObjectId="FheHkomjUrPZ" id="YH1fGvTt6RqdAR0_2gCc-192">
          <mxCell style="html=1;whiteSpace=wrap;shape=process;whiteSpace=wrap;spacing=3;verticalAlign=top;strokeColor=#5e5e5e;strokeOpacity=100;fillOpacity=100;rounded=1;absoluteArcSize=1;arcSize=7.199999999999999;fillColor=#c7e8ac;strokeWidth=2;align=left;fontSize=13;" parent="1" vertex="1" zOrder="62">
            <mxGeometry x="2340" y="4975" width="400" height="430" as="geometry" />
          </mxCell>
        </UserObject>
        <mxCell id="YH1fGvTt6RqdAR0_2gCc-194" style="edgeStyle=orthogonalEdgeStyle;rounded=0;orthogonalLoop=1;jettySize=auto;html=1;exitX=1;exitY=0.5;exitDx=0;exitDy=0;entryX=0;entryY=0.5;entryDx=0;entryDy=0;" parent="1" source="YH1fGvTt6RqdAR0_2gCc-195" target="YH1fGvTt6RqdAR0_2gCc-199" edge="1">
          <mxGeometry relative="1" as="geometry" />
        </mxCell>
        <mxCell id="YH1fGvTt6RqdAR0_2gCc-195" value="Obtener Token usuarioMonte" style="rounded=1;whiteSpace=wrap;html=1;" parent="1" vertex="1">
          <mxGeometry x="380" y="5160" width="120" height="60" as="geometry" />
        </mxCell>
        <mxCell id="YH1fGvTt6RqdAR0_2gCc-196" style="edgeStyle=orthogonalEdgeStyle;rounded=0;orthogonalLoop=1;jettySize=auto;html=1;exitX=0.5;exitY=1;exitDx=0;exitDy=0;" parent="1" source="YH1fGvTt6RqdAR0_2gCc-189" edge="1">
          <mxGeometry relative="1" as="geometry">
            <mxPoint x="440" y="5155" as="targetPoint" />
          </mxGeometry>
        </mxCell>
        <mxCell id="YH1fGvTt6RqdAR0_2gCc-197" value="No" style="edgeStyle=orthogonalEdgeStyle;rounded=0;orthogonalLoop=1;jettySize=auto;html=1;exitX=0.5;exitY=1;exitDx=0;exitDy=0;entryX=0.5;entryY=0;entryDx=0;entryDy=0;" parent="1" source="YH1fGvTt6RqdAR0_2gCc-199" target="YH1fGvTt6RqdAR0_2gCc-200" edge="1">
          <mxGeometry relative="1" as="geometry" />
        </mxCell>
        <mxCell id="YH1fGvTt6RqdAR0_2gCc-198" style="edgeStyle=orthogonalEdgeStyle;rounded=0;orthogonalLoop=1;jettySize=auto;html=1;exitX=1;exitY=0.5;exitDx=0;exitDy=0;entryX=0;entryY=0.5;entryDx=0;entryDy=0;" parent="1" source="YH1fGvTt6RqdAR0_2gCc-199" target="YH1fGvTt6RqdAR0_2gCc-203" edge="1">
          <mxGeometry relative="1" as="geometry" />
        </mxCell>
        <mxCell id="YH1fGvTt6RqdAR0_2gCc-213" value="Si" style="edgeLabel;html=1;align=center;verticalAlign=middle;resizable=0;points=[];fontSize=13;" parent="YH1fGvTt6RqdAR0_2gCc-198" vertex="1" connectable="0">
          <mxGeometry x="-0.2155" y="-2" relative="1" as="geometry">
            <mxPoint as="offset" />
          </mxGeometry>
        </mxCell>
        <mxCell id="YH1fGvTt6RqdAR0_2gCc-199" value="Petición Exitosa" style="rhombus;whiteSpace=wrap;html=1;" parent="1" vertex="1">
          <mxGeometry x="583.75" y="5135" width="112.5" height="110" as="geometry" />
        </mxCell>
        <UserObject label="&lt;div&gt;LOGGER(&lt;/div&gt;&lt;div&gt;&amp;nbsp; &amp;nbsp; &amp;nbsp; &amp;nbsp; &amp;nbsp; &#39;ERROR&#39;,&lt;/div&gt;&lt;div&gt;&amp;nbsp; &amp;nbsp; &amp;nbsp; &amp;nbsp; &amp;nbsp; {&lt;/div&gt;&lt;div&gt;&amp;nbsp; &amp;nbsp; &amp;nbsp; &amp;nbsp; &amp;nbsp; &amp;nbsp; pid: process.pid,&lt;/div&gt;&lt;div&gt;&amp;nbsp; &amp;nbsp; &amp;nbsp; &amp;nbsp; &amp;nbsp; &amp;nbsp; hostname: process.env.BACKEND_SERVER,&lt;/div&gt;&lt;div&gt;&amp;nbsp; &amp;nbsp; &amp;nbsp; &amp;nbsp; &amp;nbsp; &amp;nbsp; message: {&lt;/div&gt;&lt;div&gt;&amp;nbsp; &amp;nbsp; &amp;nbsp; &amp;nbsp; &amp;nbsp; &amp;nbsp; &amp;nbsp; ipRemota: publicIp(&lt;/div&gt;&lt;div&gt;&amp;nbsp; &amp;nbsp; &amp;nbsp; &amp;nbsp; &amp;nbsp; &amp;nbsp; &amp;nbsp; &amp;nbsp; req.header(&#39;x-forwarded-for&#39;) || req.connection.remoteAddress&lt;/div&gt;&lt;div&gt;&amp;nbsp; &amp;nbsp; &amp;nbsp; &amp;nbsp; &amp;nbsp; &amp;nbsp; &amp;nbsp; ),&lt;/div&gt;&lt;div&gt;&amp;nbsp; &amp;nbsp; &amp;nbsp; &amp;nbsp; &amp;nbsp; &amp;nbsp; &amp;nbsp; idCliente: &#39;&#39;,&lt;/div&gt;&lt;div&gt;&amp;nbsp; &amp;nbsp; &amp;nbsp; &amp;nbsp; &amp;nbsp; &amp;nbsp; &amp;nbsp; nombreUsuario: data.idUser,&lt;/div&gt;&lt;div&gt;&amp;nbsp; &amp;nbsp; &amp;nbsp; &amp;nbsp; &amp;nbsp; &amp;nbsp; &amp;nbsp; accion: &#39;Registro&#39;,&lt;/div&gt;&lt;div&gt;&amp;nbsp; &amp;nbsp; &amp;nbsp; &amp;nbsp; &amp;nbsp; &amp;nbsp; &amp;nbsp; estatus: &#39;Error&#39;,&lt;/div&gt;&lt;div&gt;&amp;nbsp; &amp;nbsp; &amp;nbsp; &amp;nbsp; &amp;nbsp; &amp;nbsp; &amp;nbsp; recurso: `${SERVICE_TOKEN_OAUTH.PROTOCOL}//&lt;/div&gt;&lt;div&gt;${SERVICE_TOKEN_OAUTH.HOST}/&lt;/div&gt;&lt;div&gt;${SERVICE_TOKEN_OAUTH.PATH}:&lt;/div&gt;&lt;div&gt;${SERVICE_TOKEN_OAUTH.PORT}`,&lt;/div&gt;&lt;div&gt;&amp;nbsp; &amp;nbsp; &amp;nbsp; &amp;nbsp; &amp;nbsp; &amp;nbsp; &amp;nbsp; fase: &#39;Registrar Nueva Contraseña OAuth&#39;,&lt;/div&gt;&lt;div&gt;&amp;nbsp; &amp;nbsp; &amp;nbsp; &amp;nbsp; &amp;nbsp; &amp;nbsp; &amp;nbsp; descripcion: err&lt;/div&gt;&lt;div&gt;&amp;nbsp; &amp;nbsp; &amp;nbsp; &amp;nbsp; &amp;nbsp; &amp;nbsp; }&lt;/div&gt;&lt;div&gt;&amp;nbsp; &amp;nbsp; &amp;nbsp; &amp;nbsp; &amp;nbsp; },&lt;/div&gt;&lt;div&gt;&amp;nbsp; &amp;nbsp; &amp;nbsp; &amp;nbsp; &amp;nbsp; LOGGER_AUTH&lt;/div&gt;&lt;div&gt;&amp;nbsp; &amp;nbsp; &amp;nbsp; &amp;nbsp; )&lt;/div&gt;" lucidchartObjectId="FheHkomjUrPZ" id="YH1fGvTt6RqdAR0_2gCc-200">
          <mxCell style="html=1;whiteSpace=wrap;shape=process;whiteSpace=wrap;spacing=3;verticalAlign=top;strokeColor=#b85450;strokeOpacity=100;fillOpacity=100;rounded=1;absoluteArcSize=1;arcSize=7.199999999999999;strokeWidth=2;align=left;fontSize=13;size=0.1;fillColor=#FFBBB1;" parent="1" vertex="1" zOrder="62">
            <mxGeometry x="440" y="5315" width="400" height="380" as="geometry" />
          </mxCell>
        </UserObject>
        <mxCell id="YH1fGvTt6RqdAR0_2gCc-201" value="No" style="edgeStyle=orthogonalEdgeStyle;rounded=0;orthogonalLoop=1;jettySize=auto;html=1;exitX=0.5;exitY=1;exitDx=0;exitDy=0;entryX=0.5;entryY=0;entryDx=0;entryDy=0;" parent="1" source="YH1fGvTt6RqdAR0_2gCc-203" target="YH1fGvTt6RqdAR0_2gCc-204" edge="1">
          <mxGeometry relative="1" as="geometry" />
        </mxCell>
        <mxCell id="YH1fGvTt6RqdAR0_2gCc-202" style="edgeStyle=orthogonalEdgeStyle;rounded=0;orthogonalLoop=1;jettySize=auto;html=1;exitX=1;exitY=0.5;exitDx=0;exitDy=0;entryX=0;entryY=0.5;entryDx=0;entryDy=0;" parent="1" source="YH1fGvTt6RqdAR0_2gCc-203" target="YH1fGvTt6RqdAR0_2gCc-206" edge="1">
          <mxGeometry relative="1" as="geometry" />
        </mxCell>
        <mxCell id="YH1fGvTt6RqdAR0_2gCc-203" value="Respuesta Exitosa" style="rhombus;whiteSpace=wrap;html=1;" parent="1" vertex="1">
          <mxGeometry x="980" y="5130" width="135" height="120" as="geometry" />
        </mxCell>
        <UserObject label="&lt;div&gt;LOGGER(&lt;/div&gt;&lt;div&gt;&amp;nbsp; &amp;nbsp; &amp;nbsp; &amp;nbsp; &amp;nbsp; &amp;nbsp; &#39;ERROR&#39;,&lt;/div&gt;&lt;div&gt;&amp;nbsp; &amp;nbsp; &amp;nbsp; &amp;nbsp; &amp;nbsp; &amp;nbsp; {&lt;/div&gt;&lt;div&gt;&amp;nbsp; &amp;nbsp; &amp;nbsp; &amp;nbsp; &amp;nbsp; &amp;nbsp; &amp;nbsp; pid: process.pid,&lt;/div&gt;&lt;div&gt;&amp;nbsp; &amp;nbsp; &amp;nbsp; &amp;nbsp; &amp;nbsp; &amp;nbsp; &amp;nbsp; hostname: process.env.BACKEND_SERVER,&lt;/div&gt;&lt;div&gt;&amp;nbsp; &amp;nbsp; &amp;nbsp; &amp;nbsp; &amp;nbsp; &amp;nbsp; &amp;nbsp; message: {&lt;/div&gt;&lt;div&gt;&amp;nbsp; &amp;nbsp; &amp;nbsp; &amp;nbsp; &amp;nbsp; &amp;nbsp; &amp;nbsp; &amp;nbsp; ipRemota: publicIp(&lt;/div&gt;&lt;div&gt;&amp;nbsp; &amp;nbsp; &amp;nbsp; &amp;nbsp; &amp;nbsp; &amp;nbsp; &amp;nbsp; &amp;nbsp; &amp;nbsp; req.header(&#39;x-forwarded-for&#39;) || req.connection.remoteAddress&lt;/div&gt;&lt;div&gt;&amp;nbsp; &amp;nbsp; &amp;nbsp; &amp;nbsp; &amp;nbsp; &amp;nbsp; &amp;nbsp; &amp;nbsp; ),&lt;/div&gt;&lt;div&gt;&amp;nbsp; &amp;nbsp; &amp;nbsp; &amp;nbsp; &amp;nbsp; &amp;nbsp; &amp;nbsp; &amp;nbsp; nombreUsuario: data.idUser,&lt;/div&gt;&lt;div&gt;&amp;nbsp; &amp;nbsp; &amp;nbsp; &amp;nbsp; &amp;nbsp; &amp;nbsp; &amp;nbsp; &amp;nbsp; accion: &#39;Registro&#39;,&lt;/div&gt;&lt;div&gt;&amp;nbsp; &amp;nbsp; &amp;nbsp; &amp;nbsp; &amp;nbsp; &amp;nbsp; &amp;nbsp; &amp;nbsp; estatus: &#39;Error&#39;,&lt;/div&gt;&lt;div&gt;&amp;nbsp; &amp;nbsp; &amp;nbsp; &amp;nbsp; &amp;nbsp; &amp;nbsp; &amp;nbsp; &amp;nbsp; recurso: `${SERVICE_TOKEN_OAUTH.PROTOCOL}//&lt;/div&gt;&lt;div&gt;${SERVICE_TOKEN_OAUTH.HOST}/&lt;/div&gt;&lt;div&gt;${SERVICE_TOKEN_OAUTH.PATH}:&lt;/div&gt;&lt;div&gt;${SERVICE_TOKEN_OAUTH.PORT}`,&lt;/div&gt;&lt;div&gt;&amp;nbsp; &amp;nbsp; &amp;nbsp; &amp;nbsp; &amp;nbsp; &amp;nbsp; &amp;nbsp; &amp;nbsp; fase: &#39;Registrar Nueva Contraseña OAuth&#39;,&lt;/div&gt;&lt;div&gt;&amp;nbsp; &amp;nbsp; &amp;nbsp; &amp;nbsp; &amp;nbsp; &amp;nbsp; &amp;nbsp; &amp;nbsp; descripcion: JSON.parse(responseJSON)&lt;/div&gt;&lt;div&gt;&amp;nbsp; &amp;nbsp; &amp;nbsp; &amp;nbsp; &amp;nbsp; &amp;nbsp; &amp;nbsp; }&lt;/div&gt;&lt;div&gt;&amp;nbsp; &amp;nbsp; &amp;nbsp; &amp;nbsp; &amp;nbsp; &amp;nbsp; },&lt;/div&gt;&lt;div&gt;&amp;nbsp; &amp;nbsp; &amp;nbsp; &amp;nbsp; &amp;nbsp; &amp;nbsp; LOGGER_AUTH&lt;/div&gt;&lt;div&gt;&amp;nbsp; &amp;nbsp; &amp;nbsp; &amp;nbsp; &amp;nbsp; )&lt;/div&gt;" lucidchartObjectId="FheHkomjUrPZ" id="YH1fGvTt6RqdAR0_2gCc-204">
          <mxCell style="html=1;whiteSpace=wrap;shape=process;whiteSpace=wrap;spacing=3;verticalAlign=top;strokeColor=#b85450;strokeOpacity=100;fillOpacity=100;rounded=1;absoluteArcSize=1;arcSize=7.199999999999999;strokeWidth=2;align=left;fontSize=13;size=0.1;fillColor=#FFBBB1;" parent="1" vertex="1" zOrder="62">
            <mxGeometry x="847.5" y="5315" width="400" height="380" as="geometry" />
          </mxCell>
        </UserObject>
        <mxCell id="YH1fGvTt6RqdAR0_2gCc-205" style="edgeStyle=orthogonalEdgeStyle;rounded=0;orthogonalLoop=1;jettySize=auto;html=1;exitX=1;exitY=0.5;exitDx=0;exitDy=0;" parent="1" source="YH1fGvTt6RqdAR0_2gCc-206" target="YH1fGvTt6RqdAR0_2gCc-191" edge="1">
          <mxGeometry relative="1" as="geometry" />
        </mxCell>
        <UserObject label="&lt;div style=&quot;font-size: 13px&quot;&gt;&lt;div style=&quot;font-size: 13px&quot;&gt;&lt;div&gt;LOGGER(&lt;/div&gt;&lt;div&gt;&amp;nbsp; &amp;nbsp; &amp;nbsp; &amp;nbsp; &amp;nbsp; &amp;nbsp; &#39;INFO&#39;,&lt;/div&gt;&lt;div&gt;&amp;nbsp; &amp;nbsp; &amp;nbsp; &amp;nbsp; &amp;nbsp; &amp;nbsp; {&lt;/div&gt;&lt;div&gt;&amp;nbsp; &amp;nbsp; &amp;nbsp; &amp;nbsp; &amp;nbsp; &amp;nbsp; &amp;nbsp; pid: process.pid,&lt;/div&gt;&lt;div&gt;&amp;nbsp; &amp;nbsp; &amp;nbsp; &amp;nbsp; &amp;nbsp; &amp;nbsp; &amp;nbsp; hostname: process.env.BACKEND_SERVER,&lt;/div&gt;&lt;div&gt;&amp;nbsp; &amp;nbsp; &amp;nbsp; &amp;nbsp; &amp;nbsp; &amp;nbsp; &amp;nbsp; message: {&lt;/div&gt;&lt;div&gt;&amp;nbsp; &amp;nbsp; &amp;nbsp; &amp;nbsp; &amp;nbsp; &amp;nbsp; &amp;nbsp; &amp;nbsp; ipRemota: publicIp(&lt;/div&gt;&lt;div&gt;&amp;nbsp; &amp;nbsp; &amp;nbsp; &amp;nbsp; &amp;nbsp; &amp;nbsp; &amp;nbsp; &amp;nbsp; &amp;nbsp; req.header(&#39;x-forwarded-for&#39;) || req.connection.remoteAddress&lt;/div&gt;&lt;div&gt;&amp;nbsp; &amp;nbsp; &amp;nbsp; &amp;nbsp; &amp;nbsp; &amp;nbsp; &amp;nbsp; &amp;nbsp; ),&lt;/div&gt;&lt;div&gt;&amp;nbsp; &amp;nbsp; &amp;nbsp; &amp;nbsp; &amp;nbsp; &amp;nbsp; &amp;nbsp; &amp;nbsp; idCliente: &#39;&#39;,&lt;/div&gt;&lt;div&gt;&amp;nbsp; &amp;nbsp; &amp;nbsp; &amp;nbsp; &amp;nbsp; &amp;nbsp; &amp;nbsp; &amp;nbsp; nombreUsuario: data.idUser,&lt;/div&gt;&lt;div&gt;&amp;nbsp; &amp;nbsp; &amp;nbsp; &amp;nbsp; &amp;nbsp; &amp;nbsp; &amp;nbsp; &amp;nbsp; idSesion: responseJSON.access_token,&lt;/div&gt;&lt;div&gt;&amp;nbsp; &amp;nbsp; &amp;nbsp; &amp;nbsp; &amp;nbsp; &amp;nbsp; &amp;nbsp; &amp;nbsp; accion: &#39;Registro&#39;,&lt;/div&gt;&lt;div&gt;&amp;nbsp; &amp;nbsp; &amp;nbsp; &amp;nbsp; &amp;nbsp; &amp;nbsp; &amp;nbsp; &amp;nbsp; estatus: &#39;Éxito&#39;,&lt;/div&gt;&lt;div&gt;&amp;nbsp; &amp;nbsp; &amp;nbsp; &amp;nbsp; &amp;nbsp; &amp;nbsp; &amp;nbsp; &amp;nbsp; recurso: `${SERVICE_TOKEN_OAUTH.PROTOCOL}//&lt;/div&gt;&lt;div&gt;${SERVICE_TOKEN_OAUTH.HOST}/&lt;/div&gt;&lt;div&gt;${SERVICE_TOKEN_OAUTH.PATH}:&lt;/div&gt;&lt;div&gt;${SERVICE_TOKEN_OAUTH.PORT}`,&lt;/div&gt;&lt;div&gt;&amp;nbsp; &amp;nbsp; &amp;nbsp; &amp;nbsp; &amp;nbsp; &amp;nbsp; &amp;nbsp; &amp;nbsp; fase: &#39;Registrar Nueva Contraseña OAuth&#39;,&lt;/div&gt;&lt;div&gt;&amp;nbsp; &amp;nbsp; &amp;nbsp; &amp;nbsp; &amp;nbsp; &amp;nbsp; &amp;nbsp; &amp;nbsp; descripcion: responseJSON&lt;/div&gt;&lt;div&gt;&amp;nbsp; &amp;nbsp; &amp;nbsp; &amp;nbsp; &amp;nbsp; &amp;nbsp; &amp;nbsp; }&lt;/div&gt;&lt;div&gt;&amp;nbsp; &amp;nbsp; &amp;nbsp; &amp;nbsp; &amp;nbsp; &amp;nbsp; },&lt;/div&gt;&lt;div&gt;&amp;nbsp; &amp;nbsp; &amp;nbsp; &amp;nbsp; &amp;nbsp; &amp;nbsp; LOGGER_AUTH&lt;/div&gt;&lt;div&gt;&amp;nbsp; &amp;nbsp; &amp;nbsp; &amp;nbsp; &amp;nbsp; )&lt;/div&gt;&lt;/div&gt;&lt;/div&gt;" lucidchartObjectId="FheHkomjUrPZ" id="YH1fGvTt6RqdAR0_2gCc-206">
          <mxCell style="html=1;whiteSpace=wrap;shape=process;whiteSpace=wrap;spacing=3;verticalAlign=top;strokeColor=#5e5e5e;strokeOpacity=100;fillOpacity=100;rounded=1;absoluteArcSize=1;arcSize=7.199999999999999;fillColor=#c7e8ac;strokeWidth=2;align=left;fontSize=13;" parent="1" vertex="1" zOrder="62">
            <mxGeometry x="1270" y="4990" width="400" height="400" as="geometry" />
          </mxCell>
        </UserObject>
        <mxCell id="YH1fGvTt6RqdAR0_2gCc-209" value="No" style="edgeStyle=orthogonalEdgeStyle;rounded=0;orthogonalLoop=1;jettySize=auto;html=1;exitX=0.5;exitY=1;exitDx=0;exitDy=0;entryX=0.5;entryY=0;entryDx=0;entryDy=0;" parent="1" source="YH1fGvTt6RqdAR0_2gCc-212" target="YH1fGvTt6RqdAR0_2gCc-223" edge="1">
          <mxGeometry relative="1" as="geometry">
            <mxPoint x="2107.5" y="5295" as="targetPoint" />
          </mxGeometry>
        </mxCell>
        <mxCell id="YH1fGvTt6RqdAR0_2gCc-210" style="edgeStyle=orthogonalEdgeStyle;rounded=0;orthogonalLoop=1;jettySize=auto;html=1;exitX=1;exitY=0.5;exitDx=0;exitDy=0;entryX=0;entryY=0.5;entryDx=0;entryDy=0;" parent="1" source="YH1fGvTt6RqdAR0_2gCc-212" target="YH1fGvTt6RqdAR0_2gCc-192" edge="1">
          <mxGeometry relative="1" as="geometry" />
        </mxCell>
        <mxCell id="YH1fGvTt6RqdAR0_2gCc-211" value="Si" style="edgeLabel;html=1;align=center;verticalAlign=middle;resizable=0;points=[];" parent="YH1fGvTt6RqdAR0_2gCc-210" vertex="1" connectable="0">
          <mxGeometry x="-0.3201" y="2" relative="1" as="geometry">
            <mxPoint as="offset" />
          </mxGeometry>
        </mxCell>
        <mxCell id="YH1fGvTt6RqdAR0_2gCc-212" value="Respuesta Exitosa" style="rhombus;whiteSpace=wrap;html=1;" parent="1" vertex="1">
          <mxGeometry x="2040" y="5130" width="135" height="120" as="geometry" />
        </mxCell>
        <mxCell id="YH1fGvTt6RqdAR0_2gCc-215" value="" style="group" parent="1" vertex="1" connectable="0">
          <mxGeometry x="315" y="4805" width="250" height="310" as="geometry" />
        </mxCell>
        <UserObject label="&lt;div style=&quot;text-align: left ; font-size: 13px&quot;&gt;&lt;span style=&quot;font-size: 13px ; color: rgb(201 , 45 , 57) ; font-weight: bold&quot;&gt;Header&lt;/span&gt;&lt;/div&gt;&lt;div style=&quot;text-align: left ; font-size: 13px&quot;&gt;&lt;div&gt;Accept: &#39;application/json&#39;,&lt;/div&gt;&lt;div&gt;&amp;nbsp;&#39;Content-Type&#39;: ‘application/x-www-form-urlencoded;charset=UTF-8’,&lt;/div&gt;&lt;div&gt;&amp;nbsp;idConsumidor: 25,&lt;/div&gt;&lt;div&gt;&amp;nbsp;idDestino: 14,&lt;/div&gt;&lt;div&gt;&amp;nbsp;usuario: &#39;usuarioMonte&#39;&lt;/div&gt;&lt;div&gt;&lt;br&gt;&lt;/div&gt;&lt;div&gt;&lt;br&gt;&lt;/div&gt;&lt;/div&gt;&lt;div style=&quot;text-align: left ; font-size: 13px&quot;&gt;&lt;span style=&quot;font-size: 13px ; color: rgb(0 , 0 , 0)&quot;&gt;&lt;br&gt;&lt;/span&gt;&lt;/div&gt;&lt;div style=&quot;text-align: left ; font-size: 13px&quot;&gt;&lt;/div&gt;" lucidchartObjectId="b2fHpSifme5C" id="YH1fGvTt6RqdAR0_2gCc-188">
          <mxCell style="html=1;whiteSpace=wrap;;whiteSpace=wrap;spacing=3;verticalAlign=top;strokeColor=#5e5e5e;strokeOpacity=100;fillOpacity=100;rounded=1;absoluteArcSize=1;arcSize=7.199999999999999;fillColor=#e5e5e5;strokeWidth=2;fontSize=13;" parent="YH1fGvTt6RqdAR0_2gCc-215" vertex="1" zOrder="87">
            <mxGeometry y="75" width="250" height="115" as="geometry" />
          </mxCell>
        </UserObject>
        <UserObject label="&lt;div style=&quot;text-align: left ; font-size: 13px&quot;&gt;&lt;span style=&quot;font-size: 13px ; color: rgb(201 , 45 , 57) ; font-weight: bold&quot;&gt;Payload&lt;/span&gt;&lt;span style=&quot;font-size: 13px ; color: rgb(0 , 0 , 0)&quot;&gt;&lt;br style=&quot;font-size: 13px&quot;&gt;&lt;/span&gt;&lt;/div&gt;&lt;div&gt;&lt;div style=&quot;text-align: left&quot;&gt;&lt;div&gt;•&lt;span&gt; &lt;/span&gt;grant_type:&amp;nbsp;client_credentials&lt;/div&gt;&lt;div&gt;•&lt;span&gt; &lt;/span&gt;client_id: e24fe3a5-43db-4c83-99ea-e0723e9a9c93&lt;/div&gt;&lt;div&gt;•&lt;span&gt; &lt;/span&gt;client_secret: 0d7f208d-0a5b-4225-984d-fd4313360e6b&lt;/div&gt;&lt;/div&gt;&lt;div style=&quot;font-size: 13px&quot;&gt;&lt;br&gt;&lt;/div&gt;&lt;/div&gt;&lt;div style=&quot;text-align: left ; font-size: 13px&quot;&gt;&lt;/div&gt;" lucidchartObjectId="b2fHGq9EwkId" id="YH1fGvTt6RqdAR0_2gCc-189">
          <mxCell style="html=1;whiteSpace=wrap;;whiteSpace=wrap;spacing=3;verticalAlign=top;strokeColor=#5e5e5e;strokeOpacity=100;fillOpacity=100;rounded=1;absoluteArcSize=1;arcSize=7.199999999999999;fillColor=#e5e5e5;strokeWidth=2;fontSize=13;" parent="YH1fGvTt6RqdAR0_2gCc-215" vertex="1" zOrder="88">
            <mxGeometry y="190" width="250" height="120" as="geometry" />
          </mxCell>
        </UserObject>
        <UserObject label="&lt;div style=&quot;text-align: left ; font-size: 13px&quot;&gt;&lt;span style=&quot;font-size: 13px ; color: rgb(201 , 45 , 57) ; font-weight: bold&quot;&gt;URL&lt;/span&gt;&lt;span style=&quot;font-size: 13px ; color: rgb(0 , 0 , 0)&quot;&gt;:&amp;nbsp;&lt;/span&gt;&lt;/div&gt;&lt;span lang=&quot;EN-US&quot; style=&quot;font-size: 10.0pt ; line-height: 107% ; font-family: &amp;#34;leelawadee ui&amp;#34; , sans-serif&quot;&gt;https://iamdr.montepiedad.com.mx:4444/&lt;br&gt;&lt;div style=&quot;text-align: left&quot;&gt;&lt;span style=&quot;font-size: 10pt&quot;&gt;NMP/oauth/token&lt;/span&gt;&lt;/div&gt;&lt;/span&gt;" lucidchartObjectId="b2fHP6a50O9K" id="YH1fGvTt6RqdAR0_2gCc-214">
          <mxCell style="html=1;whiteSpace=wrap;;whiteSpace=wrap;spacing=3;verticalAlign=top;strokeColor=#5e5e5e;strokeOpacity=100;fillOpacity=100;rounded=1;absoluteArcSize=1;arcSize=7.199999999999999;fillColor=#e5e5e5;strokeWidth=2;fontSize=13;" parent="YH1fGvTt6RqdAR0_2gCc-215" vertex="1" zOrder="89">
            <mxGeometry width="249.99999999999997" height="75.00000000000001" as="geometry" />
          </mxCell>
        </UserObject>
        <mxCell id="YH1fGvTt6RqdAR0_2gCc-216" value="" style="group" parent="1" vertex="1" connectable="0">
          <mxGeometry x="315" y="3750" width="250" height="310" as="geometry" />
        </mxCell>
        <UserObject label="&lt;div style=&quot;text-align: left ; font-size: 13px&quot;&gt;&lt;span style=&quot;font-size: 13px ; color: rgb(201 , 45 , 57) ; font-weight: bold&quot;&gt;Header&lt;/span&gt;&lt;/div&gt;&lt;div style=&quot;text-align: left ; font-size: 13px&quot;&gt;&lt;div&gt;Accept: &#39;application/json&#39;,&lt;/div&gt;&lt;div&gt;&amp;nbsp;&#39;Content-Type&#39;: ‘application/x-www-form-urlencoded;charset=UTF-8’,&lt;/div&gt;&lt;div&gt;&amp;nbsp;idConsumidor: 25,&lt;/div&gt;&lt;div&gt;&amp;nbsp;idDestino: 14,&lt;/div&gt;&lt;div&gt;&amp;nbsp;usuario: &#39;usuarioMonte&#39;&lt;/div&gt;&lt;div&gt;&lt;br&gt;&lt;/div&gt;&lt;div&gt;&lt;br&gt;&lt;/div&gt;&lt;/div&gt;&lt;div style=&quot;text-align: left ; font-size: 13px&quot;&gt;&lt;span style=&quot;font-size: 13px ; color: rgb(0 , 0 , 0)&quot;&gt;&lt;br&gt;&lt;/span&gt;&lt;/div&gt;&lt;div style=&quot;text-align: left ; font-size: 13px&quot;&gt;&lt;/div&gt;" lucidchartObjectId="b2fHpSifme5C" id="YH1fGvTt6RqdAR0_2gCc-143">
          <mxCell style="html=1;whiteSpace=wrap;;whiteSpace=wrap;spacing=3;verticalAlign=top;strokeColor=#5e5e5e;strokeOpacity=100;fillOpacity=100;rounded=1;absoluteArcSize=1;arcSize=7.199999999999999;fillColor=#e5e5e5;strokeWidth=2;fontSize=13;" parent="YH1fGvTt6RqdAR0_2gCc-216" vertex="1" zOrder="87">
            <mxGeometry y="75" width="250" height="115" as="geometry" />
          </mxCell>
        </UserObject>
        <UserObject label="&lt;div style=&quot;text-align: left ; font-size: 13px&quot;&gt;&lt;span style=&quot;font-size: 13px ; color: rgb(201 , 45 , 57) ; font-weight: bold&quot;&gt;Payload&lt;/span&gt;&lt;span style=&quot;font-size: 13px ; color: rgb(0 , 0 , 0)&quot;&gt;&lt;br style=&quot;font-size: 13px&quot;&gt;&lt;/span&gt;&lt;/div&gt;&lt;div&gt;&lt;div style=&quot;text-align: left&quot;&gt;&lt;div&gt;•&lt;span&gt; &lt;/span&gt;grant_type:&amp;nbsp;client_credentials&lt;/div&gt;&lt;div&gt;•&lt;span&gt; &lt;/span&gt;client_id: e24fe3a5-43db-4c83-99ea-e0723e9a9c93&lt;/div&gt;&lt;div&gt;•&lt;span&gt; &lt;/span&gt;client_secret: 0d7f208d-0a5b-4225-984d-fd4313360e6b&lt;/div&gt;&lt;/div&gt;&lt;div style=&quot;font-size: 13px&quot;&gt;&lt;br&gt;&lt;/div&gt;&lt;/div&gt;&lt;div style=&quot;text-align: left ; font-size: 13px&quot;&gt;&lt;/div&gt;" lucidchartObjectId="b2fHGq9EwkId" id="YH1fGvTt6RqdAR0_2gCc-144">
          <mxCell style="html=1;whiteSpace=wrap;;whiteSpace=wrap;spacing=3;verticalAlign=top;strokeColor=#5e5e5e;strokeOpacity=100;fillOpacity=100;rounded=1;absoluteArcSize=1;arcSize=7.199999999999999;fillColor=#e5e5e5;strokeWidth=2;fontSize=13;" parent="YH1fGvTt6RqdAR0_2gCc-216" vertex="1" zOrder="88">
            <mxGeometry y="190" width="250" height="120" as="geometry" />
          </mxCell>
        </UserObject>
        <UserObject label="&lt;div style=&quot;text-align: left ; font-size: 13px&quot;&gt;&lt;span style=&quot;font-size: 13px ; color: rgb(201 , 45 , 57) ; font-weight: bold&quot;&gt;URL&lt;/span&gt;&lt;span style=&quot;font-size: 13px ; color: rgb(0 , 0 , 0)&quot;&gt;:&amp;nbsp;&lt;/span&gt;&lt;/div&gt;&lt;span lang=&quot;EN-US&quot; style=&quot;font-size: 10.0pt ; line-height: 107% ; font-family: &amp;#34;leelawadee ui&amp;#34; , sans-serif&quot;&gt;https://iamdr.montepiedad.com.mx:4444/&lt;br&gt;&lt;div style=&quot;text-align: left&quot;&gt;&lt;span style=&quot;font-size: 10pt&quot;&gt;NMP/oauth/token&lt;/span&gt;&lt;/div&gt;&lt;/span&gt;" lucidchartObjectId="b2fHP6a50O9K" id="YH1fGvTt6RqdAR0_2gCc-145">
          <mxCell style="html=1;whiteSpace=wrap;;whiteSpace=wrap;spacing=3;verticalAlign=top;strokeColor=#5e5e5e;strokeOpacity=100;fillOpacity=100;rounded=1;absoluteArcSize=1;arcSize=7.199999999999999;fillColor=#e5e5e5;strokeWidth=2;fontSize=13;" parent="YH1fGvTt6RqdAR0_2gCc-216" vertex="1" zOrder="89">
            <mxGeometry width="249.99999999999997" height="75.00000000000001" as="geometry" />
          </mxCell>
        </UserObject>
        <mxCell id="YH1fGvTt6RqdAR0_2gCc-222" value="" style="group" parent="1" vertex="1" connectable="0">
          <mxGeometry x="1740" y="4705" width="250" height="405" as="geometry" />
        </mxCell>
        <mxCell id="YH1fGvTt6RqdAR0_2gCc-217" value="" style="group" parent="YH1fGvTt6RqdAR0_2gCc-222" vertex="1" connectable="0">
          <mxGeometry y="75" width="250" height="330" as="geometry" />
        </mxCell>
        <UserObject label="&lt;div style=&quot;text-align: left ; font-size: 13px&quot;&gt;&lt;span style=&quot;font-size: 13px ; color: rgb(201 , 45 , 57) ; font-weight: bold&quot;&gt;Header&lt;/span&gt;&lt;/div&gt;&lt;div style=&quot;text-align: left ; font-size: 13px&quot;&gt;&lt;div&gt;Accept: &#39;application/json&#39;,&lt;/div&gt;&lt;div&gt;&amp;nbsp;&#39;Content-Type&#39;: ‘application/x-www-form-urlencoded;charset=UTF-8’,&lt;/div&gt;&lt;div&gt;&amp;nbsp;idConsumidor: 25,&lt;/div&gt;&lt;div&gt;&amp;nbsp;idDestino: 14,&lt;/div&gt;&lt;div&gt;&amp;nbsp;usuario: &#39;usuarioMonte&#39;&lt;/div&gt;&lt;div&gt;&lt;span lang=&quot;EN-US&quot; style=&quot;font-size: 10.0pt ; line-height: 107% ; font-family: &amp;#34;leelawadee ui&amp;#34; , sans-serif&quot;&gt;Authorization: Baerer {access_token&lt;/span&gt;&lt;/div&gt;&lt;div&gt;&lt;span lang=&quot;EN-US&quot; style=&quot;font-size: 10.0pt ; line-height: 107% ; font-family: &amp;#34;leelawadee ui&amp;#34; , sans-serif&quot;&gt;}&lt;/span&gt;&lt;br&gt;&lt;/div&gt;&lt;div&gt;&lt;br&gt;&lt;/div&gt;&lt;div&gt;&lt;br&gt;&lt;/div&gt;&lt;/div&gt;&lt;div style=&quot;text-align: left ; font-size: 13px&quot;&gt;&lt;span style=&quot;font-size: 13px ; color: rgb(0 , 0 , 0)&quot;&gt;&lt;br&gt;&lt;/span&gt;&lt;/div&gt;&lt;div style=&quot;text-align: left ; font-size: 13px&quot;&gt;&lt;/div&gt;" lucidchartObjectId="b2fHpSifme5C" id="YH1fGvTt6RqdAR0_2gCc-207">
          <mxCell style="html=1;whiteSpace=wrap;;whiteSpace=wrap;spacing=3;verticalAlign=top;strokeColor=#5e5e5e;strokeOpacity=100;fillOpacity=100;rounded=1;absoluteArcSize=1;arcSize=7.199999999999999;fillColor=#e5e5e5;strokeWidth=2;fontSize=13;" parent="YH1fGvTt6RqdAR0_2gCc-217" vertex="1" zOrder="87">
            <mxGeometry width="250" height="155" as="geometry" />
          </mxCell>
        </UserObject>
        <UserObject label="&lt;div style=&quot;text-align: left ; font-size: 13px&quot;&gt;&lt;span style=&quot;font-size: 13px ; color: rgb(201 , 45 , 57) ; font-weight: bold&quot;&gt;Payload&lt;/span&gt;&lt;span style=&quot;font-size: 13px ; color: rgb(0 , 0 , 0)&quot;&gt;&lt;br style=&quot;font-size: 13px&quot;&gt;&lt;/span&gt;&lt;/div&gt;&lt;div&gt;&lt;div style=&quot;text-align: left&quot;&gt;&lt;div&gt;&lt;div&gt;{&lt;/div&gt;&lt;div&gt;&amp;nbsp; &amp;nbsp; &quot;usuario&quot;: {&lt;/div&gt;&lt;div&gt;&amp;nbsp; &amp;nbsp; &amp;nbsp; &amp;nbsp; &quot;nombreUsuario&quot;: &quot;gtqxhthfafmldtrmlt@niwghx.online&quot;,&lt;/div&gt;&lt;div&gt;&amp;nbsp; &amp;nbsp; &amp;nbsp; &amp;nbsp; &quot;contrasena&quot;: &quot;jrlB7NYaXy&amp;amp;a&quot;,&lt;/div&gt;&lt;div&gt;&amp;nbsp; &amp;nbsp; &amp;nbsp; &amp;nbsp; &quot;datosValidacion&quot;: {&lt;/div&gt;&lt;div&gt;&amp;nbsp; &amp;nbsp; &amp;nbsp; &amp;nbsp; &amp;nbsp; &amp;nbsp; &quot;token&quot;: &quot;&quot;&lt;/div&gt;&lt;div&gt;&amp;nbsp; &amp;nbsp; &amp;nbsp; &amp;nbsp; }&lt;/div&gt;&lt;div&gt;&amp;nbsp; &amp;nbsp; }&lt;/div&gt;&lt;div&gt;}&lt;/div&gt;&lt;/div&gt;&lt;div&gt;&lt;br&gt;&lt;/div&gt;&lt;div&gt;&lt;br&gt;&lt;/div&gt;&lt;/div&gt;&lt;div style=&quot;font-size: 13px&quot;&gt;&lt;br&gt;&lt;/div&gt;&lt;/div&gt;&lt;div style=&quot;text-align: left ; font-size: 13px&quot;&gt;&lt;/div&gt;" lucidchartObjectId="b2fHGq9EwkId" id="YH1fGvTt6RqdAR0_2gCc-208">
          <mxCell style="html=1;whiteSpace=wrap;;whiteSpace=wrap;spacing=3;verticalAlign=top;strokeColor=#5e5e5e;strokeOpacity=100;fillOpacity=100;rounded=1;absoluteArcSize=1;arcSize=7.199999999999999;fillColor=#e5e5e5;strokeWidth=2;fontSize=13;" parent="YH1fGvTt6RqdAR0_2gCc-217" vertex="1" zOrder="88">
            <mxGeometry y="155" width="250" height="175" as="geometry" />
          </mxCell>
        </UserObject>
        <UserObject label="&lt;div style=&quot;text-align: left ; font-size: 13px&quot;&gt;&lt;span style=&quot;font-size: 13px ; color: rgb(201 , 45 , 57) ; font-weight: bold&quot;&gt;URL&lt;/span&gt;&lt;span style=&quot;font-size: 13px ; color: rgb(0 , 0 , 0)&quot;&gt;:&amp;nbsp;&lt;/span&gt;&lt;/div&gt;&lt;font face=&quot;leelawadee ui, sans-serif&quot;&gt;&lt;span style=&quot;font-size: 13.3333px&quot;&gt;https://iamdr.montepiedad.com.mx:4444/&lt;br&gt;NMP/GestionClientes/UsuariosMonte/v1&lt;br&gt;/registrarContrasena&lt;/span&gt;&lt;/font&gt;" lucidchartObjectId="b2fHP6a50O9K" id="YH1fGvTt6RqdAR0_2gCc-221">
          <mxCell style="html=1;whiteSpace=wrap;;whiteSpace=wrap;spacing=3;verticalAlign=top;strokeColor=#5e5e5e;strokeOpacity=100;fillOpacity=100;rounded=1;absoluteArcSize=1;arcSize=7.199999999999999;fillColor=#e5e5e5;strokeWidth=2;fontSize=13;" parent="YH1fGvTt6RqdAR0_2gCc-222" vertex="1" zOrder="89">
            <mxGeometry width="249.99999999999997" height="75.00000000000001" as="geometry" />
          </mxCell>
        </UserObject>
        <UserObject label="&lt;div&gt;LOGGER(&lt;/div&gt;&lt;div&gt;&amp;nbsp; &amp;nbsp; &amp;nbsp; &amp;nbsp; &amp;nbsp; &amp;nbsp; &amp;nbsp; &amp;nbsp; &#39;ERROR&#39;,&lt;/div&gt;&lt;div&gt;&amp;nbsp; &amp;nbsp; &amp;nbsp; &amp;nbsp; &amp;nbsp; &amp;nbsp; &amp;nbsp; &amp;nbsp; {&lt;/div&gt;&lt;div&gt;&amp;nbsp; &amp;nbsp; &amp;nbsp; &amp;nbsp; &amp;nbsp; &amp;nbsp; &amp;nbsp; &amp;nbsp; &amp;nbsp; pid: process.pid,&lt;/div&gt;&lt;div&gt;&amp;nbsp; &amp;nbsp; &amp;nbsp; &amp;nbsp; &amp;nbsp; &amp;nbsp; &amp;nbsp; &amp;nbsp; &amp;nbsp; hostname: process.env.BACKEND_SERVER,&lt;/div&gt;&lt;div&gt;&amp;nbsp; &amp;nbsp; &amp;nbsp; &amp;nbsp; &amp;nbsp; &amp;nbsp; &amp;nbsp; &amp;nbsp; &amp;nbsp; message: {&lt;/div&gt;&lt;div&gt;&amp;nbsp; &amp;nbsp; &amp;nbsp; &amp;nbsp; &amp;nbsp; &amp;nbsp; &amp;nbsp; &amp;nbsp; &amp;nbsp; &amp;nbsp; ipRemota: publicIp(&lt;/div&gt;&lt;div&gt;&amp;nbsp; &amp;nbsp; &amp;nbsp; &amp;nbsp; &amp;nbsp; &amp;nbsp; &amp;nbsp; &amp;nbsp; &amp;nbsp; &amp;nbsp; &amp;nbsp; req.header(&#39;x-forwarded-for&#39;) ||&lt;/div&gt;&lt;div&gt;&amp;nbsp; &amp;nbsp; &amp;nbsp; &amp;nbsp; &amp;nbsp; &amp;nbsp; &amp;nbsp; &amp;nbsp; &amp;nbsp; &amp;nbsp; &amp;nbsp; &amp;nbsp; req.connection.remoteAddress&lt;/div&gt;&lt;div&gt;&amp;nbsp; &amp;nbsp; &amp;nbsp; &amp;nbsp; &amp;nbsp; &amp;nbsp; &amp;nbsp; &amp;nbsp; &amp;nbsp; &amp;nbsp; ),&lt;/div&gt;&lt;div&gt;&amp;nbsp; &amp;nbsp; &amp;nbsp; &amp;nbsp; &amp;nbsp; &amp;nbsp; &amp;nbsp; &amp;nbsp; &amp;nbsp; &amp;nbsp; idCliente: &#39;&#39;,&lt;/div&gt;&lt;div&gt;&amp;nbsp; &amp;nbsp; &amp;nbsp; &amp;nbsp; &amp;nbsp; &amp;nbsp; &amp;nbsp; &amp;nbsp; &amp;nbsp; &amp;nbsp; nombreUsuario: data.idUser,&lt;/div&gt;&lt;div&gt;&amp;nbsp; &amp;nbsp; &amp;nbsp; &amp;nbsp; &amp;nbsp; &amp;nbsp; &amp;nbsp; &amp;nbsp; &amp;nbsp; &amp;nbsp; idSesion: responseJSON.access_token,&lt;/div&gt;&lt;div&gt;&amp;nbsp; &amp;nbsp; &amp;nbsp; &amp;nbsp; &amp;nbsp; &amp;nbsp; &amp;nbsp; &amp;nbsp; &amp;nbsp; &amp;nbsp; accion: &#39;Registro&#39;,&lt;/div&gt;&lt;div&gt;&amp;nbsp; &amp;nbsp; &amp;nbsp; &amp;nbsp; &amp;nbsp; &amp;nbsp; &amp;nbsp; &amp;nbsp; &amp;nbsp; &amp;nbsp; estatus: &#39;Error&#39;,&lt;/div&gt;&lt;div&gt;&amp;nbsp; &amp;nbsp; &amp;nbsp; &amp;nbsp; &amp;nbsp; &amp;nbsp; &amp;nbsp; &amp;nbsp; &amp;nbsp; &amp;nbsp; recurso: `${SERVICE_TOKEN_OAUTH.PROTOCOL}//&lt;/div&gt;&lt;div&gt;${SERVICE_TOKEN_OAUTH.HOST}/&lt;/div&gt;&lt;div&gt;${SERVICE_TOKEN_OAUTH.PATH}:&lt;/div&gt;&lt;div&gt;${SERVICE_TOKEN_OAUTH.PORT}`,&lt;/div&gt;&lt;div&gt;&amp;nbsp; &amp;nbsp; &amp;nbsp; &amp;nbsp; &amp;nbsp; &amp;nbsp; &amp;nbsp; &amp;nbsp; &amp;nbsp; &amp;nbsp; fase: &#39;Registrar Nueva Contraseña&#39;,&lt;/div&gt;&lt;div&gt;&amp;nbsp; &amp;nbsp; &amp;nbsp; &amp;nbsp; &amp;nbsp; &amp;nbsp; &amp;nbsp; &amp;nbsp; &amp;nbsp; &amp;nbsp; descripcion: err&lt;/div&gt;&lt;div&gt;&amp;nbsp; &amp;nbsp; &amp;nbsp; &amp;nbsp; &amp;nbsp; &amp;nbsp; &amp;nbsp; &amp;nbsp; &amp;nbsp; }&lt;/div&gt;&lt;div&gt;&amp;nbsp; &amp;nbsp; &amp;nbsp; &amp;nbsp; &amp;nbsp; &amp;nbsp; &amp;nbsp; &amp;nbsp; },&lt;/div&gt;&lt;div&gt;&amp;nbsp; &amp;nbsp; &amp;nbsp; &amp;nbsp; &amp;nbsp; &amp;nbsp; &amp;nbsp; &amp;nbsp; LOGGER_AUTH&lt;/div&gt;&lt;div&gt;&amp;nbsp; &amp;nbsp; &amp;nbsp; &amp;nbsp; &amp;nbsp; &amp;nbsp; &amp;nbsp; )&lt;/div&gt;" lucidchartObjectId="FheHkomjUrPZ" id="YH1fGvTt6RqdAR0_2gCc-223">
          <mxCell style="html=1;whiteSpace=wrap;shape=process;whiteSpace=wrap;spacing=3;verticalAlign=top;strokeColor=#b85450;strokeOpacity=100;fillOpacity=100;rounded=1;absoluteArcSize=1;arcSize=7.199999999999999;strokeWidth=2;align=left;fontSize=13;size=0.1;fillColor=#FFBBB1;" parent="1" vertex="1" zOrder="62">
            <mxGeometry x="1907.5" y="5315" width="400" height="415" as="geometry" />
          </mxCell>
        </UserObject>
        <UserObject label="&lt;div style=&quot;font-size: 21px&quot;&gt;&lt;span style=&quot;font-size: 21px&quot;&gt;Response:&amp;nbsp;&lt;/span&gt;&lt;/div&gt;&lt;div style=&quot;font-size: 21px&quot;&gt;&lt;span style=&quot;font-size: 21px&quot;&gt;&lt;div style=&quot;font-size: 21px&quot;&gt;&lt;span style=&quot;font-size: 21px ; line-height: 107% ; font-family: &amp;#34;leelawadee ui&amp;#34; , sans-serif ; background-color: rgb(231 , 255 , 71)&quot;&gt;Necesitamos el token de validacion para poder&lt;br style=&quot;font-size: 21px&quot;&gt;probar la respuesta que regresa&lt;/span&gt;&lt;br style=&quot;font-size: 21px&quot;&gt;&lt;/div&gt;&lt;div style=&quot;font-size: 21px&quot;&gt;&lt;br style=&quot;font-size: 21px&quot;&gt;&lt;/div&gt;&lt;/span&gt;&lt;/div&gt;&lt;font style=&quot;font-size: 21px&quot;&gt;&lt;div style=&quot;font-size: 21px&quot;&gt;&lt;br style=&quot;font-size: 21px&quot;&gt;&lt;/div&gt;&lt;/font&gt;" lucidchartObjectId="FheHwJTHAw6u" id="YH1fGvTt6RqdAR0_2gCc-224">
          <mxCell style="html=1;whiteSpace=wrap;;whiteSpace=wrap;spacing=3;verticalAlign=top;strokeColor=#5e5e5e;strokeOpacity=100;rounded=1;absoluteArcSize=1;arcSize=7.199999999999999;strokeWidth=2;fontSize=21;align=left;" parent="1" vertex="1" zOrder="69">
            <mxGeometry x="2800" y="5137.5" width="440" height="112.5" as="geometry" />
          </mxCell>
        </UserObject>
      </root>
    </mxGraphModel>
  </diagram>
</mxfile>
